<?xml version="1.0" encoding="utf-8"?>
<!-- Generator: Adobe Illustrator 19.0.0, SVG Export Plug-In . SVG Version: 6.00 Build 0)  -->
<!DOCTYPE svg PUBLIC "-//W3C//DTD SVG 1.1//EN" "http://www.w3.org/Graphics/SVG/1.1/DTD/svg11.dtd">
<svg version="1.1" id="Calque_1" xmlns="http://www.w3.org/2000/svg" xmlns:xlink="http://www.w3.org/1999/xlink" x="0px" y="0px"
	 viewBox="0 0 100 100" style="enable-background:new 0 0 100 100;" xml:space="preserve">
<g>
	<path d="M49.8,95.1c2,0,3.7-1.7,3.7-3.7s-1.7-3.7-3.7-3.7s-3.7,1.7-3.7,3.7S47.8,95.1,49.8,95.1z"/>
	<circle cx="41.9" cy="8.6" r="1.8"/>
	<path d="M57.7,7.3H47c-0.9,0-1.7,0.8-1.7,1.7s0.8,1.7,1.7,1.7h10.7c0.9,0,1.7-0.8,1.7-1.7S58.7,7.3,57.7,7.3z"/>
	<path d="M69.1,0.2H30.9c-5.1,0-9.3,4.2-9.3,9.3v81c0,5.1,4.2,9.3,9.3,9.3h38.2c5.1,0,9.3-4.2,9.3-9.3v-81
		C78.4,4.3,74.3,0.2,69.1,0.2z M24.9,85.6h50.1v4.9c0,3.3-2.7,5.9-5.9,5.9H30.9c-3.3,0-5.9-2.7-5.9-5.9V85.6z M75.1,13.2H24.9V9.5
		c0-3.3,2.7-5.9,5.9-5.9h38.2c3.3,0,5.9,2.7,5.9,5.9V13.2z M75.1,16.6v65.6H24.9V16.6H75.1z"/>
</g>
</svg>
