<?xml version="1.0" encoding="utf-8"?>
<!-- Generator: Adobe Illustrator 19.0.0, SVG Export Plug-In . SVG Version: 6.00 Build 0)  -->
<!DOCTYPE svg PUBLIC "-//W3C//DTD SVG 1.1//EN" "http://www.w3.org/Graphics/SVG/1.1/DTD/svg11.dtd">
<svg version="1.1" id="Layer_1" xmlns="http://www.w3.org/2000/svg" xmlns:xlink="http://www.w3.org/1999/xlink" x="0px" y="0px"
	 viewBox="206 -206 512 512" style="enable-background:new 206 -206 512 512;" xml:space="preserve">
<g>
	<path d="M462,286.5l-6-8c-0.4-0.5-36.7-49.1-72.5-110.7c-48.4-83.4-73-150-73-197.8c0-83.5,68-151.5,151.5-151.5
		c83.5,0,151.5,68,151.5,151.5c0,47.8-24.6,114.3-73,197.8C504.7,229.4,468.4,278,468,278.5L462,286.5z M462-166.5
		c-75.3,0-136.5,61.2-136.5,136.5c0,95.3,109.4,253.6,136.5,291.3c27.1-37.7,136.5-196,136.5-291.3
		C598.5-105.3,537.3-166.5,462-166.5z M462,24.4c-30,0-54.4-24.4-54.4-54.4S432-84.4,462-84.4S516.4-60,516.4-30S492,24.4,462,24.4z
		 M462-69.4c-21.7,0-39.4,17.7-39.4,39.4S440.3,9.4,462,9.4c21.7,0,39.4-17.7,39.4-39.4S483.7-69.4,462-69.4z"/>
</g>
</svg>
