<?xml version="1.0" encoding="utf-8"?>
<!-- Generator: Adobe Illustrator 18.1.1, SVG Export Plug-In . SVG Version: 6.00 Build 0)  -->
<svg version="1.1" id="Calque_1" xmlns="http://www.w3.org/2000/svg" xmlns:xlink="http://www.w3.org/1999/xlink" x="0px" y="0px"
	 viewBox="0 0 474.5 416.1" enable-background="new 0 0 474.5 416.1" xml:space="preserve">
<path d="M172.2,97.3c-6.3,25.4-12.4,49.9-18.5,74.4c-8.7,34.8-17.3,69.7-26,104.5c-2.4,9.7-7.9,14-17.9,14
	c-36.5,0-73,0-109.8,0c0-10.5,0-20.9,0-31.9c32.9,0,65.9,0,99.1,0c6.9-27.8,13.8-55.2,20.6-82.6c13.4-53.7,26.7-107.4,40.1-161.1
	c2.9-11.6,11.9-17.1,21.3-13.3c6.1,2.5,9.4,7.4,10.4,13.7c7.1,42.3,14.1,84.6,21.2,127c7.4,44.8,14.9,89.6,22.3,134.4
	c2.5,15.1,5.1,30.2,7.6,45.3c0.3,1.6,0.6,3.1,1.8,4.7c3.7-12.9,7.5-25.8,11.2-38.7c10.7-37.4,21.4-74.7,32-112.1
	c1.9-6.6,5.4-11.6,12.2-13.1c6.3-1.4,12,0.1,16.1,5.5c1.7,2.2,2.8,4.9,3.7,7.5c9.2,27.4,18.3,54.8,27.5,82.7c42.2,0,84.7,0,127.3,0
	c0,10.9,0,21.3,0,32.1c-1.6,0-3,0-4.5,0c-43.8,0-87.7,0-131.5,0c-10.7,0-15.5-3.4-18.8-13.5c-4.8-14.3-9.5-28.7-14.6-44
	c-0.9,2.4-1.6,4.1-2.1,5.9c-15.7,54.8-31.4,109.5-47.1,164.3c-2.7,9.4-8.4,13.9-17.2,13.3c-8.5-0.5-13.5-5.4-15.1-15
	c-13-77.9-26-155.9-38.9-233.8c-3.7-22-7.3-44-11-65.9C173.4,100.3,172.9,99.2,172.2,97.3z"/>
</svg>
