<?xml version="1.0" encoding="utf-8"?>
<!-- Generator: Adobe Illustrator 19.0.0, SVG Export Plug-In . SVG Version: 6.00 Build 0)  -->
<!DOCTYPE svg PUBLIC "-//W3C//DTD SVG 1.1//EN" "http://www.w3.org/Graphics/SVG/1.1/DTD/svg11.dtd">
<svg version="1.1" id="Calque_1" xmlns="http://www.w3.org/2000/svg" xmlns:xlink="http://www.w3.org/1999/xlink" x="0px" y="0px"
	 viewBox="0 0 100 100" style="enable-background:new 0 0 100 100;" xml:space="preserve">
<g>
	<g>
		<g id="XMLID_1_">
			<path d="M59.6,23.2C59.6,23.2,59.6,23.2,59.6,23.2l15.8-3.6c0.2,0,0.3,0,0.4,0.1c0.1,0.1,0.2,0.2,0.2,0.3c0,0.2,0,0.3-0.1,0.4
				c-0.1,0.1-0.2,0.2-0.3,0.2l-15.7,3.6c-0.1,0.1-0.2,0.1-0.3,0c-0.1-0.1-0.2-0.2-0.3-0.4c0-0.2,0-0.3,0.1-0.4
				C59.4,23.4,59.5,23.3,59.6,23.2z"/>
			<path d="M60.6,29.6c0.1-0.1,0.2-0.2,0.3-0.2c0,0,0.1,0,0.1,0l20.2-4.6c0.2,0,0.3,0,0.4,0.1c0.1,0.1,0.2,0.2,0.2,0.3
				c0.1,0.3-0.2,0.6-0.4,0.6l-20.2,4.6c-0.2,0-0.3,0-0.4-0.1c-0.1-0.1-0.2-0.2-0.2-0.3l0,0C60.5,29.8,60.6,29.6,60.6,29.6z"/>
			<path d="M62.1,35.4l25.4-5.8c0.2,0,0.3,0,0.4,0.1c0.1,0.1,0.2,0.2,0.2,0.3c0,0.2,0,0.3-0.1,0.4c-0.1,0.1-0.2,0.2-0.3,0.2
				l-25.3,5.8c-0.2,0-0.3,0-0.4,0c-0.1,0-0.2-0.1-0.2-0.3c0-0.2,0-0.3,0.1-0.4C61.9,35.6,61.9,35.5,62.1,35.4
				C62.1,35.4,62.1,35.4,62.1,35.4z"/>
		</g>
		<g>
			<path d="M50.3,20.5c0.2-0.1,1.8-0.4,2-0.5c1.8,7.7,3.6,15.3,5.4,22.9c-13.5,3.2-27,6.4-40.5,9.5c-1.8-7.7-3.6-15.3-5.4-22.9
				c0.6-0.1,1.2-0.3,1.8-0.4 M51.4,21.4c-40.2,9.5-38.3,9.1-38.3,9.1c1.9,7.9,3,12.8,4.8,20.4C18,50.9,18,51,18,51.1
				c0.2,0,38.1-8.9,38.2-9C54.6,35.2,53,28.3,51.4,21.4z"/>
			<path d="M26.6,45.6c-4.3,0.9-8.5-1.6-9.5-5.9c-1-4.3,1.6-8.5,5.9-9.5s8.4,1.6,9.4,5.9C33.5,40.5,30.9,44.5,26.6,45.6z M27.5,40.7
				c1.3,0.1,2.5,0.3,3.7,0.4c1.6-2.8,0.8-6.9-2.3-9.1c-3.5-2.4-8.3-1.3-10.4,2.4c-1.9,3.4-0.6,7.4,2,9.2c0,0,2.8-1.8,2.9-1.9
				c0.1-0.1,0.2-0.1,0.2-0.3c-0.1-0.3-0.1-0.7-0.3-1c-0.1-0.1-0.7-1.2-0.8-1.2c-0.6-0.5-0.9-1.5-0.9-1.9c0.1-1-1.3-2.2-0.1-3.9
				c1.1-1.8,5.1-2.3,5.8,0.7c0.1,0.4-0.1,0.9,0.2,1.6c0.6,1.3,0,2,0,3.1c0,0.2,0,0.4-0.1,0.6C27.3,40,27.4,40.4,27.5,40.7z"/>
		</g>
	</g>
	<g>
		<g id="XMLID_2_">
			<path d="M36.1,61.3L36.1,61.3L20.4,65c-0.2,0-0.2,0.2-0.3,0.2C20,65.3,20,65.5,20,65.7s0.2,0.2,0.2,0.3s0.2,0.1,0.4,0.1l15.7-3.7
				c0.2,0,0.2-0.1,0.3-0.2c0.1-0.1,0.2-0.3,0.1-0.5c0-0.2-0.2-0.2-0.2-0.3C36.4,61.3,36.3,61.3,36.1,61.3z"/>
			<path d="M38,67.4c-0.1-0.1-0.2-0.1-0.3-0.1h-0.1l-20.3,4.8c-0.2,0-0.2,0.2-0.3,0.2s-0.1,0.2-0.1,0.4c0.1,0.3,0.4,0.4,0.7,0.4
				l20.2-4.8c0.2,0,0.2-0.2,0.3-0.2c0.1-0.1,0.1-0.2,0.1-0.4l0,0C38.2,67.5,38.1,67.5,38,67.4z"/>
			<path d="M39.2,73.3l-25.4,6c-0.2,0-0.2,0.2-0.3,0.2c-0.1,0.1-0.1,0.2-0.1,0.4c0,0.2,0.2,0.2,0.2,0.3c0.1,0.1,0.2,0.1,0.4,0.1
				l25.3-6.1c0.2,0,0.3-0.1,0.4-0.2c0.1-0.1,0.1-0.2,0.1-0.4c0-0.2-0.2-0.2-0.2-0.3C39.5,73.4,39.4,73.3,39.2,73.3L39.2,73.3z"/>
		</g>
		<g>
			<path d="M80.8,45.8c0.2-0.1,1.7-0.4,2-0.5c1.8,7.6,3.6,15.3,5.4,22.9c-13.5,3.2-27,6.3-40.5,9.5c-1.8-7.6-3.6-15.3-5.4-22.9
				c0.6-0.2,1.2-0.2,1.8-0.4 M81.8,46.7c-40.2,9.5-38.3,9-38.3,9c1.9,7.9,3,12.8,4.8,20.4c0.1,0.1,0.1,0.2,0.1,0.2
				c0.2,0,38.1-8.9,38.2-9C85.1,60.5,83.5,53.7,81.8,46.7z"/>
			<path d="M57.1,70.9c-4.3,0.9-8.5-1.6-9.5-5.9c-1-4.4,1.6-8.5,5.8-9.5c4.3-1,8.5,1.6,9.5,5.8C63.9,65.7,61.4,69.8,57.1,70.9z
				 M57.9,66c1.3,0.2,2.5,0.2,3.7,0.4c1.6-2.7,0.7-6.9-2.3-9C55.8,55,51,56,48.9,59.7c-1.9,3.5-0.7,7.4,2,9.2c0,0,2.8-1.8,2.9-1.9
				c0.1-0.1,0.2-0.2,0.2-0.2c-0.1-0.3-0.1-0.7-0.3-1c-0.1-0.1-0.7-1.2-0.7-1.2c-0.6-0.5-0.9-1.5-0.9-1.9c0.1-1-1.2-2.2-0.2-3.9
				c1.2-1.8,5.1-2.3,5.8,0.7c0.1,0.4-0.1,0.8,0.2,1.6c0.6,1.3,0,2,0,3.1c0,0.2,0,0.4-0.1,0.6C57.7,65.2,57.8,65.7,57.9,66z"/>
		</g>
	</g>
</g>
</svg>
