<?xml version="1.0" encoding="utf-8"?>
<!-- Generator: Adobe Illustrator 19.0.0, SVG Export Plug-In . SVG Version: 6.00 Build 0)  -->
<!DOCTYPE svg PUBLIC "-//W3C//DTD SVG 1.1//EN" "http://www.w3.org/Graphics/SVG/1.1/DTD/svg11.dtd">
<svg version="1.1" id="Calque_1" xmlns="http://www.w3.org/2000/svg" xmlns:xlink="http://www.w3.org/1999/xlink" x="0px" y="0px"
	 viewBox="-37 34.7 100 100" style="enable-background:new -37 34.7 100 100;" xml:space="preserve">
<style type="text/css">
	.st0{fill:#231F20;}
</style>
<g>
	<path id="XMLID_8_" class="st0" d="M-20.9,112.8c7.3,0,14.6-1.1,14.6,6.2c0,7.4-8.4,6.6-12.1,6.6v8.4h-2.6V112.8z M-14.6,123.7
		c3.7,0,5.5-1.5,5.5-4.4c0-4.6-3.6-4-9.1-4v8.4C-18.3,123.7-14.6,123.7-14.6,123.7z"/>
	<path id="XMLID_11_" class="st0" d="M-2.2,112.8h2.9v19.4h9.5v2.2H-2.2V112.8z"/>
	<path id="XMLID_13_" class="st0" d="M12.8,112.8h2.9c0,12.7-1.2,19.7,5.1,19.7c6.3,0,5.1-7,5.1-19.7h2.2c0,13.4,1.5,21.9-7.7,21.9
		c-4.4,0-7.7-2.2-7.7-9.1C12.8,125.6,12.8,112.8,12.8,112.8z"/>
	<path id="XMLID_15_" class="st0" d="M33.6,129.6c3.5,3.5,10.2,3.7,10.2-1.1c0-2.9-2.3-3-6.6-5.1c-7.2-2.9-4.9-11.3,2.6-11.3
		c2.6,0,4.8,1.1,6.2,2.6l-1.5,1.8c-5.3-4-8.8-1.8-8.8,1.1c0,2.7,2.6,3.1,6.6,5.1c11.2,4.8-0.9,18.5-10.6,8.8L33.6,129.6z"/>
	<g id="XMLID_42_">
		<path id="XMLID_46_" class="st0" d="M1.8,82.4c-3.6,0-6.6-2.1-6.6-5.8c0-4.7,16.2-20.2,24.1-13.9c1.5,1.1,2.6,2.6,2.9,4.4
			c0.9,2.7-3.1,15.2-4,17.9c24.1,0-20.8,39.4-20.8,12.4C-1.6,94.4-0.5,90.4,1.8,82.4L1.8,82.4z M1.8,101.4
			c5.5,5.5,15.3-3.9,19.7-10.2c0-1.4-0.2-2.2-1.8-2.2c-1.5,1.8-7.7,8.2-7.7,5.8c0-5,7.9-23.2,6.2-28.1c-3.5-6.9-15.6,3.2-19.4,9.5
			c-0.4,0.4-0.4,0.7,0,1.1c0.7,0.7,1.1,1.1,1.8,0.4c1.5-2,4.1-4.4,6.2-5.5c2.3-2.3-2.4,12.6-5.1,22.7C1.5,96.9,0.4,100.1,1.8,101.4z
			"/>
		<path id="XMLID_43_" class="st0" d="M13.5,58.3c-3.3,0-5.5-2.6-6.2-5.1c-1.9-6.6,6.4-18.6,13.5-18.6c4.5,0,8.6,4.4,6.6,10.6
			C25.4,51.9,18.1,58,13.9,58C13.9,58.3,13.9,58.3,13.5,58.3z M10.9,52.5c0.7,3,4.2,2.7,6.2,0.7c14.5-10.8,3.3-23.8-5.5-6.2
			C10.9,49.4,10.9,50.3,10.9,52.5z"/>
	</g>
</g>
</svg>
