<?xml version="1.0" encoding="utf-8"?>
<!-- Generator: Adobe Illustrator 19.1.0, SVG Export Plug-In . SVG Version: 6.00 Build 0)  -->
<!DOCTYPE svg PUBLIC "-//W3C//DTD SVG 1.1//EN" "http://www.w3.org/Graphics/SVG/1.1/DTD/svg11.dtd">
<svg version="1.1" id="Calque_1" xmlns="http://www.w3.org/2000/svg" xmlns:xlink="http://www.w3.org/1999/xlink" x="0px" y="0px"
	 viewBox="0 0 100 100" style="enable-background:new 0 0 100 100;" xml:space="preserve">
<g>
	<path d="M34.3,19.2v6c0,0.3,0.3,0.6,0.6,0.6h59.1c0.3,0,0.6,0.3,0.6,0.6v54.3c0,0.3-0.3,0.6-0.6,0.6H5.9c-0.3,0-0.6-0.3-0.6-0.6
		V19.2c0-0.3,0.3-0.6,0.6-0.6h27.8C34,18.6,34.3,18.9,34.3,19.2z M34.3,15h-29c-2,0-3.6,1.6-3.6,3.6v62.8c0,2,1.6,3.6,3.6,3.6h89.3
		c2,0,3.6-1.6,3.6-3.6V25.9c0-2-1.6-3.6-3.6-3.6H37.9v-3.6C37.9,16.6,36.3,15,34.3,15L34.3,15z"/>
	<g>
		<path d="M75.3,68.8c-0.1-6.4-4.1-11.8-9.8-14.2c2.3-1.9,3.8-4.7,3.8-8c0-5.6-4.6-10.2-10.2-10.2c-4.2,0-7.8,2.5-9.4,6.1
			c-1.6-3.6-5.2-6.1-9.4-6.1c-5.6,0-10.2,4.6-10.2,10.2c0,3.2,1.5,6.1,3.8,8c-5.8,2.4-9.8,8-9.8,14.5c0,1,0.8,1.8,1.8,1.8h18.7h10.2
			c0,0,0,0,0,0h18.7c0,0,0,0,0,0c1,0,1.8-0.8,1.8-1.8C75.3,69,75.3,68.9,75.3,68.8z M59,40c3.7,0,6.6,3,6.6,6.6c0,3.7-3,6.6-6.6,6.6
			s-6.6-3-6.6-6.6C52.4,42.9,55.4,40,59,40z M49.7,50.8c0.7,1.5,1.6,2.8,2.9,3.8c-1,0.4-2,1-2.9,1.6c-0.9-0.6-1.9-1.1-2.9-1.6
			C48,53.5,49,52.3,49.7,50.8z M33.7,46.6c0-3.7,3-6.6,6.6-6.6s6.6,3,6.6,6.6c0,3.7-3,6.6-6.6,6.6S33.7,50.3,33.7,46.6z M42.9,67.3
			H27.8c0.9-5.9,6.2-10.4,12.5-10.4c2.4,0,4.6,0.6,6.5,1.8c1,0.6,2,1.4,2.8,2.2c1.6,1.8,2.8,4,3.2,6.4H42.9z M56.5,67.3
			c-0.4-3.3-1.8-6.3-4-8.7c1.9-1.1,4.1-1.8,6.5-1.8c6.3,0,11.6,4.5,12.5,10.4H56.5z"/>
	</g>
</g>
</svg>
