<?xml version="1.0" encoding="utf-8"?>
<!-- Generator: Adobe Illustrator 19.0.0, SVG Export Plug-In . SVG Version: 6.00 Build 0)  -->
<!DOCTYPE svg PUBLIC "-//W3C//DTD SVG 1.1//EN" "http://www.w3.org/Graphics/SVG/1.1/DTD/svg11.dtd">
<svg version="1.1" id="Capa_1" xmlns="http://www.w3.org/2000/svg" xmlns:xlink="http://www.w3.org/1999/xlink" x="0px" y="0px"
	 viewBox="215 -215.3 530.3 530.3" style="enable-background:new 215 -215.3 530.3 530.3;" xml:space="preserve">
<g>
	<path d="M726.1-28.1c-90.2-49-138.2-35.8-234-10.7c-4.1,1.1-8,1.5-12,1.7c-17-0.6-81.5-22.7-125.3-24.2
		c-43.6-1.5-83.1,12.8-120.7,33.2c-17.1,9.3-21.6,17.5-18.1,32.6c6.5,28.2,15.7,54.2,41.2,95.7c14,22.8,29.1,43.4,55.6,52.8
		c16,5.8,32.4,9,49.4,7.9c9.5-0.6,18-4.6,26.5-8.8c8.4-4.2,17-8,24.5-13.6c7.5-5.6,15.5-10.8,22-17.4c0,0,26.9-26.2,44.9-30.2
		c18.1,4,44.9,30.2,44.9,30.2c6.5,6.6,14.5,11.8,22,17.4c7.5,5.6,16.1,9.5,24.5,13.6c8.4,4.2,17,8.2,26.5,8.8
		c17,1,33.3-2.2,49.4-7.9c26.4-9.5,41.6-30.1,55.6-52.8c25.4-41.4,34.6-67.4,41.2-95.7C747.6-10.6,743.2-18.8,726.1-28.1z M348,73.7
		c-33.9-11.5-51.5-50-51.5-50s37.4-19.8,71.3-8.2s51.5,50,51.5,50S381.9,85.2,348,73.7z M612.3,73.7c-33.9,11.5-71.3-8.2-71.3-8.2
		s17.6-38.5,51.5-50c33.9-11.5,71.3,8.2,71.3,8.2S646.2,62.1,612.3,73.7z"/>
</g>
</svg>
