<?xml version="1.0" encoding="utf-8"?>
<!-- Generator: Adobe Illustrator 19.0.0, SVG Export Plug-In . SVG Version: 6.00 Build 0)  -->
<!DOCTYPE svg PUBLIC "-//W3C//DTD SVG 1.1//EN" "http://www.w3.org/Graphics/SVG/1.1/DTD/svg11.dtd">
<svg version="1.1" id="Calque_1" xmlns:sketch="http://www.bohemiancoding.com/sketch/ns"
	 xmlns="http://www.w3.org/2000/svg" xmlns:xlink="http://www.w3.org/1999/xlink" x="0px" y="0px" viewBox="-39 39 100 100"
	 style="enable-background:new -39 39 100 100;" xml:space="preserve">
<title>Shape</title>
<desc>Created with Sketch.</desc>
<g id="Page-1" sketch:type="MSPage">
	<g id="SELECTIONS-Copy" transform="translate(-10.000000, -799.000000)" sketch:type="MSLayerGroup">
		<g id="ICONES-Copy" transform="translate(6.000000, 620.000000)" sketch:type="MSShapeGroup">
			<path id="Shape" d="M15.1,225.5c9.8,7.8,23.5,10.2,37.9,3.8v41.5c0,25.9-30.5,38.9-37.9,41.8c-7.4-2.8-37.6-15.9-37.9-41.9v-41.5
				C-11,234.7,3.9,234.4,15.1,225.5L15.1,225.5z M15.1,218.4c0,0-7.6,9.3-21.6,9.3c-12.9,0-21.6-7.8-21.6-7.8v50.8
				C-27.7,304.2,15,318,15,318s43.1-13.8,43.1-47.3V220c0,0-8.6,7.8-21.5,7.8C22.7,227.7,15.1,218.4,15.1,218.4z M38.2,247.7
				l-18.6,18.6l17.9,17.9l-4.8,4.8l-17.9-17.9l-18.7,18.7l-5.1-5.1L9.7,266l-17.9-17.9l4.8-4.8l17.9,17.9l18.6-18.6L38.2,247.7z"/>
		</g>
	</g>
</g>
</svg>
