<?xml version="1.0" encoding="utf-8"?>
<!-- Generator: Adobe Illustrator 19.0.0, SVG Export Plug-In . SVG Version: 6.00 Build 0)  -->
<!DOCTYPE svg PUBLIC "-//W3C//DTD SVG 1.1//EN" "http://www.w3.org/Graphics/SVG/1.1/DTD/svg11.dtd">
<svg version="1.1" id="Calque_1" xmlns:sketch="http://www.bohemiancoding.com/sketch/ns"
	 xmlns="http://www.w3.org/2000/svg" xmlns:xlink="http://www.w3.org/1999/xlink" x="0px" y="0px" viewBox="-38.4 40.4 18.8 20.3"
	 style="enable-background:new -38.4 40.4 18.8 20.3;" xml:space="preserve">
<title>@</title>
<desc>Created with Sketch.</desc>
<path d="M-38,51.6c0,8.2,8,10.2,12.8,7.6l-0.2-0.6c-4.9,2.5-11.8,0.2-11.8-7.1c0-12.1,16.6-13.8,16.6-2.7c0,6.7-6.8,7.4-5.5,2.2
	l0.9-4.6h-0.6l-0.3,1h-0.5l-0.2-0.2c-1.1-1.9-3.7-0.9-4.9,0.7c-3.3,4.5,0.4,9.7,4.3,5.2h0.5l0.1,0.3c0.4,3,6.9,2,6.9-4.7
	C-20,36.9-38,38.5-38,51.6z M-27.3,52.5c-4.3,5.1-6.9-2.3-2.8-5.1c1.2-0.8,2.6-0.7,3.6,0.9L-27.3,52.5z"/>
</svg>
