<svg id="Calque_1" data-name="Calque 1" xmlns="http://www.w3.org/2000/svg" viewBox="0 0 66.97 90"><title>icon-map-empty</title><path d="M83.49,88.32C83.49,93.6,61.58,95,50,95s-33.49-1.4-33.49-6.68c0-2.8,5.85-4.79,17.39-5.94a1,1,0,0,1,.2,2c-12.81,1.27-15.58,3.47-15.58,3.95C18.51,89.91,29.63,93,50,93s31.49-3.09,31.49-4.68c0-.48-2.8-2.7-15.75-4a1,1,0,0,1,.2-2C77.58,83.51,83.49,85.51,83.49,88.32Zm-34,.78a1,1,0,0,0,.78.37h0A1,1,0,0,0,51,89.11l1.54-1.9C53.72,85.77,81,51.94,81,35.75a30.75,30.75,0,0,0-61.5,0C19.5,51.59,45,83.61,47.93,87.21ZM50.24,7A28.78,28.78,0,0,1,79,35.75c0,15.49-26.85,48.79-28,50.2l-0.77.94-0.76-.94c-1.14-1.41-28-34.79-28-50.2A28.78,28.78,0,0,1,50.24,7Z" transform="translate(-16.51 -5)"/><text x="-16.51" y="-5"/></svg>