<svg xmlns="http://www.w3.org/2000/svg" xmlns:xlink="http://www.w3.org/1999/xlink" version="1.1" x="0px" y="0px" viewBox="0 0 100 100" enable-background="new 0 0 100 100" xml:space="preserve"><path d="M50,30.234c10.309,0,18.696,8.387,18.696,18.696c0,3.595-1.022,7.085-2.956,10.093l-0.076,0.118l-0.063,0.126l-7.904,15.825  H42.992l-8.634-15.904l-0.046-0.084l-0.052-0.081c-1.934-3.008-2.956-6.499-2.956-10.093C31.304,38.621,39.691,30.234,50,30.234   M50,27.639c-11.759,0-21.291,9.532-21.291,21.291c0,4.235,1.237,8.181,3.368,11.497l0,0l9.371,17.261h17.854l8.621-17.261l0,0  c2.131-3.316,3.368-7.262,3.368-11.497C71.291,37.171,61.759,27.639,50,27.639L50,27.639z"></path><path d="M39.644,47.372h-2.595c0-6.282,5.111-11.394,11.394-11.394v2.595C43.591,38.574,39.644,42.521,39.644,47.372z"></path><rect x="41.448" y="79.187" width="17.926" height="3.279"></rect><rect x="41.448" y="83.966" width="17.926" height="3.279"></rect><rect x="41.448" y="88.744" width="17.926" height="3.279"></rect><rect x="45.161" y="93.557" width="10.5" height="3.279"></rect><path d="M51.564,16.692V3.191C51.044,3.175,50.523,3.164,50,3.164s-1.044,0.011-1.564,0.027v13.501  C48.436,16.692,51.564,16.692,51.564,16.692z"></path><path d="M74.69,27.364l9.325-9.325c-0.704-0.77-1.433-1.516-2.184-2.24l-9.353,9.353L74.69,27.364z"></path><path d="M80.791,51.406h12.554c0.041-0.82,0.062-1.646,0.062-2.476c0-0.218-0.005-0.435-0.008-0.652H80.791V51.406z"></path><path d="M19.209,48.278H6.602c-0.003,0.217-0.008,0.434-0.008,0.652c0,0.83,0.021,1.656,0.062,2.476H19.21L19.209,48.278  L19.209,48.278z"></path><path d="M27.522,25.152l-9.353-9.353c-0.751,0.724-1.48,1.47-2.184,2.24l9.325,9.325L27.522,25.152z"></path></svg>