<?xml version="1.0" encoding="utf-8"?>
<!-- Generator: Adobe Illustrator 18.0.0, SVG Export Plug-In . SVG Version: 6.00 Build 0)  -->
<!DOCTYPE svg PUBLIC "-//W3C//DTD SVG 1.1//EN" "http://www.w3.org/Graphics/SVG/1.1/DTD/svg11.dtd">
<svg version="1.1" id="Layer_1" xmlns="http://www.w3.org/2000/svg" xmlns:xlink="http://www.w3.org/1999/xlink" x="0px" y="0px"
	 viewBox="0 0 512 512" enable-background="new 0 0 512 512" xml:space="preserve">
<g>
	<polygon points="404.5,470.8 22.6,470.8 22.6,110.1 319.8,110.1 341,88.9 1.4,88.9 1.4,492 425.7,492 425.7,173.6 404.5,194.8 	"/>
	<polygon points="231.6,295.9 218.8,283 445.9,55.8 430.9,40.8 192.3,279.4 192.3,322.3 235.1,322.3 473.8,83.6 458.8,68.6 	"/>
	<path d="M505.6,25.6L489.1,9.1c-3.5-3.2-8.2-5.1-13.3-5.1c-5.1,0-9.7,1.9-13.2,5.1l-16.1,16.1l0.1,0.1l15,15l27.9,27.9l16.1-16.1
		c3.2-3.5,5-8.1,5-13.2C510.6,33.8,508.7,29.2,505.6,25.6z"/>
</g>
</svg>
