<?xml version="1.0" encoding="utf-8"?>
<!-- Generator: Adobe Illustrator 18.0.0, SVG Export Plug-In . SVG Version: 6.00 Build 0)  -->
<!DOCTYPE svg PUBLIC "-//W3C//DTD SVG 1.1//EN" "http://www.w3.org/Graphics/SVG/1.1/DTD/svg11.dtd">
<svg version="1.1" id="Calque_1" xmlns="http://www.w3.org/2000/svg" xmlns:xlink="http://www.w3.org/1999/xlink" x="0px" y="0px"
	 viewBox="0 0 100 100" enable-background="new 0 0 100 100" xml:space="preserve">
<g>
	<path d="M37.2,2.3c1.6,1.7,3.2,3.4,4.9,5.1c9.2,9.4,18.5,18.8,27.7,28.3c0.3,0.3,0.5,0.7,0.5,1.1c0,6.7,0,13.3,0,20
		c0,0.1,0,0.3,0,0.5c-1.7,0-3.3,0-5,0c0-5.2,0-10.4,0-15.8c-0.4,0-0.7,0-1.1,0c-8.6,0-17.3,0-25.9,0c-3.8,0-6.2-2.3-6.2-6.2
		c0-8.9,0-17.7,0-26.6c0-0.3,0-0.7,0-1.1c-0.4,0-0.7,0-1,0c-5.8,0-11.5,0-17.3,0c-1.1,0-1.2,0-1.2,1.1c0,28,0,55.9,0,83.9
		c0,0.9,0.3,1.1,1.1,1.1c9.5,0,19,0,28.4,0c0.4,0,0.7,0,1.2,0c0,1.8,0,3.5,0,5.2c-10.3,0-20.7,0-31,0c0,0-0.1-0.1-0.1-0.1
		C9,97.8,7.6,96,7.5,92.5c0-28,0-56,0-84c0-0.3,0-0.6,0-0.9c0.1-1.7,0.8-3.1,2.1-4.1c0.7-0.5,1.7-0.8,2.5-1.2
		C20.6,2.3,28.9,2.3,37.2,2.3z M37.2,9.8c0,0.5,0,0.7,0,1c0,8.1,0,16.1,0,24.2c0,1.2,0,1.2,1.2,1.2c7.9,0,15.7,0,23.6,0
		c0.3,0,0.5,0,1,0C54.4,27.2,45.9,18.6,37.2,9.8z"/>
	<path d="M49.6,98.7c-0.2-0.1-0.5-0.2-0.7-0.3c-1-0.6-1.6-1.6-1.3-2.7c1.3-4.6,2.5-9.3,3.9-13.9c0.2-0.6,0.6-1.1,1-1.6
		C61.8,70.8,71,61.4,80.3,52c2.2-2.2,4.5-2.2,6.6,0c2.2,2.2,4.5,4.5,6.6,6.8c0.7,0.8,1.1,1.8,1.6,2.8c0,0.3,0,0.7,0,1
		c-0.4,1.5-1.4,2.6-2.4,3.6c-8,8.1-16,16.1-23.8,24.3c-2.7,2.8-5.6,4.8-9.4,5.6c-3,0.7-6,1.8-9,2.7C50.3,98.7,49.9,98.7,49.6,98.7z
		 M53.8,92.3c2.7-0.8,5.2-1.4,7.7-2.2c0.5-0.1,1-0.5,1.3-0.8c6.5-6.6,13-13.2,19.5-19.8c0.2-0.2,0.3-0.4,0.5-0.5c-2-2-4-4-6.1-6
		c0,0-0.1,0.1-0.2,0.2c-6.6,6.7-13.2,13.5-19.9,20.2c-0.2,0.2-0.3,0.3-0.4,0.5C55.4,86.7,54.6,89.4,53.8,92.3z M80.5,59.1
		c2.1,2,4.1,4,6.1,6c1-1,2-2.1,3.1-3.2c-2.1-2-4.1-3.9-6.1-5.8C82.6,57.1,81.5,58.1,80.5,59.1z"/>
	<path d="M39,64.6c-6.6,0-13.1,0-19.7,0c-1.8,0-3-1.2-2.8-2.9c0.1-1.1,0.9-2.1,2-2.3c0.4-0.1,0.9-0.1,1.3-0.1c12.8,0,25.6,0,38.4,0
		c0.4,0,0.7,0,1.1,0.1c1.3,0.2,2.2,1.2,2.2,2.6c0,1.4-0.9,2.4-2.2,2.6c-0.3,0-0.7,0-1,0C51.8,64.6,45.4,64.6,39,64.6z"/>
	<path d="M39,47.7c6.6,0,13.1,0,19.7,0c2.1,0,3.3,1.8,2.6,3.6c-0.4,0.9-1,1.4-2,1.6c-0.3,0-0.6,0.1-0.9,0.1c-13,0-25.9,0-38.9,0
		c-1.8,0-2.9-0.9-3-2.4c-0.1-1.6,1-2.9,2.7-2.9c2.6,0,5.2,0,7.8,0C31,47.7,35,47.7,39,47.7z"/>
	<path d="M28.3,87.9c-3,0-6,0-9,0c-2.1,0-3.3-1.8-2.6-3.6c0.3-0.9,1-1.4,1.9-1.5c0.4-0.1,0.8-0.1,1.2-0.1c5.7,0,11.4,0,17.1,0
		c2.1,0,3.3,1,3.3,2.6c0,1.6-1.2,2.6-3.3,2.6C34,87.9,31.1,87.9,28.3,87.9z"/>
	<path d="M28.2,76.2c-3.1,0-6.1,0-9.2,0c-2.1,0-3.3-2.1-2.2-3.9c0.5-0.9,1.4-1.3,2.5-1.3c3.4,0,6.8,0,10.2,0c2.6,0,5.3,0,7.9,0
		c1.9,0,3.2,1.7,2.6,3.4c-0.4,1.1-1.3,1.8-2.7,1.8C34.2,76.2,31.2,76.2,28.2,76.2C28.2,76.2,28.2,76.2,28.2,76.2z"/>
</g>
</svg>
