<?xml version="1.0" encoding="utf-8"?>
<!-- Generator: Adobe Illustrator 19.1.0, SVG Export Plug-In . SVG Version: 6.00 Build 0)  -->
<!DOCTYPE svg PUBLIC "-//W3C//DTD SVG 1.1//EN" "http://www.w3.org/Graphics/SVG/1.1/DTD/svg11.dtd">
<svg version="1.1" id="Calque_1" xmlns:sketch="http://www.bohemiancoding.com/sketch/ns"
	 xmlns="http://www.w3.org/2000/svg" xmlns:xlink="http://www.w3.org/1999/xlink" x="0px" y="0px" viewBox="-41 42 17 17"
	 style="enable-background:new -41 42 17 17;" xml:space="preserve">
<title>Path</title>
<desc>Created with Sketch.</desc>
<g id="Page-1" sketch:type="MSPage">
	<g id="PARTAGE-3-_x2B_-PARTAGE-2-_x2B_-1ere-co-8" transform="translate(-175.000000, -549.000000)" sketch:type="MSLayerGroup">
		<g id="TEL-2-_x2B_-TEL-2" transform="translate(6.000000, 544.000000)" sketch:type="MSShapeGroup">
			<g id="TEL-2" transform="translate(164.000000, 0.000000)">
				<path id="Path" d="M-22.1,60.6c-0.4-0.8-1.7-2.3-2.7-2.7c-0.3-0.1-0.5,0-0.7,0c-0.6,0.2-1.2,0.3-1.3,0.3c-0.1,0-0.2-0.2-0.4-0.5
					l0,0c-0.5-0.8-0.6-1.1-0.8-1.4l-0.1-0.1c-0.1-0.1-0.1-0.1-0.1-0.2c-0.2-0.3-0.3-0.6-0.7-1.5l0,0c-0.2-0.4-0.4-0.7-0.3-0.9
					c0.1-0.2,0.2-0.4,0.7-0.7c0.6-0.5,0.8-1.2,0.7-2.1c-0.2-0.7-0.4-1.6-0.7-2.2l0-0.1c-0.2-0.5-0.7-1-1.1-1.1
					c-0.5-0.2-1.1-0.1-1.4,0.1c0,0,0,0-0.1,0c-0.8,0.1-1.4,0.4-1.6,0.9c-0.5,0.6-0.9,1.6-0.4,3.9c0.5,2,0.9,3.4,1.8,5.2
					c0.8,1.7,1.3,2.2,2.3,3.6c1.1,1.4,2.2,2.4,3.2,2.7c0.9,0.3,1.6,0.5,2.9-0.4C-21.5,62.4-21.7,61.4-22.1,60.6L-22.1,60.6z
					 M-23.2,62.7c-1.1,0.7-1.5,0.6-2.3,0.4s-1.9-1.1-2.9-2.5c-1-1.3-1.4-1.9-2.2-3.5c-0.9-1.7-1.4-3.1-1.8-5
					c-0.4-2.1-0.1-2.7,0.4-3.4c0.2-0.3,0.7-0.6,1.1-0.7c0,0,0,0,0.1,0c0.2-0.1,0.6-0.2,1.1-0.1c0.4,0.1,0.6,0.4,0.7,0.8l0,0.1
					c0.6,1.5,1.1,2.8,0.3,3.6c-0.6,0.4-0.9,0.8-1,1.1s0,0.8,0.4,1.4l0,0c0.4,0.9,0.5,1.1,0.7,1.5c0,0,0.1,0.1,0.1,0.2l0.1,0.1
					c0.2,0.3,0.3,0.6,0.9,1.5l0,0c0.3,0.4,0.4,0.6,0.7,0.7c0.4,0.1,0.8,0,1.7-0.2c0.1-0.1,0.2,0,0.4,0c0.9,0.3,2.1,1.7,2.4,2.4
					C-22.4,61.6-22.2,62-23.2,62.7L-23.2,62.7z"/>
			</g>
		</g>
	</g>
</g>
</svg>
