<?xml version="1.0" encoding="utf-8"?>
<!-- Generator: Adobe Illustrator 19.0.0, SVG Export Plug-In . SVG Version: 6.00 Build 0)  -->
<!DOCTYPE svg PUBLIC "-//W3C//DTD SVG 1.1//EN" "http://www.w3.org/Graphics/SVG/1.1/DTD/svg11.dtd">
<svg version="1.1" id="Calque_1" xmlns:sketch="http://www.bohemiancoding.com/sketch/ns"
	 xmlns="http://www.w3.org/2000/svg" xmlns:xlink="http://www.w3.org/1999/xlink" x="0px" y="0px" viewBox="-35 41 28 20"
	 style="enable-background:new -35 41 28 20;" xml:space="preserve">
<title>NOTIF_OUI</title>
<desc>Created with Sketch.</desc>
<g id="Page-1" sketch:type="MSPage">
	<g id="SELECTIONS-Copy-3" transform="translate(-335.000000, -131.000000)" sketch:type="MSLayerGroup">
		
			<g id="CDV-_x2B_-ICONES-_x2B_--_x3E_-_x2B_-_x3C_--_x2B_--_x3E__x3C_--copy-3" transform="translate(16.000000, 92.000000)" sketch:type="MSShapeGroup">
			<g id="ICONES" transform="translate(258.000000, 39.000000)">
				<g id="NOTIF_OUI" transform="translate(61.288668, 0.074039)">
					<g id="Group">
						<path id="Shape" d="M-23,45.5v10.1l-0.9-0.7c-0.8-0.6-1.6-1.3-2.4-1.9c-0.3-0.2-0.8-0.4-1.2-0.4h-1.8h-0.9h-0.9h-2.5v-3.9h2.5
							h0.9h0.9h1.8c0.4,0,0.8-0.2,1.2-0.4C-25.2,47.2-24.1,46.3-23,45.5L-23,45.5z M-22,43.4c-0.1,0.1-0.2,0.1-0.2,0.2
							c-1.6,1.3-3.1,2.5-4.7,3.8c-0.1,0.1-0.4,0.2-0.6,0.2h-1.8h-1.8h-3.5v5.9h3.5h1.8h1.8c0.2,0,0.4,0.1,0.6,0.2
							c1.1,0.9,2.2,1.8,3.3,2.7c0.5,0.4,1.1,0.8,1.6,1.3C-22,52.8-22,48.2-22,43.4L-22,43.4L-22,43.4z"/>
						<path id="Shape_1_" d="M-12.3,41.7c0.3-0.2,0.6-0.4,0.9-0.7c4.2,5.3,4.2,13.6,0,19c-0.3-0.2-0.6-0.5-0.9-0.7
							C-8.5,53.4-8.5,47.6-12.3,41.7L-12.3,41.7z"/>
						<path id="Shape_2_" d="M-16.3,44.1c0.3-0.2,0.6-0.5,0.9-0.7c3.2,3.9,3.2,10.1,0,14.2c-0.3-0.2-0.6-0.5-1-0.7
							C-13.5,52.6-13.5,48.4-16.3,44.1L-16.3,44.1z"/>
						<path id="Shape_3_" d="M-19.8,54.5c1.8-2.7,1.8-5.4,0-8.1c0.3-0.2,0.6-0.5,0.9-0.7c2,2.3,2.4,6.5,0,9.4
							C-19.2,55-19.5,54.8-19.8,54.5L-19.8,54.5z"/>
					</g>
				</g>
			</g>
		</g>
	</g>
</g>
</svg>
