<svg id="Capa_1" data-name="Capa 1" xmlns="http://www.w3.org/2000/svg" viewBox="0 0 90 90"><title>social</title><path d="M50,5A45,45,0,1,0,95,50,45,45,0,0,0,50,5Zm0,83A38,38,0,1,1,88,50,38,38,0,0,1,50,88Z" transform="translate(-5 -5)"/><path d="M27.52,72.48H36V38.73H27.52V72.48ZM61.27,38.73C54,38.85,50.49,44.12,50,44.36V38.73H41.58V72.48H50V52.79a7.17,7.17,0,0,1,8.44-5.62c3.58,0.23,5.5,5,5.62,5.63V72.48l8.4,0V49.15C72.19,45.78,70.5,38.85,61.27,38.73ZM31.74,27.48A4.22,4.22,0,1,0,36,31.7,4.22,4.22,0,0,0,31.74,27.48Z" transform="translate(-5 -5)"/></svg>