<?xml version="1.0" encoding="utf-8"?>
<!-- Generator: Adobe Illustrator 19.2.0, SVG Export Plug-In . SVG Version: 6.00 Build 0)  -->
<!DOCTYPE svg PUBLIC "-//W3C//DTD SVG 1.1//EN" "http://www.w3.org/Graphics/SVG/1.1/DTD/svg11.dtd">
<svg version="1.1" id="Calque_1" xmlns="http://www.w3.org/2000/svg" xmlns:xlink="http://www.w3.org/1999/xlink" x="0px" y="0px"
	 viewBox="0 0 100 100" style="enable-background:new 0 0 100 100;" xml:space="preserve">
<path d="M50,8.6C25.4,8.6,5.5,25.5,5.5,46.3c0,9.5,4.1,18.5,11.6,25.4l0.3,0.2L10.7,88c-0.4,0.9-0.2,1.9,0.5,2.6
	c0.5,0.5,1.1,0.7,1.8,0.7c0.2,0,0.4,0,0.6,0l25.6-8.5l0.2,0c3.8,0.8,7.3,1.1,10.7,1.1c24.5,0,44.5-16.9,44.5-37.7
	C94.4,25.5,74.4,8.6,50,8.6z M22.4,72c0.3-1,0.1-2.1-0.7-2.7c-7.4-6.1-11.4-14.3-11.4-23c0-18.1,17.8-32.9,39.7-32.9
	s39.7,14.8,39.7,32.9c0,18.1-17.8,32.9-39.7,32.9c-3.5,0-7-0.4-10.4-1.2c-0.4-0.2-0.9-0.2-1.4,0l-21.1,7L22.4,72z"/>
</svg>
