<?xml version="1.0" encoding="utf-8"?>
<!-- Generator: Adobe Illustrator 19.0.0, SVG Export Plug-In . SVG Version: 6.00 Build 0)  -->
<!DOCTYPE svg PUBLIC "-//W3C//DTD SVG 1.1//EN" "http://www.w3.org/Graphics/SVG/1.1/DTD/svg11.dtd">
<svg version="1.1" id="Calque_1" xmlns="http://www.w3.org/2000/svg" xmlns:xlink="http://www.w3.org/1999/xlink" x="0px" y="0px"
	 viewBox="0 0 100 100" style="enable-background:new 0 0 100 100;" xml:space="preserve">
<g>
	<path d="M69.1,31.6H27c-0.7,0-1.4,0-2.1,0c0,8.8,0,17.5,0,26.3c15.5,0,31,0,46.5,0c0-8.8,0-17.5,0-26.3
		C71.1,31.6,69.4,31.6,69.1,31.6z M70,56.6c-0.1,0.1-43.7,0-43.9,0c0-0.1,0-0.2,0-0.3c0-8.6,0-14.4,0-23.4c0,0-2.2,0,44,0
		C70,40.8,70,48.7,70,56.6z"/>
	<path d="M36.1,51.8c4.9-0.1,8.8-3.9,8.8-8.8c0-4.9-3.8-8.8-8.8-8.8s-8.8,3.9-8.8,8.8S31.2,51.7,36.1,51.8z M30.2,37.6
		c3.2-3.5,8.7-3.5,11.9,0c2.8,3.1,2.6,7.9,0.2,10.5c-1.3-0.4-2.6-0.9-4-1.4c-0.1-1,0.3-1.2,0.5-1.9c0.3-1.3,1.1-1.9,0.8-3.4
		c-0.1-0.9,0.1-1.3,0.1-1.8c0-3.5-4.5-4-6.2-2.3c-1.7,1.6-0.5,3.2-0.8,4.3c-0.1,0.5,0,1.6,0.5,2.3c0.1,0.1,0.5,1.4,0.5,1.5
		c0.1,0.4,0.1,0.8,0.1,1.2c0,0.1-0.1,0.2-0.2,0.2c-0.1,0-3.6,1.3-3.6,1.3C27.6,45.5,27.3,40.8,30.2,37.6z"/>
</g>
<g>
	<polygon points="60,25.5 30,25.5 30,26.8 66.9,26.8 54.3,22.1 53.9,23.2 	"/>
	<polygon points="37.9,64.1 68,64.1 68,62.8 31.1,62.8 43.7,67.5 44,66.4 	"/>
</g>
</svg>
