<?xml version="1.0" encoding="utf-8"?>
<!-- Generator: Adobe Illustrator 19.2.0, SVG Export Plug-In . SVG Version: 6.00 Build 0)  -->
<!DOCTYPE svg PUBLIC "-//W3C//DTD SVG 1.1//EN" "http://www.w3.org/Graphics/SVG/1.1/DTD/svg11.dtd">
<svg version="1.1" id="Calque_1" xmlns="http://www.w3.org/2000/svg" xmlns:xlink="http://www.w3.org/1999/xlink" x="0px" y="0px"
	 viewBox="0 0 100 100" style="enable-background:new 0 0 100 100;" xml:space="preserve">
<g>
	<path d="M52.5,30.6L52.5,30.6L52.5,30.6L52.5,30.6z M52.8,30.5c0.3-0.1,0.6-0.3,0.9-0.4V30C53.2,30.2,53,30.4,52.8,30.5z
		 M53.6,28.6C53.6,28.6,53.6,28.7,53.6,28.6L53.6,28.6L53.6,28.6z M52.2,26.9h-0.5c0.3,0,0.5,0.1,0.8,0.2
		C52.4,27,52.3,26.9,52.2,26.9z M50.9,30.6L50.9,30.6L50.9,30.6L50.9,30.6z M49.8,29.9L49.8,29.9c0.3,0.3,0.6,0.4,0.9,0.5
		C50.5,30.4,50.2,30.2,49.8,29.9z M49.8,28.7L49.8,28.7C49.8,28.7,49.8,28.6,49.8,28.7C49.8,28.6,49.8,28.6,49.8,28.7z"/>
	<path d="M86.6,26.9H60.2c16.4-7.3,26.4-7.1,26.5-7.1c1.1,0,1.9-0.8,2-1.8c0-1.1-0.8-1.9-1.8-2c-0.4,0-8.2-0.2-21.1,4.6
		c3.4-3.5,5-6.4,5-9c0-1.6-0.8-3.8-3.7-5.5c-1.3-0.7-2.6-1.1-3.9-1.1c-6,0-9.3,7.6-11.1,14.1c-2-6.6-5.5-14.1-11.3-14.1
		c-1.2,0-2.6,0.4-3.9,1.1c-3,1.6-3.7,3.8-3.7,5.5c-0.1,2.6,1.5,5.6,5,9C24.8,15.8,17.1,16,16.7,16c-1.1,0-1.9,1-1.8,2
		c0,1.1,1,1.9,2,1.8c0.1,0,10-0.2,26.5,7.1H16.9c-3.7,0-6.7,3-6.7,6.7v8.8c0,3.7,3,6.7,6.7,6.7h2.4v38.1c0,4.2,3.5,7.7,7.7,7.7h47.5
		c4.2,0,7.7-3.5,7.7-7.7V49.2h4.3c3.7,0,6.7-3,6.7-6.7v-8.8C93.3,29.9,90.2,26.9,86.6,26.9z M62.8,8.9c0.7,0,1.3,0.2,2.1,0.6
		c1.7,1,1.7,1.8,1.7,2.1c0.1,3.4-6.3,9-12.4,13.3C55.7,17.9,58.7,8.9,62.8,8.9z M53.6,28.7L53.6,28.7C53.6,28.7,53.6,28.6,53.6,28.7
		C53.6,28.6,53.6,28.6,53.6,28.7z M49.8,28.7C49.8,28.6,49.8,28.6,49.8,28.7C49.8,28.6,49.8,28.7,49.8,28.7L49.8,28.7z M36.7,11.6
		c0-0.3,0-1.2,1.7-2.1c0.8-0.4,1.4-0.6,2.1-0.6c4.2,0,7.2,9.1,8.5,16C43.1,20.7,36.6,14.9,36.7,11.6z M49.8,91.1H27
		c-2.1,0-3.8-1.7-3.8-3.8v-38h26.7L49.8,91.1L49.8,91.1z M49.8,45.4H16.9c-1.5,0-2.9-1.2-2.9-2.9v-8.8c0-1.6,1.3-2.9,2.9-2.9h32.8
		V45.4z M52.5,30.6L52.5,30.6 M78.4,87.3c0,2.1-1.7,3.8-3.8,3.8H53.6V49.2h24.8V87.3z M89.5,42.5c0,1.6-1.2,2.9-2.9,2.9H53.6V30.8
		h32.9c1.6,0,2.9,1.2,2.9,2.9V42.5z"/>
</g>
</svg>
