<?xml version="1.0" encoding="utf-8"?>
<!-- Generator: Adobe Illustrator 19.0.0, SVG Export Plug-In . SVG Version: 6.00 Build 0)  -->
<!DOCTYPE svg PUBLIC "-//W3C//DTD SVG 1.1//EN" "http://www.w3.org/Graphics/SVG/1.1/DTD/svg11.dtd">
<svg version="1.1" id="Calque_1" xmlns="http://www.w3.org/2000/svg" xmlns:xlink="http://www.w3.org/1999/xlink" x="0px" y="0px"
	 viewBox="0 0 100 100" style="enable-background:new 0 0 100 100;" xml:space="preserve">
<style type="text/css">
	.st0{fill:#0A0204;}
	.st1{fill:#020202;}
</style>
<g id="XMLID_16_">
	<g>
		<g>
			<polygon id="XMLID_15_" class="st0" points="22.4,56.5 22.4,0 17.9,0 17.9,66.4 19.6,66.4 19.6,66.8 19.9,66.4 22,66.4 60,0 
				54.8,0 			"/>
			<rect id="XMLID_14_" x="9.9" y="16.9" class="st0" width="4.5" height="49.5"/>
			<rect id="XMLID_13_" x="9.9" y="0" class="st0" width="4.5" height="11.3"/>
			<rect id="XMLID_12_" x="62.7" y="0" class="st0" width="4.5" height="11.3"/>
			<rect id="XMLID_11_" x="62.7" y="16.9" class="st0" width="4.5" height="49.5"/>
		</g>
		<g>
			<path class="st0" d="M13.3,71.9h-2.6c-0.5,0-0.8,0.4-0.8,0.8v20.9c0,0.4,0.3,0.8,0.8,0.8c0.5,0,0.8-0.4,0.8-0.8v-7.3h1.8
				c2.3,0,3.5-1.3,3.5-3.4v-7.7C16.7,73.2,15.6,71.9,13.3,71.9z M11.5,84.9V73.4h1.7c1.4,0,2,0.6,2,1.9V83c0,1.3-0.7,1.9-2,1.9
				L11.5,84.9z"/>
			<path id="XMLID_8_" class="st0" d="M29.4,72c-0.4,0-0.8,0.2-0.8,0.8c0,19.2,0.1,18-0.1,18.8c-0.1,0.6-0.4,1.1-1,1.4
				c-0.5,0.3-1.5,0.3-2.1,0c-0.9-0.4-1.1-1.5-1.1-2.5V72.8c0-0.2-0.1-0.4-0.2-0.5c-0.5-0.5-1.3-0.2-1.3,0.5
				c0,19.1-0.1,18.2,0.2,19.2c0.7,3,4,2.8,5.3,2.3c1.5-0.7,2-2.2,2-3.9V72.8C30.1,72.3,29.8,72,29.4,72z"/>
			<path id="XMLID_7_" class="st0" d="M41.2,93l-3.5,0V72.8c0-1.1-1.5-1.1-1.5,0v21.7h5.1C42.2,94.5,42.2,93,41.2,93z"/>
			<path id="XMLID_6_" class="st0" d="M52.7,83.1c-1.7-1.7-2.7-2.8-3-3.2c-0.5-0.8-0.4-1.3-0.4-4.7c0-1.3,0.7-1.9,2-1.9
				c1.4,0,2,0.6,2,2v3.2c0,1,1.5,1.1,1.5,0v-3.1c0-2.3-1.2-3.5-3.5-3.5c-2.1,0-3.5,1.2-3.5,3.4c0,3.4,0,3.7,0.1,4.4
				c0.1,0.5,0.4,1.1,1.2,2.1c0.5,0.5,2.6,2.6,2.6,2.7c1.6,1.5,1.7,2.2,1.7,3.2V91c0,0.6-0.2,1.1-0.5,1.6c-0.3,0.4-0.8,0.6-1.5,0.6
				c-1.5,0-2.2-0.8-2.2-2.2v-3.9c0-1-1.5-1.1-1.5,0V91c0,1.1,0.3,1.9,0.9,2.6c1.4,1.5,5.3,1.6,6.2-1.2c0.3-0.8,0.2-1.1,0.2-4.8
				c0-0.9-0.2-1.7-0.7-2.4C53.7,84.4,53.1,83.5,52.7,83.1z"/>
			<path id="XMLID_5_" class="st0" d="M66.5,93l-4.1,0V82.5h2.7c1,0,1-1.4,0-1.4l-2.7,0v-7.8h4.1c1,0,0.9-1.4,0-1.4h-4.8
				c-0.5,0-0.8,0.4-0.8,0.8v20.9c0,0.4,0.3,0.8,0.8,0.8h4.8c0.4,0,0.7-0.3,0.7-0.7C67.2,93.3,66.9,93,66.5,93z"/>
		</g>
	</g>
	<path id="XMLID_4_" class="st1" d="M74.3,86c-1.5,5.8-1.4,5.5-2,7.9c-0.1,0.4-0.3,0.6-0.8,0.6c-1.6,0-4.1,0-5.7,0
		c0-0.5,0-0.9,0-1.4c1.5,0,3.8,0,5.3,0c1.8-7.3,1.9-7.5,2.7-10.8c0.2-0.9,1.3-0.8,1.4,0c2.4,14.4,2.2,13.6,2.3,13.7
		c0.8-2.7,1.5-5.3,1.9-6.7c0.1-0.3,0.2-0.5,0.5-0.6c0.3-0.1,0.5,0,0.7,0.2c0.1,0.1,0-0.1,1.4,4c1.9,0,3.7,0,5.6,0c0,0.5,0,0.9,0,1.4
		c-2.1,0-4,0-6,0c-0.5,0-0.7-0.2-0.8-0.6c-0.2-0.6-0.4-1.3-0.6-1.9c-0.1,0,0.1-0.5-2.2,7.5c-0.1,0.4-0.4,0.6-0.8,0.6
		c-0.4,0-0.6-0.2-0.7-0.7C74.2,85.1,74.4,86,74.3,86z"/>
	<polyline id="XMLID_3_" class="st1" points="90.1,94.5 81.5,94.5 81.5,93 90,93 	"/>
	<path id="XMLID_2_" class="st1" d="M90.1,94.5"/>
	<path id="XMLID_1_" class="st1" d="M90,93"/>
</g>
</svg>
