<?xml version="1.0" encoding="utf-8"?>
<!-- Generator: Adobe Illustrator 19.0.0, SVG Export Plug-In . SVG Version: 6.00 Build 0)  -->
<!DOCTYPE svg PUBLIC "-//W3C//DTD SVG 1.1//EN" "http://www.w3.org/Graphics/SVG/1.1/DTD/svg11.dtd">
<svg version="1.1" id="Calque_1" xmlns="http://www.w3.org/2000/svg" xmlns:xlink="http://www.w3.org/1999/xlink" x="0px" y="0px"
	 viewBox="0 0 100 100" style="enable-background:new 0 0 100 100;" xml:space="preserve">
<g>
	<path d="M12.9,12.5c24.9,0,49.7,0,74.6,0c0,3.2,0,6.6,0,9.8c0,0.1,0,0.1,0,0.2c0,0,0,0.1,0.1,0.1c0,0,0,0,0.1,0.1
		c1.5,0.1,3.1-0.1,4.8,0.1c0,0.4,0,0.8,0,1c0,2.7,0,5.3,0,8c0,0.3,0,0.5,0,0.8c0,0.4,0.2,0.5,0.6,0.5c0.2,0,0.5,0,0.7,0
		c1.3,0,2.7,0,4,0c0,18,0,35.9,0,53.8c-31.6,0-63.4,0-95,0c0-18,0-35.9,0-53.8c1.4,0,2.8,0,4.2,0c0.9,0,0.9,0,1-1c0-0.2,0-0.4,0-0.6
		c0-2.6,0-5.2,0-7.8c0-0.3,0-0.7,0.1-1c1.7-0.1,3.3,0,4.9-0.1C12.9,19.2,12.9,15.9,12.9,12.5z M95,35.7c-0.5,0-0.9,0-1.3,0
		c-29,0-58,0-87,0c-0.3,0-0.5,0-0.8,0c-0.2,0-0.4,0.1-0.7,0.1c0,0.4,0,0.8,0,1.1c0,15.3,0,30.7,0,46c0,0.2,0,0.5,0,0.7
		c0.1,0.2,0.1,0.4,0.1,0.6c0.2,0,0.2,0.1,0.3,0.1c29.5,0,59.1,0,88.6,0c0.2,0,0.3,0,0.5,0h0.1c0,0,0,0,0.1-0.1C95,68,95,52,95,35.7z
		 M89.9,25.3c-0.5,0-0.9,0-1.3,0c-25.6,0-51.2,0-76.8,0c-0.2,0-0.5,0-0.7,0s-0.4,0.1-0.6,0.1c-0.2,1.2-0.1,6.8,0.1,7.6
		c0.4,0,0.8,0,1.1,0c25.6,0,51.2,0,76.8,0c0.2,0,0.5,0,0.7,0s0.4-0.1,0.7-0.1C89.9,30.4,89.9,27.9,89.9,25.3z M84.8,15.1
		c-0.5,0-0.9,0-1.3,0c-22.2,0-44.4,0-66.6,0c-0.3,0-0.5,0-0.8,0c-0.2,0-0.4,0.1-0.6,0.1c-0.2,1.8-0.1,6.8,0.1,7.5c0.4,0,0.8,0,1.1,0
		c22.2,0,44.4,0,66.6,0c0.3,0,0.5,0,0.8,0c0.2,0,0.4-0.1,0.6-0.1C84.8,20.1,84.8,17.7,84.8,15.1z"/>
	<path d="M25.7,74.4c-10-0.2-18-7.9-18-18s7.9-18,18-18s17.9,8,17.9,18C43.6,66.5,35.8,74.2,25.7,74.4z M30.2,64
		c2.8,1,5.4,1.9,8.1,2.8c4.9-5.3,5.3-15-0.4-21.4c-6.5-7.2-17.8-7.2-24.3-0.1c-6,6.6-5.3,16.2-0.4,21.5c0.2-0.1,0.5-0.1,0.7-0.2
		c1.7-0.7,3.5-1.2,5.2-1.9c0.5-0.2,1-0.3,1.5-0.5c0.3-0.1,0.5-0.2,0.5-0.5c0-0.8,0.1-1.6-0.2-2.4c-0.3-0.8-0.5-1.6-0.8-2.4
		c-0.1-0.2-0.1-0.5-0.3-0.7c-0.7-1-0.9-2-1-3.1c-0.1-0.6-0.1-1.1,0-1.6c0.1-0.3,0.2-0.7,0.2-1c0-0.8-0.2-1.4-0.3-2.2
		c-0.3-2.1,0.2-4,1.8-5.5c1.1-1.1,2.7-1.8,4.4-1.8c0.6,0,1.1,0,1.8,0c2.4,0.1,4.3,1,5.5,3.2c0.6,1,0.9,2.1,0.9,3.3
		c0,0.6-0.2,1.1-0.3,1.7c-0.1,0.7-0.1,1.4,0,2c0.3,1.4,0.1,2.8-0.5,4.1c-0.5,1-0.9,1.9-1.1,2.9c-0.1,0.4-0.3,0.9-0.5,1.2
		C30.2,62.2,30.1,63.1,30.2,64z"/>
</g>
</svg>
