<?xml version="1.0" encoding="utf-8"?>
<!-- Generator: Adobe Illustrator 18.0.0, SVG Export Plug-In . SVG Version: 6.00 Build 0)  -->
<!DOCTYPE svg PUBLIC "-//W3C//DTD SVG 1.1//EN" "http://www.w3.org/Graphics/SVG/1.1/DTD/svg11.dtd">
<svg version="1.1" id="Capa_1" xmlns="http://www.w3.org/2000/svg" xmlns:xlink="http://www.w3.org/1999/xlink" x="0px" y="0px"
	 viewBox="0 0 100 100" enable-background="new 0 0 100 100" xml:space="preserve">
<g>
	<g>
		<polygon points="71.7,23.6 71.8,24.3 70.8,24.6 70.6,26.1 71.9,26.1 73.6,25.9 74.4,24.9 73.5,24.5 73,23.9 72.2,22.7 71.9,20.9 
			70.5,21.2 70.1,21.9 70.1,22.5 70.7,23 		"/>
		<polygon points="70.5,24.2 70.6,23.3 69.7,22.9 68.6,23.2 67.7,24.6 67.7,25.5 68.7,25.5 		"/>
		<path d="M46.4,28.2l-0.3,0.7h-1.2v0.6h0.3c0,0,0,0.1,0,0.3l0.8-0.1l0.5-0.3l0.1-0.6l0.6-0.1l0.2-0.5l-0.6-0.1L46.4,28.2z"/>
		<polygon points="43.2,29.4 43.1,30 44,29.9 44.1,29.3 43.6,28.9 		"/>
		<path d="M97.5,49.5c0-1.4-0.1-2.8-0.2-4.1c-0.4-4.5-1.5-8.9-3.1-12.9c-0.1-0.3-0.2-0.6-0.4-0.9c-2.2-5.1-5.2-9.8-8.9-13.8
			c-0.2-0.3-0.5-0.5-0.7-0.8c-0.7-0.7-1.4-1.4-2.2-2.1C73.5,7.2,62.3,2.5,50,2.5c-12.4,0-23.7,4.8-32.2,12.6c-2,1.8-3.8,3.8-5.4,5.9
			c-6.2,8-9.9,18.1-9.9,29c0,26.2,21.3,47.5,47.5,47.5c18.4,0,34.4-10.6,42.3-25.9c1.7-3.3,3-6.8,3.9-10.5c0.2-0.9,0.4-1.9,0.6-2.8
			c0.5-2.7,0.7-5.5,0.7-8.3C97.5,49.8,97.5,49.7,97.5,49.5z M88.5,30.5l0.3-0.3c0.4,0.7,0.7,1.4,1,2.1l-0.4,0l-0.8,0.1V30.5z
			 M81.7,22.2l0-2.1c0.7,0.8,1.5,1.6,2.2,2.5L83,23.8l-3,0l-0.2-0.6L81.7,22.2z M24.4,17L24.4,17l1-0.1l0.1-0.3H27v0.7l-0.4,0.6
			h-2.1L24.4,17L24.4,17z M25.9,19.1c0,0,1-0.2,1-0.2s0,0.9,0,0.9L24.8,20l-0.4-0.5L25.9,19.1z M91.6,37.9h-3.5L86,36.4l-2.2,0.2
			v1.4H83l-0.8-0.5l-3.9-1v-2.5l-4.9,0.4L72,35.1h-1.9l-1-0.1l-2.4,1.3v2.5l-4.8,3.5l0.4,1.5h1l-0.3,1.4l-0.7,0.3l0,3.7l4.2,4.7h1.8
			l0.1-0.3h3.3l0.9-0.9h1.8l1,1l2.8,0.3l-0.4,3.7l3.1,5.4l-1.6,3.1l0.1,1.4l1.3,1.3v3.5l1.7,2.2v2.9h1.4c-8,9.8-20.2,16.1-33.8,16.1
			C26,93.6,6.4,74,6.4,50c0-6.1,1.2-11.8,3.5-17.1v-1.4l1.6-1.9c0.5-1,1.1-2,1.7-3l0.1,0.8l-1.8,2.2c-0.6,1.1-1.1,2.1-1.6,3.3v2.5
			l1.8,0.9v3.4l1.7,3l1.4,0.2l0.2-1l-1.7-2.6L13,36.8h1l0.4,2.6l2.4,3.5l-0.6,1.1l1.5,2.3l3.8,0.9v-0.6l1.5,0.2L22.9,48l1.2,0.2
			l1.8,0.5l2.6,3l3.3,0.3l0.3,2.7L30,56.3l-0.1,2.4l-0.3,1.5l3.3,4.1l0.3,1.4c0,0,1.2,0.3,1.3,0.3c0.1,0,2.7,1.9,2.7,1.9v7.5
			l0.9,0.3l-0.6,3.4l1.5,2l-0.3,3.4l2,3.5l2.6,2.3l2.6,0l0.3-0.8L44.2,88l0.1-0.8l0.3-1l0.1-1l-1.3,0l-0.7-0.8l1.1-1l0.1-0.8
			l-1.2-0.3l0.1-0.7l1.7-0.3l2.6-1.2l0.9-1.6l2.7-3.5l-0.6-2.7l0.8-1.4l2.5,0.1l1.7-1.3l0.5-5.2l1.9-2.4l0.3-1.5l-1.7-0.5L55,58
			l-3.8,0l-3-1.2L48,54.6l-1-1.8l-2.8,0l-1.6-2.5l-1.4-0.7l-0.1,0.8l-2.6,0.2l-0.9-1.3L35,48.6l-2.2,2.6l-3.5-0.6L29,46.7l-2.5-0.4
			l1-1.9l-0.3-1.1l-3.3,2.2l-2.1-0.3L21,43.6l0.5-1.7l1.2-2.1l2.7-1.3l5.1,0l0,1.6l1.8,0.9l-0.1-2.7l1.3-1.3l2.7-1.8l0.2-1.2L39,31
			l2.9-1.6l-0.3-0.2l1.9-1.8l0.7,0.2l0.3,0.4l0.7-0.8l0.2-0.1L44.7,27l-0.8-0.3v-0.8l0.4-0.4h1l0.4,0.2l0.4,0.8l0.5-0.1v-0.1l0.1,0
			l1.3-0.2l0.2-0.7l0.8,0.2v0.7L48.2,27h0l0.1,0.8l2.4,0.7c0,0,0,0,0,0l0.6,0l0-1l-1.9-0.9L49.3,26l1.6-0.5L51,24l-1.7-1l-0.1-2.6
			l-2.3,1.1h-0.8l0.2-2l-3.1-0.7l-1.3,1v3l-2.3,0.7l-0.9,1.9l-1,0.2v-2.5l-2.2-0.3l-1.1-0.7L34,20.5l3.9-2.3l1.9-0.6l0.2,1.3
			l1.1-0.1l0.1-0.6l1.1-0.2l0-0.2l-0.5-0.2L41.7,17l1.4-0.1l0.8-0.9l0-0.1l0,0l0.3-0.3l2.9-0.4l1.3,1.1L45,18.2l4.2,1l0.5-1.4h1.8
			l0.7-1.2l-1.3-0.3v-1.6l-4.1-1.8L44,13.1L42.4,14l0.1,2l-1.7-0.3l-0.3-1.1l1.6-1.4L39.3,13l-0.8,0.3l-0.4,1l1.1,0.2L39,15.5
			l-1.8,0.1l-0.3,0.7l-2.7,0.1c0,0-0.1-1.5-0.2-1.5s2.1,0,2.1,0l1.6-1.6l-0.9-0.4L35.6,14l-1.9-0.1l-1.2-1.6h-2.5l-2.6,1.9h2.4
			l0.2,0.7l-0.6,0.6l2.6,0.1l0.4,0.9l-2.9-0.1l-0.1-0.7l-1.8-0.4l-1-0.5l-2.2,0c7.2-5.2,16-8.3,25.6-8.3c11,0,21.1,4.1,28.8,10.9
			l-0.5,0.9l-2,0.8l-0.8,0.9l0.2,1.1l1,0.1l0.6,1.6l1.8-0.7l0.3,2.1h-0.5l-1.5-0.2l-1.6,0.3l-1.6,2.2l-2.3,0.4l-0.3,1.9l1,0.2
			l-0.3,1.2L70,29.7l-2.1,0.4l-0.4,1.1l0.4,2.4l1.2,0.6l2,0l1.4-0.1l0.4-1.1l2.1-2.8l1.4,0.3l1.4-1.3l0.3,1l3.4,2.3L81,33.1L79.5,33
			l0.6,0.8l0.9,0.2l1.1-0.5l0-1.3l0.5-0.2l-0.4-0.4l-2.3-1.3l-0.6-1.7h1.9l0.6,0.6l1.6,1.4l0.1,1.7l1.7,1.8l0.6-2.5L87,31l0.2,2
			l1.1,1.3l2.3,0c0.4,1.1,0.8,2.3,1.2,3.5L91.6,37.9z M28.4,24.1l1.1-0.5l1,0.2l-0.4,1.4l-1.1,0.4L28.4,24.1z M34.5,27.3v0.9h-2.6
			l-1-0.3l0.2-0.6l1.3-0.5h1.7v0.5H34.5z M35.7,28.6v0.9L35,29.9L34.2,30c0,0,0-1.3,0-1.4H35.7z M34.9,28.2v-1l0.9,0.8L34.9,28.2z
			 M35.3,30.3v0.8l-0.6,0.6h-1.4l0.2-0.9l0.7-0.1l0.1-0.3L35.3,30.3z M31.9,28.6h1.4l-1.8,2.6l-0.8-0.4l0.2-1.1L31.9,28.6z M37.8,30
			v0.8h-1.4L36,30.3v-0.8h0.1L37.8,30z M36.5,28.9l0.4-0.4l0.7,0.4L37,29.3L36.5,28.9z M92.3,40.1l0.1-0.2c0.1,0.2,0.1,0.5,0.2,0.7
			L92.3,40.1z"/>
		<path d="M9.9,31.6v1.4c0.5-1.1,1-2.2,1.6-3.3L9.9,31.6z"/>
	</g>
</g>
</svg>
