<?xml version="1.0" encoding="utf-8"?>
<!-- Generator: Adobe Illustrator 19.1.0, SVG Export Plug-In . SVG Version: 6.00 Build 0)  -->
<!DOCTYPE svg PUBLIC "-//W3C//DTD SVG 1.1//EN" "http://www.w3.org/Graphics/SVG/1.1/DTD/svg11.dtd">
<svg version="1.1" id="Calque_1" xmlns="http://www.w3.org/2000/svg" xmlns:xlink="http://www.w3.org/1999/xlink" x="0px" y="0px"
	 viewBox="45 -45 100 100" style="enable-background:new 45 -45 100 100;" xml:space="preserve">
<g>
	<path d="M84.3-2.2c7.1,0,12.9-5.8,12.9-12.9c0-7.1-5.8-12.9-12.9-12.9c-7.1,0-12.9,5.8-12.9,12.9C71.4-8,77.2-2.2,84.3-2.2z"/>
	<path d="M139.2,40.1l-27.9-27.8c0,0,0,0,0,0c3.6-5.4,5.8-11.8,5.8-18.8C117-25,102-40,83.5-40C65-40,50-25,50-6.5
		c0,10.6,5,20.1,12.7,26.2c1.9,1.5,4,2.8,6.3,3.9c4.4,2.1,9.3,3.4,14.6,3.4c5.4,0,10.4-1.3,14.9-3.5c1.3-0.6,2.5-1.4,3.7-2.1
		c0,0,0,0,0,0.1l27.9,27.8c1.1,1.1,2.9,1.1,4,0l5.1-5.1C140.3,42.9,140.3,41.2,139.2,40.1z M55.2-6.5c0-15.6,12.7-28.3,28.3-28.3
		c15.6,0,28.3,12.7,28.3,28.3c0,7.2-2.7,13.7-7.1,18.7c-2.5-4.2-5.5-8.1-9-10.8C95,1,94.2,0.7,93.3,0.7c-1,0-1.7,0.3-1.8,0.4
		c-4.2,1.6-9.3,1.7-13.7,0.1L77.3,1c-0.3-0.1-0.7-0.1-1.1-0.1c-0.8,0-1.5,0.2-2.5,0.8c-3.8,2.9-7.2,7.2-10.1,11.8
		C58.5,8.4,55.2,1.3,55.2-6.5z M96.6,18.6c-3.9,2.1-8.4,3.2-13.1,3.2c-4.4,0-8.6-1.1-12.4-2.9c-1.1-0.5-2.1-1.1-3.2-1.8
		c2.4-4.1,5.3-7.9,8.5-10.5c5.2,1.8,11,1.8,16.5-0.1c2.8,2.4,5.3,5.9,7.4,9.6C99.2,17,98,17.8,96.6,18.6z"/>
	<path d="M99.4,27.3c-1.1,0.9-2.3,1.7-3.5,2.4c0.3,1.4,0.4,2.8,0.4,3.9c0,6.1-5.9,8.8-19.8,9.1c-8,0-21.4-1.2-21.4-9.1
		c0-2.5,2.1-8.1,3.5-11.9c-1.3-1.5-2.7-3.5-3.6-5.3c-2.5,5.4-5,13.2-5,17.2c0,5.3,3.4,14.2,26.5,14.2h0h0
		c6.8-0.1,24.8-0.5,24.8-14.2c0-2-0.3-4.5-1-7.2C100.1,26.6,99.7,27,99.4,27.3z"/>
</g>
</svg>
