<?xml version="1.0" encoding="utf-8"?>
<!-- Generator: Adobe Illustrator 19.0.0, SVG Export Plug-In . SVG Version: 6.00 Build 0)  -->
<!DOCTYPE svg PUBLIC "-//W3C//DTD SVG 1.1//EN" "http://www.w3.org/Graphics/SVG/1.1/DTD/svg11.dtd">
<svg version="1.1" id="Calque_1" xmlns="http://www.w3.org/2000/svg" xmlns:xlink="http://www.w3.org/1999/xlink" x="0px" y="0px"
	 viewBox="187 -158.1 100 100" style="enable-background:new 187 -158.1 100 100;" xml:space="preserve">
<path d="M237-158.1c-27.6,0-50,22.4-50,50s22.4,50,50,50s50-22.4,50-50S264.6-158.1,237-158.1z M237-151.8
	c24.1,0,43.7,19.6,43.7,43.7c0,3.2-0.4,6.4-1,9.4c-7.3,0-14.6,0-21.9,0c-1.7-5.3-3.5-10.4-5.2-15.6c-0.2-0.5-0.4-1-0.7-1.4
	c-0.8-1-1.8-1.3-3-1c-1.3,0.3-1.9,1.2-2.3,2.5c-2,7.1-4,14.1-6,21.2c-0.7,2.4-1.4,4.9-2.1,7.3c-0.2-0.3-0.3-0.6-0.3-0.9
	c-0.5-2.9-1-5.7-1.4-8.6c-1.4-8.5-2.8-16.9-4.2-25.4c-1.3-8-2.7-16-4-24c-0.2-1.2-0.8-2.1-2-2.6c-1.8-0.7-3.5,0.3-4,2.5
	c-2.5,10.1-5,20.3-7.6,30.4c-1.3,5.2-2.6,10.3-3.9,15.6c-5.5,0-11,0-16.5,0c-0.7-3-1-6.2-1-9.5C193.3-132.2,212.9-151.8,237-151.8z
	 M237-64.4c-18.6,0-34.5-11.7-40.8-28.2c5.6,0,11.2,0,16.8,0c1.9,0,2.9-0.8,3.4-2.6c1.6-6.6,3.3-13.2,4.9-19.7
	c1.2-4.6,2.3-9.2,3.5-14c0.1,0.4,0.2,0.6,0.3,0.8c0.7,4.1,1.4,8.3,2.1,12.4c2.4,14.7,4.9,29.4,7.3,44.1c0.3,1.8,1.2,2.7,2.9,2.8
	c1.7,0.1,2.7-0.7,3.2-2.5c3-10.3,5.9-20.7,8.9-31c0.1-0.3,0.2-0.7,0.4-1.1c1,2.9,1.8,5.6,2.8,8.3c0.6,1.9,1.5,2.5,3.5,2.5
	c7.2,0,14.5,0,21.7,0C271.5-76.2,255.6-64.4,237-64.4z"/>
</svg>
