<?xml version="1.0" encoding="utf-8"?>
<!-- Generator: Adobe Illustrator 19.1.0, SVG Export Plug-In . SVG Version: 6.00 Build 0)  -->
<!DOCTYPE svg PUBLIC "-//W3C//DTD SVG 1.1//EN" "http://www.w3.org/Graphics/SVG/1.1/DTD/svg11.dtd">
<svg version="1.1" id="Calque_1" xmlns="http://www.w3.org/2000/svg" xmlns:xlink="http://www.w3.org/1999/xlink" x="0px" y="0px"
	 viewBox="0 0 100 100" style="enable-background:new 0 0 100 100;" xml:space="preserve">
<g>
	<g id="XMLID_1_">
		<path d="M22.7,49.3L22.7,49.3L8,53.6c-0.1,0-0.2,0.2-0.3,0.4c-0.1,0.1-0.1,0.4-0.1,0.6c0,0.3,0.1,0.4,0.2,0.5
			c0.1,0.1,0.2,0.1,0.4,0.2L22.7,51c0.1,0,0.2-0.1,0.3-0.2c0.1-0.1,0.2-0.5,0.1-0.7c0-0.3-0.1-0.4-0.1-0.5
			C22.9,49.3,22.8,49.3,22.7,49.3z"/>
		<path d="M23.5,58.8c-0.1-0.1-0.2-0.1-0.3-0.2l-0.1,0l-19,5.6c-0.1,0-0.2,0.2-0.3,0.4c-0.1,0.1-0.1,0.4-0.1,0.6
			c0,0.5,0.3,0.7,0.5,0.7l18.9-5.6c0.1,0,0.2-0.2,0.3-0.4c0.1-0.1,0.1-0.4,0.1-0.6l0,0C23.6,59,23.6,58.9,23.5,58.8z"/>
		<path d="M23.8,68L0,75c-0.1,0-0.2,0.2-0.3,0.4c-0.1,0.1-0.1,0.4-0.1,0.6c0,0.3,0.1,0.4,0.2,0.5c0.1,0.1,0.2,0.1,0.4,0.2l23.7-7.2
			c0.1,0,0.3-0.1,0.4-0.3c0.1-0.1,0.1-0.4,0.1-0.6c0-0.3-0.1-0.4-0.1-0.5C24,68.1,23.9,68,23.8,68L23.8,68z"/>
	</g>
	<g>
		<path d="M88.6,27.3c0.4-0.1,2.7-0.6,3-0.8c2.8,11.8,5.6,23.5,8.4,35.3c-20.8,4.9-41.6,9.7-62.4,14.7C34.8,64.8,32,53,29.3,41.2
			c0.9-0.3,1.9-0.4,2.8-0.6 M90.3,28.7c-61.9,14.6-59,13.9-59,13.9C34.2,54.8,36,62.4,38.6,74c0.1,0.1,0.1,0.3,0.1,0.4
			c0.3,0,58.7-13.7,58.8-13.8C95.3,50,92.8,39.4,90.3,28.7z"/>
		<path d="M52.2,66c-6.6,1.4-13-2.4-14.6-9.1s2.4-13,9-14.6s13,2.5,14.6,9C62.7,58.1,58.7,64.3,52.2,66z M53.4,58.4
			c2,0.3,3.8,0.4,5.7,0.6c2.4-4.2,1.1-10.6-3.5-13.9c-5.4-3.7-12.8-2-15.9,3.7c-2.9,5.3-1,11.4,3,14.2c0,0,4.3-2.8,4.4-2.9
			s0.3-0.3,0.3-0.4c-0.1-0.5-0.1-1-0.5-1.5c-0.1-0.1-1-1.8-1.1-1.9c-0.9-0.8-1.4-2.3-1.4-2.9c0.1-1.5-1.9-3.4-0.3-5.9
			c1.8-2.8,7.8-3.5,9,1.1c0.1,0.6-0.1,1.3,0.4,2.5c0.9,2,0,3,0,4.8c0,0.3,0,0.6-0.1,0.9C53.2,57.3,53.3,57.9,53.4,58.4z"/>
	</g>
</g>
</svg>
