<?xml version="1.0" encoding="utf-8"?>
<!-- Generator: Adobe Illustrator 19.2.0, SVG Export Plug-In . SVG Version: 6.00 Build 0)  -->
<!DOCTYPE svg PUBLIC "-//W3C//DTD SVG 1.1//EN" "http://www.w3.org/Graphics/SVG/1.1/DTD/svg11.dtd">
<svg version="1.1" id="Calque_1" xmlns="http://www.w3.org/2000/svg" xmlns:xlink="http://www.w3.org/1999/xlink" x="0px" y="0px"
	 viewBox="0 0 100 100" style="enable-background:new 0 0 100 100;" xml:space="preserve">
<g>
	<path d="M95.5,48.6H46.1c-2.1,0-3.9,1.7-3.9,3.9c0,2.1,1.7,3.9,3.9,3.9h49.3c2.1,0,3.9-1.7,3.9-3.9C99.3,50.3,97.6,48.6,95.5,48.6z
		"/>
	<path d="M95.5,80.4H46.1c-2.1,0-3.9,1.7-3.9,3.9s1.7,3.9,3.9,3.9h49.3c2.1,0,3.9-1.7,3.9-3.9S97.6,80.4,95.5,80.4z"/>
	<path d="M46.1,24.6h49.3c2.1,0,3.9-1.7,3.9-3.9s-1.7-3.9-3.9-3.9H46.1c-2.1,0-3.9,1.7-3.9,3.9S44,24.6,46.1,24.6z"/>
	<polygon points="12.3,22 6.4,16.7 0.3,23.6 13.4,35.3 32.8,11.2 25.7,5.4 	"/>
	<polygon points="12.3,53.1 6.4,47.8 0.3,54.8 13.4,66.4 32.8,42.4 25.7,36.6 	"/>
	<path d="M28.1,76.2l-3.9-3.9h-0.8c-0.7,0-1.3,0.2-1.8,0.7l-5.1,5.1l-5.8-5.8H9.9c-0.7,0-1.3,0.2-1.8,0.7l-3.7,3.7v0.8
		c0,0.7,0.2,1.3,0.7,1.8l5.1,5.1l-5.8,5.8v0.8c0,0.7,0.2,1.3,0.7,1.8l3.7,3.7h0.8c0.7,0,1.3-0.2,1.8-0.7l5.1-5.1l5.8,5.8h0.8
		c0.7,0,1.3-0.2,1.8-0.7l3.7-3.7v-0.8c0-0.7-0.2-1.3-0.7-1.8l-5.1-5.1l5.8-5.8v-0.8c0-0.3,0-0.7-0.3-1.3L28.1,76.2z"/>
</g>
</svg>
