<?xml version="1.0" encoding="utf-8"?>
<!-- Generator: Adobe Illustrator 18.0.0, SVG Export Plug-In . SVG Version: 6.00 Build 0)  -->
<!DOCTYPE svg PUBLIC "-//W3C//DTD SVG 1.1//EN" "http://www.w3.org/Graphics/SVG/1.1/DTD/svg11.dtd">
<svg version="1.1" id="Capa_1" xmlns="http://www.w3.org/2000/svg" xmlns:xlink="http://www.w3.org/1999/xlink" x="0px" y="0px"
	 viewBox="0 0 100 100" enable-background="new 0 0 100 100" xml:space="preserve">
<g>
	<path d="M69.2,47.3H30.8c-1.4,0-2.5,1.1-2.5,2.5s1.1,2.5,2.5,2.5h38.5c1.4,0,2.5-1.1,2.5-2.5S70.6,47.3,69.2,47.3z"/>
	<path d="M69.2,58.4H30.8c-1.4,0-2.5,1.1-2.5,2.5s1.1,2.5,2.5,2.5h38.5c1.4,0,2.5-1.1,2.5-2.5S70.6,58.4,69.2,58.4z"/>
	<path d="M48.6,69.4H30.8c-1.4,0-2.5,1.1-2.5,2.5s1.1,2.5,2.5,2.5h17.8c1.4,0,2.5-1.1,2.5-2.5S50,69.4,48.6,69.4z"/>
	<path d="M48.6,80.5H30.8c-1.4,0-2.5,1.1-2.5,2.5s1.1,2.5,2.5,2.5h17.8c1.4,0,2.5-1.1,2.5-2.5S50,80.5,48.6,80.5z"/>
	<path d="M80.2,36.3L48.3,4.4l-0.1-0.1h-4.8H25.1c-1.5,0-2.8,0.5-3.8,1.6c-1,1-1.6,2.3-1.6,3.8v80.6c0,3,2.4,5.4,5.4,5.4h20.6h8.6
		h20.6c3,0,5.4-2.3,5.4-5.4v-34v-15v-2.7v-2.3H80.2z M48.3,11.4l24.9,24.9H48.8c-0.3,0-0.4-0.2-0.4-0.5L48.3,11.4L48.3,11.4z
		 M74.9,90.8H54.3h-8.6H25.1c-0.3,0-0.4-0.1-0.4-0.4V9.7c0-0.3,0.1-0.4,0.4-0.4h18.3v26.6c0,3,2.3,5.5,5.4,5.5h26.6v49
		C75.3,90.6,75.2,90.8,74.9,90.8z"/>
</g>
</svg>
