<?xml version="1.0" encoding="utf-8"?>
<!-- Generator: Adobe Illustrator 19.0.0, SVG Export Plug-In . SVG Version: 6.00 Build 0)  -->
<!DOCTYPE svg PUBLIC "-//W3C//DTD SVG 1.1//EN" "http://www.w3.org/Graphics/SVG/1.1/DTD/svg11.dtd">
<svg version="1.1" id="Calque_1" xmlns="http://www.w3.org/2000/svg" xmlns:xlink="http://www.w3.org/1999/xlink" x="0px" y="0px"
	 viewBox="0 0 100 100" style="enable-background:new 0 0 100 100;" xml:space="preserve">
<g>
	<g id="XMLID_1_">
		<path d="M60.7,38.6C60.7,38.6,60.7,38.6,60.7,38.6l19.2-4.4c0.2-0.1,0.4,0,0.4,0.1c0.1,0.1,0.3,0.2,0.3,0.4c0.1,0.2,0,0.3-0.1,0.4
			c-0.1,0.1-0.2,0.3-0.4,0.3l-19.1,4.3c-0.2,0.1-0.3,0.1-0.4,0c-0.2-0.1-0.3-0.3-0.4-0.5c0-0.2,0-0.3,0.1-0.4
			C60.5,38.8,60.6,38.7,60.7,38.6z"/>
		<path d="M62,46.3c0.1-0.1,0.2-0.2,0.3-0.3c0,0,0.1,0,0.1,0L87,40.4c0.2-0.1,0.3,0,0.4,0.1c0.1,0.1,0.3,0.2,0.3,0.4
			c0.1,0.4-0.2,0.7-0.5,0.8l-24.6,5.6c-0.2,0.1-0.4,0-0.4-0.1c-0.1-0.1-0.3-0.2-0.3-0.4l0,0C61.8,46.6,61.9,46.4,62,46.3z"/>
		<path d="M63.8,53.4l30.9-7.1c0.2-0.1,0.4,0,0.4,0.1c0.1,0.1,0.3,0.2,0.3,0.4c0.1,0.2,0,0.3-0.1,0.4c-0.1,0.1-0.2,0.3-0.4,0.3
			l-30.8,7c-0.2,0.1-0.4,0-0.5-0.1c-0.1-0.1-0.2-0.2-0.3-0.4c0-0.2,0-0.3,0.1-0.4C63.5,53.6,63.6,53.5,63.8,53.4
			C63.7,53.5,63.7,53.4,63.8,53.4z"/>
	</g>
	<g>
		<path d="M49.4,35.3c0.3-0.1,2.1-0.5,2.4-0.6c2.2,9.3,4.4,18.6,6.6,27.9c-16.4,3.9-32.9,7.7-49.3,11.6C7,64.8,4.8,55.6,2.6,46.3
			c0.7-0.2,1.5-0.3,2.2-0.5 M50.7,36.4c-48.9,11.5-46.6,11-46.6,11C6.4,57,7.9,63,10,72.2c0.1,0.1,0.1,0.2,0.1,0.3
			c0.2,0,46.4-10.8,46.5-10.9C54.7,53.1,52.7,44.8,50.7,36.4z"/>
		<path d="M20.6,65.8c-5.2,1.1-10.3-1.9-11.5-7.1s1.9-10.3,7.1-11.5s10.3,2,11.5,7.1C28.9,59.6,25.8,64.5,20.6,65.8z M21.6,59.9
			c1.6,0.2,3,0.3,4.5,0.5c1.9-3.3,0.9-8.4-2.8-11c-4.3-2.9-10.1-1.6-12.6,2.9c-2.3,4.2-0.8,9,2.4,11.2c0,0,3.4-2.2,3.5-2.3
			c0.1-0.1,0.2-0.2,0.2-0.3c-0.1-0.4-0.1-0.8-0.4-1.2c-0.1-0.1-0.8-1.4-0.9-1.5c-0.7-0.6-1.1-1.8-1.1-2.3c0.1-1.2-1.5-2.7-0.2-4.7
			c1.4-2.2,6.2-2.8,7.1,0.9c0.1,0.5-0.1,1,0.3,2c0.7,1.6,0,2.4,0,3.8c0,0.2,0,0.5-0.1,0.7C21.4,59,21.5,59.4,21.6,59.9z"/>
	</g>
</g>
</svg>
