<?xml version="1.0" encoding="utf-8"?>
<!-- Generator: Adobe Illustrator 18.0.0, SVG Export Plug-In . SVG Version: 6.00 Build 0)  -->
<!DOCTYPE svg PUBLIC "-//W3C//DTD SVG 1.1//EN" "http://www.w3.org/Graphics/SVG/1.1/DTD/svg11.dtd">
<svg version="1.1" id="Calque_1" xmlns:sketch="http://www.bohemiancoding.com/sketch/ns"
	 xmlns="http://www.w3.org/2000/svg" xmlns:xlink="http://www.w3.org/1999/xlink" x="0px" y="0px" viewBox="0 0 100 100"
	 enable-background="new 0 0 100 100" xml:space="preserve">
<g id="miu" sketch:type="MSPage">
	<g id="circle_help_question-mark_outline_stroke">
		<g sketch:type="MSShapeGroup">
			<path id="path-1" d="M50,6.2c26.5,0,48,18.6,48,41.5S76.5,89.1,50,89.1c-7.5,0-14.6-1.5-21-4.1L5.3,95.8l5.9-23.7
				C5.4,65.2,2,56.8,2,47.6C2,24.7,23.5,6.2,50,6.2z M50,10.5c-24.1,0-43.7,16.6-43.7,37.1c0,8.8,3.6,16.8,9.6,23.2L11,89.3L28.5,80
				c6.3,3.1,13.7,4.8,21.5,4.8c24.1,0,43.7-16.6,43.7-37.1S74.1,10.5,50,10.5z M45.1,62.6h6.4v6.7h-6.4V62.6L45.1,62.6z M38.2,25.9
				c2.6-2.8,6.2-4.2,10.7-4.2c4.2,0,7.6,1.2,10.1,3.6s3.8,5.5,3.8,9.2c0,2.3-0.5,4.1-1.4,5.5c-0.9,1.4-2.8,3.5-5.6,6.2
				c-2,2-3.4,3.7-4,5c-0.6,1.4-0.9,3.4-0.9,6.1h-5.7c0-3,0.4-5.5,1.1-7.4c0.7-1.9,2.3-4,4.8-6.4l2.6-2.5c0.8-0.7,1.4-1.5,1.9-2.3
				c0.9-1.4,1.3-2.8,1.3-4.3c0-2.1-0.6-3.9-1.9-5.4c-1.2-1.5-3.3-2.3-6.2-2.3c-3.6,0-6,1.3-7.4,4c-0.8,1.5-1.2,3.6-1.3,6.4h-5.7
				C34.3,32.4,35.6,28.7,38.2,25.9C38.2,25.9,35.6,28.7,38.2,25.9L38.2,25.9z"/>
		</g>
		<g>
			<path id="path-1_1_" fill="none" d="M50,6.2c26.5,0,48,18.6,48,41.5S76.5,89.1,50,89.1c-7.5,0-14.6-1.5-21-4.1L5.3,95.8l5.9-23.7
				C5.4,65.2,2,56.8,2,47.6C2,24.7,23.5,6.2,50,6.2z M50,10.5c-24.1,0-43.7,16.6-43.7,37.1c0,8.8,3.6,16.8,9.6,23.2L11,89.3L28.5,80
				c6.3,3.1,13.7,4.8,21.5,4.8c24.1,0,43.7-16.6,43.7-37.1S74.1,10.5,50,10.5z M45.1,62.6h6.4v6.7h-6.4V62.6L45.1,62.6z M38.2,25.9
				c2.6-2.8,6.2-4.2,10.7-4.2c4.2,0,7.6,1.2,10.1,3.6s3.8,5.5,3.8,9.2c0,2.3-0.5,4.1-1.4,5.5c-0.9,1.4-2.8,3.5-5.6,6.2
				c-2,2-3.4,3.7-4,5c-0.6,1.4-0.9,3.4-0.9,6.1h-5.7c0-3,0.4-5.5,1.1-7.4c0.7-1.9,2.3-4,4.8-6.4l2.6-2.5c0.8-0.7,1.4-1.5,1.9-2.3
				c0.9-1.4,1.3-2.8,1.3-4.3c0-2.1-0.6-3.9-1.9-5.4c-1.2-1.5-3.3-2.3-6.2-2.3c-3.6,0-6,1.3-7.4,4c-0.8,1.5-1.2,3.6-1.3,6.4h-5.7
				C34.3,32.4,35.6,28.7,38.2,25.9C38.2,25.9,35.6,28.7,38.2,25.9L38.2,25.9z"/>
		</g>
	</g>
</g>
</svg>
