<?xml version="1.0" encoding="utf-8"?>
<!-- Generator: Adobe Illustrator 19.2.0, SVG Export Plug-In . SVG Version: 6.00 Build 0)  -->
<!DOCTYPE svg PUBLIC "-//W3C//DTD SVG 1.1//EN" "http://www.w3.org/Graphics/SVG/1.1/DTD/svg11.dtd">
<svg version="1.1" id="Calque_1" xmlns:sketch="http://www.bohemiancoding.com/sketch/ns"
	 xmlns="http://www.w3.org/2000/svg" xmlns:xlink="http://www.w3.org/1999/xlink" x="0px" y="0px" viewBox="0 0 100 100"
	 style="enable-background:new 0 0 100 100;" xml:space="preserve">
<title>effect-effect-filter-color</title>
<desc>Created with Sketch.</desc>
<g sketch:type="MSPage">
	<g transform="translate(-110.000000, -153.000000)" sketch:type="MSArtboardGroup">
		<path sketch:type="MSShapeGroup" d="M186.3,178.6c0.8-0.8,2.1-0.8,3,0l3,3c0.8,0.8,0.8,2.2,0,3L175.8,201l-6-6L186.3,178.6z
			 M172.8,204l-43.4,43.4c-0.8,0.8-2.1,0.9-3,0l-3-3c-0.8-0.8-0.8-2.2,0-3l43.4-43.4L172.8,204z M172.5,168.4l-1.9,6.5l-1.9-6.5
			l-6.5-1.9l6.5-1.9l1.9-6.5l1.9,6.5l6.5,1.9L172.5,168.4z M132.8,175.2l-2.4,8.2l-2.4-8.2l-8.2-2.4l8.2-2.4l2.4-8.2l2.4,8.2
			l8.2,2.4L132.8,175.2z M157.5,191.4l-3.8,13.1l-3.8-13.1l-13.1-3.8l13.1-3.8l3.8-13.1l3.8,13.1l13.1,3.8L157.5,191.4z M192,213.3
			l-2.4,8.2l-2.4-8.2l-8.2-2.4l8.2-2.4l2.4-8.2l2.4,8.2l8.2,2.4L192,213.3z"/>
	</g>
</g>
</svg>
