<?xml version="1.0" encoding="utf-8"?>
<!-- Generator: Adobe Illustrator 19.1.0, SVG Export Plug-In . SVG Version: 6.00 Build 0)  -->
<!DOCTYPE svg PUBLIC "-//W3C//DTD SVG 1.1//EN" "http://www.w3.org/Graphics/SVG/1.1/DTD/svg11.dtd">
<svg version="1.1" id="Calque_1" xmlns="http://www.w3.org/2000/svg" xmlns:xlink="http://www.w3.org/1999/xlink" x="0px" y="0px"
	 viewBox="0 0 100 100" style="enable-background:new 0 0 100 100;" xml:space="preserve">
<style type="text/css">
	.st0{fill-rule:evenodd;clip-rule:evenodd;}
</style>
<path class="st0" d="M87.4,17.8C85.6,9.4,77.4,4,69,5.8c-2.7,0.6-5.1,1.8-7,3.5L32.5,6.9l24.3,14.7c0,0.9,0.1,1.8,0.3,2.7
	c0.1,0.5,0.2,1,0.4,1.5c-7.7,5.9-17.6,13.5-20.7,15.7c-5,3.6-7.8,7.4-10.5,5.7c-2.8-1.6,1-9.9,1.5-15.8c0.5-5.9-8.3-6.3-9.2-2
	c-0.9,4.3-5,22.2-6.7,35.2c-1.7,13,1.1,16.6,6,22.9c4.9,6.2,21.5,10.4,30,3.6c8.5-6.7,18.6-14.9,21.3-16.7c2.7-1.8,3.5-4.6,0.9-7.7
	c-2.6-3.2-5.9-0.4-7.7,1.5c-1.8,1.9-3.5-0.6-1.9-2c1.6-1.4,7.4-5.5,9.9-8.7c2.4-3.2-3.6-8.2-5.9-6.5c-2.3,1.7-5.4,4.1-7,5.6
	c-1.6,1.4-3.6,0-1.8-2c1.9-2,6.4-5.7,10-8.4c3.6-2.8-3.3-7.8-5.4-6.4c-2.1,1.4-4.6,3.4-6.9,5.3c-2.4,1.9-3.6-0.7-2.1-2.1
	c0.8-0.8,6.4-5.4,11.8-9.6c3.5,2.7,8,3.9,12.7,2.9C83.8,34.4,89.2,26.1,87.4,17.8z M74.4,31.3c-2.7,0.6-5.3,0.1-7.5-1.2
	c2.4-1.9,4.5-3.4,5.5-4c3.5-2.3,3.2-5.7,2.1-7.4c-1-1.7-4.1-2.5-7.5-0.1c-0.8,0.6-2.7,2-5.2,3.9c-0.7-5.4,2.8-10.5,8.2-11.7
	c5.7-1.2,11.2,2.4,12.5,8.1C83.7,24.5,80.1,30.1,74.4,31.3z"/>
</svg>
