<?xml version="1.0" encoding="utf-8"?>
<!-- Generator: Adobe Illustrator 19.0.0, SVG Export Plug-In . SVG Version: 6.00 Build 0)  -->
<!DOCTYPE svg PUBLIC "-//W3C//DTD SVG 1.1//EN" "http://www.w3.org/Graphics/SVG/1.1/DTD/svg11.dtd">
<svg version="1.1" id="Calque_1" xmlns:sketch="http://www.bohemiancoding.com/sketch/ns"
	 xmlns="http://www.w3.org/2000/svg" xmlns:xlink="http://www.w3.org/1999/xlink" x="0px" y="0px" viewBox="-37 43 25 15"
	 style="enable-background:new -37 43 25 15;" xml:space="preserve">
<title>NOTIF_NON</title>
<desc>Created with Sketch.</desc>
<g id="Page-1" sketch:type="MSPage">
	<g id="SELECTIONS-Copy-3" transform="translate(-276.000000, -131.000000)" sketch:type="MSLayerGroup">
		
			<g id="CDV-_x2B_-ICONES-_x2B_--_x3E_-_x2B_-_x3C_--_x2B_--_x3E__x3C_--copy-3" transform="translate(16.000000, 92.000000)" sketch:type="MSShapeGroup">
			<g id="ICONES" transform="translate(258.000000, 39.000000)">
				<g id="NOTIF_NON" transform="translate(2.000000, 0.000000)">
					<g id="Group">
						<path id="Shape" d="M-25,45.5v10.1c-4.7-3.7-2.3-3-10.6-3v-3.9c7,0,6.2,0.1,7.3-0.4C-27.2,47.2-26.1,46.3-25,45.5L-25,45.5z
							 M-24,43.4c-0.1,0.1-0.2,0.1-0.2,0.2c-5.7,4.6-4.4,4-7.1,4c-0.5,0-4.8,0-5.3,0v5.9c7.8,0,7.1-0.1,7.7,0.2
							c1.1,0.9,2.2,1.8,3.3,2.7c0.5,0.4,1.1,0.8,1.6,1.3C-24,52.8-24,48.2-24,43.4C-14,43.4-34,43.4-24,43.4z"/>
						<path id="Shape_1_" d="M-12.7,47.3l-1.2-1.3l-3.4,3.4l-3.2-3.2l-1.2,1.2l3.2,3.2l-3.3,3.3l1.2,1.3l3.4-3.4L-14,55l1.2-1.2
							l-3.2-3.2L-12.7,47.3z"/>
					</g>
				</g>
			</g>
		</g>
	</g>
</g>
</svg>
