<?xml version="1.0" encoding="utf-8"?>
<!-- Generator: Adobe Illustrator 19.1.0, SVG Export Plug-In . SVG Version: 6.00 Build 0)  -->
<!DOCTYPE svg PUBLIC "-//W3C//DTD SVG 1.1//EN" "http://www.w3.org/Graphics/SVG/1.1/DTD/svg11.dtd">
<svg version="1.1" id="Calque_1" xmlns="http://www.w3.org/2000/svg" xmlns:xlink="http://www.w3.org/1999/xlink" x="0px" y="0px"
	 viewBox="0 0 100 100" style="enable-background:new 0 0 100 100;" xml:space="preserve">
<g>
	<path d="M96.8,50.5H46c-1.1,0-2,0.9-2,2s0.9,2,2,2h50.8c1.1,0,2-0.9,2-2S97.9,50.5,96.8,50.5z"/>
	<path d="M96.8,83.3H46c-1.1,0-2,0.9-2,2s0.9,2,2,2h50.8c1.1,0,2-0.9,2-2S97.9,83.3,96.8,83.3z"/>
	<path d="M46,21.8h50.8c1.1,0,2-0.9,2-2s-0.9-2-2-2H46c-1.1,0-2,0.9-2,2S44.9,21.8,46,21.8z"/>
	<polygon points="11.4,24 5.3,18.5 1.7,22.6 12.1,31.9 15.7,27.4 29.5,10.3 25.3,6.9 	"/>
	<polygon points="11.4,56.1 5.3,50.6 1.7,54.7 12.1,64 15.7,59.5 29.5,42.4 25.3,39 	"/>
	<path d="M25.8,78.1l-3.2-3.2c-0.1,0-0.3,0-0.4,0.1l-6.7,6.7l-6.8-6.8c-0.1,0-0.3,0-0.4,0.1l-3.2,3.2c0,0.1,0,0.3,0.1,0.4l6.7,6.7
		l-6.8,6.8c0,0.1,0,0.3,0.1,0.4l3.2,3.2c0.1,0,0.3,0,0.4-0.1l6.7-6.7l6.8,6.8c0.1,0,0.3,0,0.4-0.1l3.2-3.2c0-0.1,0-0.3-0.1-0.4
		l-6.7-6.7l6.8-6.8C25.9,78.4,25.9,78.3,25.8,78.1z"/>
</g>
</svg>
