<?xml version="1.0" encoding="utf-8"?>
<!-- Generator: Adobe Illustrator 19.1.0, SVG Export Plug-In . SVG Version: 6.00 Build 0)  -->
<!DOCTYPE svg PUBLIC "-//W3C//DTD SVG 1.1//EN" "http://www.w3.org/Graphics/SVG/1.1/DTD/svg11.dtd">
<svg version="1.1" id="Calque_1" xmlns:sketch="http://www.bohemiancoding.com/sketch/ns"
	 xmlns="http://www.w3.org/2000/svg" xmlns:xlink="http://www.w3.org/1999/xlink" x="0px" y="0px" viewBox="0 0 100 100"
	 style="enable-background:new 0 0 100 100;" xml:space="preserve">
<title>Shape</title>
<desc>Created with Sketch.</desc>
<path d="M81.7,4.1c-1.6-1.6-3.5-2.3-5.7-2.3c-1.7,0-3.1,0.9-4.7,1.9L59.5,15.4l-48,48.7c-0.5,1-1.1,1.7-1.6,2.2L1.7,94.2
	c-0.1,0.6-0.3,1.1-0.5,1.4c0,0,0,0.1-0.1,0.1c0.1,1.2,1.5,2.5,3.4,2.5H6l28.6-8.3h0.3c0.3,0,0.4,0,0.9-0.6l60.8-60.7
	c1.3-1.3,1.8-2.5,2.3-4.8c0-1.8-0.5-3.1-1.8-4.3L81.7,4.1z M32.3,84.3l-21.9,5.8L17,68.2L62.3,23l16.1,15.4L32.3,84.3z M82.6,33.5
	L66.5,18.1L76.6,8L92,23.4L82.6,33.5z"/>
</svg>
