<?xml version="1.0" encoding="utf-8"?>
<!-- Generator: Adobe Illustrator 18.0.0, SVG Export Plug-In . SVG Version: 6.00 Build 0)  -->
<!DOCTYPE svg PUBLIC "-//W3C//DTD SVG 1.1//EN" "http://www.w3.org/Graphics/SVG/1.1/DTD/svg11.dtd">
<svg version="1.1" id="Calque_1" xmlns="http://www.w3.org/2000/svg" xmlns:xlink="http://www.w3.org/1999/xlink" x="0px" y="0px"
	 viewBox="0 0 100 100" enable-background="new 0 0 100 100" xml:space="preserve">
<g>
	<g>
		<path d="M54.4,35.2c2.9-2.4,6.3-3.8,9.9-4.6c4.3-1,8.9-1,13.2-1c0,4.1,0,8.2,0,12.3c7.2-6,14.2-12,21.4-17.8
			c-7-6.7-14.2-13-21.4-19.5c0,3.6,0,7.2,0,10.6c-1.7,0-3.1,0.2-4.8,0.5c-6.5,1-11.8,4.1-15.9,8.9c-4.6,5-7.2,11.1-8.9,17.8
			c0,0.2,0,0.2,0,0.5C49.6,40,51.7,37.3,54.4,35.2z"/>
		<g>
			<path d="M72.4,34.2c-2.6,0-5,0.2-7.5,0.7c-1.6,0.4-3,0.8-4.3,1.4h11.8V34.2z"/>
			<path d="M77.5,41.9c0.3-0.2,0.6-0.5,0.9-0.7h-0.9C77.5,41.4,77.5,41.7,77.5,41.9z"/>
			<path d="M77.5,15.2c-1.7,0-3.1,0.2-4.8,0.5c-6.5,1-11.8,4.1-15.9,8.9c-3.2,3.5-5.4,7.5-7,11.8h3.3c0.4-0.4,0.9-0.8,1.3-1.2
				c2.9-2.4,6.3-3.8,9.9-4.6c4.3-1,8.9-1,13.2-1c0,2.2,0,4.5,0,6.7h6.6c4.9-4.1,9.8-8.3,14.8-12.3c-7-6.7-14.2-13-21.4-19.5
				C77.5,8.2,77.5,11.8,77.5,15.2z"/>
			<path d="M47.9,42.4c0,0.2,0,0.2,0,0.5c0.3-0.6,0.7-1.1,1.1-1.7h-0.7C48.1,41.6,48,42,47.9,42.4z"/>
			<path d="M48.2,41.2H49c1.2-1.7,2.5-3.4,4.1-4.8h-3.3C49.2,37.9,48.7,39.5,48.2,41.2z"/>
			<path d="M72.4,36.4H60.6c-1.3,0.6-2.5,1.3-3.6,2.2c-0.9,0.8-1.8,1.7-2.6,2.6h18V36.4z"/>
			<path d="M90.6,41.2v45.7H6.4V41.2H43c0-0.1,0-0.2,0-0.2c0.4-1.6,0.8-3.1,1.3-4.6H1.6v55.3h93.8V36.4h-4.3l-5.8,4.8H90.6z"/>
			<path d="M77.5,41.2h0.9c1.9-1.6,3.8-3.2,5.7-4.8h-6.6C77.5,38,77.5,39.6,77.5,41.2z"/>
		</g>
	</g>
	<path d="M47.5,47.2c0.7,0,1.7,0,2.4,0c0.5,0.2,1,0,1.4,0.2c3.8,0.7,7.2,2.4,9.9,5.3c3.6,3.8,5,8.7,4.3,13.9
		c-0.5,3.8-2.4,7.2-5.3,9.9s-6.5,4.3-10.6,4.3c-3.1,0.2-6-0.5-8.7-1.9c-4.6-2.6-7.7-6.5-8.7-11.5c-0.5-0.7-0.5-1.4-0.5-2.2
		s0-1.7,0-2.4c0,0,0,0,0-0.2c0.2-2.4,0.7-4.6,1.9-6.5c2.6-4.6,6.5-7.5,11.5-8.7C46.1,47.4,46.8,47.2,47.5,47.2z M33.1,64
		c0,0.2,0,0.5,0,0.7c0.2,3.4,1.2,6.5,3.4,9.1c0.2,0.2,0.2,0.2,0.5,0c2.2-1,4.6-1.7,7-2.4c0.2,0,0.2-0.2,0.2-0.5c0-1,0-1.7-0.2-2.6
		c-0.2-0.7-0.5-1.4-0.7-2.2c0-0.2,0-0.5-0.2-0.5c-1-1.4-1.4-3.1-1-4.8c0-0.2,0-0.2,0-0.5c0-0.7,0-1.4-0.2-2.2
		c-0.5-2.6,1-5.8,4.1-6.7c1.4-0.5,2.9-0.5,4.3,0c3.1,0.7,5.3,3.4,4.8,6.7c-0.2,1.2-0.5,2.4,0,3.4c0,0,0,0.2,0,0.5
		c0,1.4-0.2,2.6-1.2,3.8l-0.2,0.2c-0.2,1-0.5,1.7-0.7,2.4c-0.2,0.7-0.5,1.4-0.5,2.2c0,0.2,0,0.5,0.5,0.5c2.4,0.7,4.6,1.4,7,2.4
		c0.2,0,0.5,0,0.5-0.2c2.9-3.8,4.1-8.2,2.9-13c-1.7-8.2-10.1-13.5-18.3-11.8C38.4,50.6,33.4,56.6,33.1,64z"/>
</g>
</svg>
