<?xml version="1.0" encoding="utf-8"?>
<!-- Generator: Adobe Illustrator 19.0.0, SVG Export Plug-In . SVG Version: 6.00 Build 0)  -->
<!DOCTYPE svg PUBLIC "-//W3C//DTD SVG 1.1//EN" "http://www.w3.org/Graphics/SVG/1.1/DTD/svg11.dtd">
<svg version="1.1" id="Layer_1" xmlns="http://www.w3.org/2000/svg" xmlns:xlink="http://www.w3.org/1999/xlink" x="0px" y="0px"
	 viewBox="0 0 100 100" style="enable-background:new 0 0 100 100;" xml:space="preserve">
<g>
	<path d="M46.9,82.5c3.5-3.2,9.6-8.5,14.4-8.4c19.5,0.4,36.6-15.3,36.6-35.9c0-31.8-38.7-48.1-61.3-25.4
		C29.7,19.6,25.8,29.1,26,38.9c0.1,4.8-5.3,10.9-8.4,14.4c-2.2,2.4,1.4,5.7,3.6,3.3c6.6-7.2,9.3-12,9.7-17.5
		c-0.6-28.2,33.3-42.5,53-22.8c19.7,19.7,5.6,53.7-22.8,53.1c-5.5,0.4-10.2,3.1-17.5,9.7C41.2,81.2,44.5,84.7,46.9,82.5z"/>
	<path d="M3.6,76.9c-1,0-2.4,1.5-1.1,2.8c17.9,17.9,17.7,18.7,19.3,17c0.7-0.7,0.8-1.5,0-2.2C3.9,76.6,4.6,76.9,3.6,76.9z"/>
	<path d="M11.8,96.7l-9.3-9.3C2.1,92.3,6.9,97.1,11.8,96.7z"/>
	<path d="M29.1,93.6c0.8,0,1.6-0.9,1.6-1.7c0-0.9,0.6,0.1-22.3-22.9c-1.5-1.5-3.8,0.7-2.2,2.2C29,94.2,28.1,93.7,29.1,93.6z"/>
	<path d="M14.4,63.1c-1.5-1.5-3.8,0.7-2.2,2.2l21.7,21.7c1.5,1.5,3.8-0.7,2.2-2.2L14.4,63.1z"/>
</g>
</svg>
