<svg id="Capa_1" data-name="Capa 1" xmlns="http://www.w3.org/2000/svg" viewBox="0 0 90 90"><title>icon-mail2</title><path d="M50,5A45,45,0,1,0,95,50,45,45,0,0,0,50,5Zm0,83A38,38,0,1,1,88,50,38,38,0,0,1,50,88Z" transform="translate(-5 -5)"/><path d="M60.69,70.43a27.15,27.15,0,0,1-12.11,2.38c-11,0-20.65-7.87-20.65-20.85,0-13.5,9.79-25.21,24.75-25.21,11.65,0,20,8,20,19.12,0,9.66-5.43,15.75-12.57,15.75-3.11,0-5.36-1.59-5.69-5.1H54.27a9.71,9.71,0,0,1-8.54,5.1c-4.3,0-7.41-3.18-7.41-8.6A15.11,15.11,0,0,1,53.81,37.61a18.57,18.57,0,0,1,7.87,1.65l-2,12.24c-0.66,3.9-.2,5.69,1.65,5.76,2.85,0.07,6.42-3.57,6.42-11.18,0-8.6-5.56-15.29-15.82-15.29S33,38.73,33,51.37C33,62.42,40,68.71,49.9,68.71a21.52,21.52,0,0,0,9.6-2.12ZM54.8,43.1a8.14,8.14,0,0,0-2.05-.26c-4.37,0-7.81,4.3-7.81,9.4,0,2.52,1.12,4.1,3.31,4.1,2.45,0,5-3.11,5.62-6.95Z" transform="translate(-5 -5)"/></svg>