<svg id="Calque_1" data-name="Calque 1" xmlns="http://www.w3.org/2000/svg" viewBox="0 0 89.1 82.7"><title>icon-message-suprised</title><path d="M50,8.6C25.4,8.6,5.5,25.5,5.5,46.3c0,9.5,4.1,18.5,11.6,25.4l0.3,0.2L10.7,88a2.3,2.3,0,0,0,.5,2.6,2.41,2.41,0,0,0,1.8.7h0.6l25.6-8.5h0.2a51.17,51.17,0,0,0,10.7,1.1c24.5,0,44.5-16.9,44.5-37.7C94.4,25.5,74.4,8.6,50,8.6ZM22.4,72a2.44,2.44,0,0,0-.7-2.7c-7.4-6.1-11.4-14.3-11.4-23,0-18.1,17.8-32.9,39.7-32.9S89.7,28.2,89.7,46.3,71.9,79.2,50,79.2A45.47,45.47,0,0,1,39.6,78a1.7,1.7,0,0,0-1.4,0L17.1,85Z" transform="translate(-5.5 -8.6)"/><ellipse cx="24.94" cy="30.74" rx="3.76" ry="5.64"/><ellipse cx="62.57" cy="30.74" rx="3.76" ry="5.64"/><circle cx="43.76" cy="47.68" r="7.53"/></svg>