<?xml version="1.0" encoding="utf-8"?>
<!-- Generator: Adobe Illustrator 19.1.0, SVG Export Plug-In . SVG Version: 6.00 Build 0)  -->
<!DOCTYPE svg PUBLIC "-//W3C//DTD SVG 1.1//EN" "http://www.w3.org/Graphics/SVG/1.1/DTD/svg11.dtd">
<svg version="1.1" id="Calque_1" xmlns:sketch="http://www.bohemiancoding.com/sketch/ns"
	 xmlns="http://www.w3.org/2000/svg" xmlns:xlink="http://www.w3.org/1999/xlink" x="0px" y="0px" viewBox="-33 39 100 100"
	 style="enable-background:new -33 39 100 100;" xml:space="preserve">
<title>-&gt;</title>
<desc>Created with Sketch.</desc>
<g id="Page-1" sketch:type="MSPage">
	<g id="ACTU" transform="translate(-68.000000, -122.000000)" sketch:type="MSLayerGroup">
		<g id="NAVBAR-2-Copy" transform="translate(21.000000, 77.000000)">
			<g id="bar-positive-_x2B_-Shape-_x2B_-----_x2B_-----2">
				<g id="_x2D__x3E_-_x2B_-_x3C_--_x2B_--_x3E__x3C_--copy" transform="translate(47.000000, 45.000000)">
					<g id="_x2D__x3E_">
						<g id="Rectangle-444-Copy">
							<path d="M66.9,106.4h-99.9V48.2h99.9V106.4z M-30,103.5h94V51.1h-94V103.5z"/>
						</g>
						<g id="Imported-Layers-_x2B_-12-copy" transform="translate(6.000000, 1.000000)">
							<g id="Imported-Layers">
								<path sketch:type="MSShapeGroup" d="M-19.8,118.9l23.5-8.6l1,2.7l-8.5,3.1h48.5v2.8H-19.8"/>
							</g>
						</g>
					</g>
				</g>
			</g>
		</g>
	</g>
	<g>
		<path d="M-6.9,55.7c-8.7,0-15.7,7-15.7,15.6c0,8.1,6.2,14.8,14.1,15.6c0.1,0,0.2,0,0.4,0c0.1,0,0.1,0,0.2,0c0.1,0,0.1,0,0.2,0
			c0.1,0,0.1,0,0.3,0c0,0,0.1,0,0.1,0c0.1,0,0.3,0,0.4,0c1.1,0,2.1-0.1,3.1-0.3c0,0,0.1,0,0.1,0c0,0,0.1,0,0.1,0c0.1,0,0.1,0,0.1,0
			C0,85.8,3,83.9,5.2,81.2c2.2-2.7,3.5-6.1,3.5-9.9C8.7,62.7,1.7,55.7-6.9,55.7z M4.3,80.2c-1.3-0.5-3-1-4.5-1.6
			c-0.1,0-0.2-0.1-0.3-0.1c-0.3-0.1-0.6-0.2-0.9-0.3c-0.1,0-0.2-0.1-0.3-0.1C-1.8,78-2,78-2.2,77.9c-0.1-0.1-0.3-0.1-0.4-0.1
			c-0.1,0-0.1,0-0.2-0.1c0,0-0.1,0-0.1,0c-0.1-0.1-0.2-0.1-0.3-0.2c0-0.1-0.1-0.1-0.1-0.3c0,0,0-0.1,0-0.1c0-0.3,0-0.6,0.1-0.9
			c0.1-0.3,0.2-0.6,0.3-1c0.1-0.4,0.3-0.8,0.4-1.1c0.1-0.2,0.1-0.4,0.1-0.6c0-0.1,0.1-0.2,0.1-0.3C-2.1,73.1-2,73-2,73
			c0-0.1,0.1-0.2,0.1-0.3c0.2-0.3,0.4-0.7,0.6-1c0.1-0.2,0.1-0.4,0.2-0.6c0-0.1,0-0.2,0.1-0.3c0-0.1,0.1-0.3,0.1-0.4
			c0-0.1,0-0.1,0-0.2c0-0.3,0.1-0.6,0.1-0.9c0,0,0-0.1,0-0.1c0-0.1,0-0.2,0-0.3c-0.1-0.3-0.2-0.6-0.2-1c0-0.1,0-0.3,0-0.4
			c0-0.3,0-0.7,0.1-1c0-0.3,0.1-0.5,0.1-0.8c0.1-0.4,0.1-0.7,0.1-1.1c0-0.2,0-0.5-0.1-0.8c-0.1-0.2-0.1-0.5-0.2-0.7
			c-0.1-0.4-0.3-0.8-0.5-1.1c-0.1-0.1-0.2-0.3-0.3-0.4c-0.1-0.1-0.2-0.3-0.3-0.4c-0.1-0.1-0.2-0.2-0.4-0.4c-0.2-0.2-0.4-0.3-0.6-0.4
			c-0.2-0.1-0.3-0.2-0.4-0.3c-0.5-0.2-1-0.4-1.5-0.5c-0.1,0-0.2,0-0.2,0c0,0-0.1,0-0.1,0c-0.1,0-0.1-0.1-0.1-0.1c0,0-0.1,0-0.1,0
			c0,0-0.1,0-0.1,0c0,0-0.1,0-0.1,0c0,0-0.1,0-0.1,0c-0.1,0-0.1,0-0.1,0c0,0-0.1,0-0.1,0c0,0-0.1,0-0.1,0c0,0-0.1,0-0.1,0
			s-0.1,0-0.1,0c0,0-0.1,0-0.1,0c0,0-0.1,0-0.1,0h-0.1c0,0-0.1,0-0.1,0c-0.1,0-0.1,0-0.1,0c0,0-0.1,0-0.1,0c-0.1,0-0.1,0-0.2,0
			c0,0-0.1,0-0.1,0s-0.1,0-0.1,0c0,0-0.1,0-0.1,0s-0.1,0-0.1,0c0,0-0.1,0-0.1,0c-0.1,0-0.1,0-0.2,0c0,0-0.1,0-0.1,0.1
			c-0.1,0-0.1,0-0.1,0c0,0-0.1,0-0.1,0c-0.1,0-0.1,0-0.2,0c0,0-0.1,0-0.1,0c-0.1,0-0.2,0-0.3,0.1c-2,0.4-3.2,1.6-3.7,3
			c-0.1,0.1-0.1,0.1-0.1,0.2c-0.1,0.2-0.1,0.3-0.1,0.4c-0.1,0.3-0.1,0.6-0.1,0.9c0,0.1,0,0.3,0,0.5c0,0.3,0,0.6,0.1,0.9
			c0,0.1,0,0.2,0,0.3c0,0.1,0,0.3,0.1,0.5c0,0.2,0,0.4,0,0.5c0,0.1,0,0.3,0,0.5c0,0.1,0,0.1,0,0.3c0,0.1,0,0.2,0,0.3
			c0,0,0,0.1,0,0.1c-0.1,0.3-0.1,0.6-0.1,0.9c0,0.1,0,0.3,0,0.4c0,0.1,0,0.3,0,0.4v0c0,0.2,0.1,0.4,0.1,0.7c0,0,0,0.1,0,0.1
			c0,0.1,0.1,0.2,0.1,0.3c0.1,0.1,0.1,0.2,0.1,0.2c0,0.1,0.1,0.2,0.1,0.2c0.1,0.4,0.3,0.7,0.5,1.1c0,0.1,0.1,0.1,0.1,0.2
			c0,0.1,0.1,0.2,0.1,0.3c0,0.1,0,0.1,0.1,0.2c0.1,0.4,0.2,0.7,0.3,1.1c0,0.1,0,0.1,0.1,0.2c0,0.1,0.1,0.2,0.1,0.4
			c0.1,0.1,0.1,0.3,0.2,0.4c0,0.1,0.1,0.3,0.1,0.4c0.1,0.5,0.1,1,0.1,1.5c0,0.1,0,0.1,0,0.1c0,0,0,0.1-0.1,0.1c0,0-0.1,0.1-0.2,0.1
			c0,0,0,0-0.1,0c-0.2,0.1-0.5,0.2-0.9,0.3c-0.8,0.2-1.6,0.6-2.5,0.9c-0.2,0.1-0.4,0.1-0.6,0.2c-0.2,0.1-0.4,0.1-0.5,0.2
			c-0.4,0.1-0.9,0.3-1.3,0.5c-0.3,0.1-0.5,0.2-0.7,0.3c-0.1,0-0.2,0.1-0.2,0.1c-0.1,0-0.2,0.1-0.3,0.1c-2-2.5-3.1-5.6-3.1-8.9
			c-0.1-3.8,1.4-7.4,4.1-10.1c2.7-2.7,6.3-4.2,10.1-4.2c3.8,0,7.4,1.5,10.1,4.2s4.2,6.3,4.2,10.1C7.4,74.6,6.3,77.7,4.3,80.2z"/>
	</g>
</g>
</svg>
