<?xml version="1.0" encoding="utf-8"?>
<!-- Generator: Adobe Illustrator 19.0.0, SVG Export Plug-In . SVG Version: 6.00 Build 0)  -->
<!DOCTYPE svg PUBLIC "-//W3C//DTD SVG 1.1//EN" "http://www.w3.org/Graphics/SVG/1.1/DTD/svg11.dtd">
<svg version="1.1" id="Calque_1" xmlns:sketch="http://www.bohemiancoding.com/sketch/ns"
	 xmlns="http://www.w3.org/2000/svg" xmlns:xlink="http://www.w3.org/1999/xlink" x="0px" y="0px" viewBox="-39 43 100 100"
	 style="enable-background:new -39 43 100 100;" xml:space="preserve">
<style type="text/css">
	.st0{display:none;}
	.st1{display:inline;}
</style>
<title>Fill 4</title>
<desc>Created with Sketch.</desc>
<g id="Page-1" sketch:type="MSPage" class="st0">
	
		<g id="PARTAGE-3-_x2B_-PARTAGE-2-_x2B_-1ere-co-8" transform="translate(-12.000000, -474.000000)" sketch:type="MSLayerGroup" class="st1">
		<g id="JOB-_x2F_-ETUDE-_x2B_-NOM-7" transform="translate(6.000000, 469.000000)" sketch:type="MSShapeGroup">
			<g id="Imported-Layers" transform="translate(6.000000, 5.000000)">
				<path id="Fill-4" d="M59.2,94.4H14.7v1.4H7.8v-1.4h-45v33.5c0,0.9,0.9,1.8,1.8,1.8h92.8c0.9,0,1.8-0.5,1.8-1.4V94.4 M56.5,97.1
					V127h-90.9V97.1H5v1.4H17v-1.4H56.5 M20.6,59c4.6,0,8.3,2.8,8.3,6.9v8.3h27.6v14.7H17v-1.4H5v1.4h-39.5V74.2h27.6v-8.3
					c0-4.1,3.7-6.9,8.3-6.9H20.6L20.6,59z M-5.1,74.2h32.6v-7.8c0-3.2-3.2-6.4-6.4-6.4H1.4c-3.7,0-6.4,2.8-6.4,6.4V74.2L-5.1,74.2z
					 M20.6,56.3H1.4c-6.4,0-10.6,4.1-11,9.6v6h-25.7c-0.9,0-1.8,0.5-1.8,1.4v18.4H7.3v-1.8h6.9v1.4h45V72.8c0-0.9-0.9-1.4-1.8-1.4
					H31.7v-5.5C31.7,60.4,27.1,56.3,20.6,56.3L20.6,56.3z M-2.8,71.9v-5.5c0-1.8,1.8-3.7,4.1-3.7h19.3c2.3,0,4.1,1.8,4.1,3.7l0,0
					v5.5H-2.8L-2.8,71.9z"/>
			</g>
		</g>
	</g>
</g>
<g id="Page-1_2_" sketch:type="MSPage">
	<g id="SELECTIONS_1_" transform="translate(-12.000000, -430.000000)" sketch:type="MSLayerGroup">
		<g id="JOB-_x2F_-ETUDE-_x2B_-NOM-7_2_" transform="translate(6.000000, 425.000000)" sketch:type="MSShapeGroup">
			<g id="Imported-Layers_2_" transform="translate(6.000000, 5.000000)">
				<path id="Fill-4_2_" d="M60.2,94.6H14.5v1.6h-7v-1.6h-45.6v34.3c0,0.9,0.7,1.6,1.7,1.6h94.9c1,0,1.7-0.7,1.7-1.6V94.6
					 M57.5,97.3v30.4h-93V97.3H4.8v1.6h12.4v-1.6H57.5 M20.8,58.3c4.9,0,8.4,2.9,8.6,7v8.6h28.1v14.8H17.2v-1.6H4.8v1.6h-40.3V73.9
					h28.1v-8.6c0.2-4.1,3.7-7,8.6-7H20.8L20.8,58.3z M-5.7,73.9h33.4v-8.3c0-3.4-3.2-6.5-6.8-6.5H1.1c-3.6,0-6.8,3-6.8,6.5V73.9
					L-5.7,73.9z M20.8,55.6H1.2c-6.5,0-11,4.1-11.2,9.6v6h-26.4c-1,0-1.7,0.7-1.7,1.6v18.7H7.5v-1.6h7v1.6h45.6V72.7
					c0-0.9-0.7-1.6-1.7-1.6H32.1v-6C31.8,59.7,27.3,55.6,20.8,55.6L20.8,55.6z M-3,71.2v-5.6c0-1.9,1.9-3.7,4.1-3.7h19.8
					c2.2,0,4.1,1.8,4.1,3.7v0.2v5.4H-3L-3,71.2z"/>
			</g>
		</g>
	</g>
</g>
</svg>
