<?xml version="1.0" encoding="utf-8"?>
<!-- Generator: Adobe Illustrator 19.1.0, SVG Export Plug-In . SVG Version: 6.00 Build 0)  -->
<!DOCTYPE svg PUBLIC "-//W3C//DTD SVG 1.1//EN" "http://www.w3.org/Graphics/SVG/1.1/DTD/svg11.dtd">
<svg version="1.1" id="Layer_1" xmlns="http://www.w3.org/2000/svg" xmlns:xlink="http://www.w3.org/1999/xlink" x="0px" y="0px"
	 viewBox="206 -206 512 512" style="enable-background:new 206 -206 512 512;" xml:space="preserve">
<style type="text/css">
	.st0{fill:#50E3C2;}
</style>
<g>
	<path class="st0" d="M561.3-9h-37.9c-19.7-22.1-25.9-29.5-33.5-29.5h-54.4c-7.6,0-13.6,7.4-33.5,29.5h-8.2v-9.8h-20.9V-9h-8.3
		C353.8-9,344-0.9,344,9.9V118c0,10.8,9.8,20.5,20.6,20.5h196.7c10.8,0,18.7-9.7,18.7-20.5V9.9C580-0.9,572.1-9,561.3-9z M570.2,118
		c0,5.7-3.8,10.6-8.9,10.6H364.6c-5.3,0-10.8-5.3-10.8-10.6V9.9c0-5,5-9,10.8-9h37.3h4.4l3-2c2.5-2.8,4.7-6.1,6.8-8.5
		c6.9-7.8,12-13.3,15.5-16.5c2.9-2.6,3.8-2.5,3.8-2.5h54.4c0,0,1-0.1,4.1,2.8c3.7,3.4,9,10.1,16.3,18.3c1.8,2,3.7,4.2,5.7,6.5l2.9,2
		h4.4h37.9c5.4,0,8.9,3.7,8.9,9V118L570.2,118z"/>
	<path class="st0" d="M462,9.1c-28.9,0-52.5,23.6-52.5,52.5s23.6,52.5,52.5,52.5s52.5-23.6,52.5-52.5S490.9,9.1,462,9.1z M462,104.4
		c-23.6,0-42.7-19.1-42.7-42.7S438.4,19,462,19s42.7,19.1,42.7,42.7S485.6,104.4,462,104.4z"/>
	<rect x="521" y="10.7" class="st0" width="10.4" height="10.4"/>
	<circle class="st0" cx="462" cy="61.7" r="19.7"/>
</g>
</svg>
