<?xml version="1.0" encoding="utf-8"?>
<!-- Generator: Adobe Illustrator 19.0.0, SVG Export Plug-In . SVG Version: 6.00 Build 0)  -->
<!DOCTYPE svg PUBLIC "-//W3C//DTD SVG 1.1//EN" "http://www.w3.org/Graphics/SVG/1.1/DTD/svg11.dtd">
<svg version="1.1" id="Calque_1" xmlns:sketch="http://www.bohemiancoding.com/sketch/ns"
	 xmlns="http://www.w3.org/2000/svg" xmlns:xlink="http://www.w3.org/1999/xlink" x="0px" y="0px" viewBox="0 0 100 100"
	 style="enable-background:new 0 0 100 100;" xml:space="preserve">
<g>
	<path d="M25.5,9.1c0.7,0,1.3-0.3,1.6-0.9c0.5-1.1-0.1-2.9-1.6-4.8c-1.5,2-2.1,3.8-1.5,4.8C24.3,8.8,24.8,9.1,25.5,9.1z"/>
	<rect x="23.8" y="17.1" width="3.5" height="17.7"/>
	<path d="M94.1,63.3l-0.5,0.3c-3.8,2.5-7.1,3.7-9.6,3.7c-3.2,0-6.2-2.1-9-4.1c-2.8-1.9-5.6-4-8.6-4c-2.9,0-5.6,1.9-8.4,3.9
		c-2.9,2-5.8,4.2-9.3,4.2c-3.4,0-6.2-2.1-8.9-4c-2.7-2-5.5-4-8.7-4c-3.3,0-5.8,2.1-8.3,4c-2.4,2-4.9,4-8.1,4c-0.7,0-1.5-0.1-2.4-0.3
		c-0.2-0.1-0.4-0.1-0.6-0.2s-0.4-0.1-0.6-0.2c-0.2-0.1-0.4-0.2-0.6-0.2c-1.3-0.5-2.7-1.3-4.2-2.3l-0.5-0.3c-0.1-0.1-0.2-0.2-0.3-0.2
		c-1.8-1.3-3.4-2.7-4.2-3.5v25.6c0,0.7,0,1.4,0.1,2v0.1c0,0.1,0,0.3,0.1,0.4v0.1v0.1c0,0.1,0,0.2,0.1,0.3l0.1,0.5v0.1
		c0.1,0.3,0.1,0.4,0.2,0.6l0.4,1c0.4,0.2,0.5,0.3,0.6,0.5c0.1,0.2,0.2,0.3,0.3,0.4l0.1,0.1l0.4,0.4l0.1,0.1l0.1,0.1L4,92.6
		c0.1,0.1,0.2,0.2,0.2,0.2l0.4,0.4l0.1,0.1l0.1,0.1L5,93.6l0.1,0.1l0.2,0.2c0.4,0.3,0.9,0.5,1.3,0.7l0.5,0.2c2,0.8,3.9,0.9,3.9,0.9
		h78.1c0,0,1.9,0,3.9-0.9l0.1-0.1l0.1-0.1l0.1-0.1l0.3-0.1c0.1,0,0.2-0.1,0.3-0.2l0.1-0.1l0.9-0.6c0.2-0.1,0.3-0.2,0.4-0.3l0.1-0.1
		c0.2-0.1,0.3-0.2,0.4-0.3l0.1-0.1c0.1-0.1,0.2-0.2,0.3-0.3l0.1-0.1l0.5-0.6l0.1-0.1c0.1-0.2,0.2-0.3,0.3-0.5
		c0.1-0.2,0.2-0.4,0.3-0.6s0.2-0.3,0.2-0.4l0.1-0.1c0.1-0.1,0.1-0.3,0.2-0.4v-0.1c0.1-0.2,0.1-0.4,0.2-0.6l0.1-0.2
		c0-0.1,0.1-0.2,0.1-0.4v-0.1c0-0.2,0.1-0.3,0.1-0.5c0-0.2,0.1-0.4,0.1-0.6c0.1-0.7,0.1-1.4,0.1-2.1V59.9c-0.9,0.7-2.4,2-4.3,3.2
		C94.3,63.2,94.2,63.2,94.1,63.3z M94.9,85.7c-0.1,3.1-1.5,4.3-2.5,4.9c-1.5,0.9-3.1,0.9-3.3,1h-78c-0.2,0-1.8-0.1-3.3-1
		c-1-0.6-2.4-1.8-2.4-5.1V68.2l0.8,0.4c3.2,1.9,6.1,2.8,8.7,2.8c4.5,0,7.8-2.7,10.4-4.8c2.5-2,4.1-3.2,5.9-3.2c2,0,4.1,1.5,6.5,3.3
		c3.1,2.2,6.6,4.8,11.1,4.8c4.6,0,8.2-2.6,11.4-4.9c2.3-1.6,4.5-3.2,6.2-3.2c1.8,0,4.2,1.7,6.5,3.3c3.2,2.2,6.8,4.8,11.2,4.8
		c2.9,0,6.2-1.1,10-3.3l0.8-0.4V85.7z"/>
	<path d="M50,9.1c0.7,0,1.3-0.3,1.6-0.9c0.5-1.1-0.1-2.9-1.6-4.8c-1.4,2-2,3.8-1.5,4.8C48.8,8.8,49.3,9.1,50,9.1z"/>
	<path d="M74.6,9.1c0.7,0,1.3-0.3,1.6-0.9c0.5-1.1-0.1-2.9-1.6-4.8c-1.4,2-2,3.8-1.5,4.8C73.4,8.8,73.9,9.1,74.6,9.1z"/>
	<rect x="48.3" y="17.1" width="3.5" height="17.7"/>
	<rect x="72.9" y="17.1" width="3.5" height="17.7"/>
	<path d="M91.6,40.5H8.4c-0.3,0-7.1,0.1-7.1,8.9v9.1c0.5,0.5,2,2,4,3.5V49.5c0-5.1,2.9-5.2,3-5.2h83.2c0.1,0,3,0.1,3,5.2v12.2
		c2.2-1.4,3.7-2.7,4.2-3.2v-9.1C98.7,40.6,91.9,40.5,91.6,40.5z"/>
</g>
</svg>
