<?xml version="1.0" encoding="utf-8"?>
<!-- Generator: Adobe Illustrator 19.0.0, SVG Export Plug-In . SVG Version: 6.00 Build 0)  -->
<!DOCTYPE svg PUBLIC "-//W3C//DTD SVG 1.1//EN" "http://www.w3.org/Graphics/SVG/1.1/DTD/svg11.dtd">
<svg version="1.1" id="Calque_1" xmlns:sketch="http://www.bohemiancoding.com/sketch/ns"
	 xmlns="http://www.w3.org/2000/svg" xmlns:xlink="http://www.w3.org/1999/xlink" x="0px" y="0px" viewBox="-39 41 100 100"
	 style="enable-background:new -39 41 100 100;" xml:space="preserve">
<title>Imported Layers</title>
<desc>Created with Sketch.</desc>
<g id="Page-1" sketch:type="MSPage">
	<g id="SELECTIONS" transform="translate(-12.000000, -403.000000)" sketch:type="MSLayerGroup">
		<g id="NOM-4" transform="translate(6.000000, 400.000000)" sketch:type="MSShapeGroup">
			<path id="Imported-Layers" d="M27.2,142.2c0.1,0,0.2-0.1,0.4-0.1h0c22.1-4.8,38.7-24.5,38.7-48.1c0-27.2-22-49.2-49.3-49.2
				s-49.3,22-49.3,49.2c0,25.6,19.5,46.6,44.5,49h0c0,0,0,0,0,0c0,0,0,0,0,0c0.4,0,0.7,0.1,1.1,0.1h0c0.2,0,0.3,0,0.5,0c0,0,0,0,0,0
				c0.2,0,0.5,0,0.7,0h0c0.3,0,0.5,0,0.8,0c0,0,0,0,0,0c0.1,0,0.3,0,0.4,0h0c0.4,0,0.8,0,1.2,0c3.5,0,6.7-0.4,9.7-1h0
				C26.9,142.3,27,142.2,27.2,142.2C27.2,142.2,27.2,142.2,27.2,142.2L27.2,142.2z M-8.2,131.3c-3.2-2.4-5.5-4.8-7-6.7
				c6.4-2.3,14.8-5.2,20.1-7.1c3-1,3.5-3.3,3.5-4.5c0.1-2.8,0-5.8-1.3-8.9c-0.4-1-0.8-2.2-1.1-3.5c-0.2-0.7-0.4-1.4-0.6-2.1
				C5.2,98,5,97.2,4.5,96.3c-2.5-4.5-3.2-7.7-2.2-11c0.2-0.9,0.3-1.7,0.3-2.5c0-0.5-0.1-1.1-0.1-1.7c-0.1-1.6-0.2-3.3-0.6-5.1
				c-0.6-2.9,0-6.1,1.5-8.8c1.2-2.1,3.6-4.8,7.9-6c1.8-0.5,3.7-0.7,5.6-0.7c1.5,0,3.2,0.2,4.8,0.5c7.2,1.4,11.6,7.7,10.5,15
				c0,0.2-0.1,0.4-0.1,0.6c-0.5,3.2-1.1,6.8,0.2,10.6c-0.3,4-1.1,6.8-2.6,9c-0.5,0.7-0.7,1.3-0.9,1.9c-0.2,0.8-0.5,1.6-0.7,2.4
				c-0.5,1.6-0.9,3.1-1.5,4.6c-0.8,2.2-1.6,4.6-1.5,7.5c0.1,1.7,0.8,4,3.8,5c5.2,1.7,13.6,4.6,20.6,7.1c-1.2,1.5-3,3.4-5.4,5.4
				c-7.8,5.9-17.2,9-27.1,9c-8.9,0-17.3-2.5-24.6-7.3C-7.8,131.6-8,131.5-8.2,131.3L-8.2,131.3z M-14.9,62.1
				C-6.4,53.6,5,48.9,17,48.9c12,0,23.4,4.7,31.9,13.2C57.4,70.6,62.1,82,62.1,94c0,10.2-3.4,19.9-9.6,27.8c-4.1-1.5-9.4-3.3-14.2-5
				c-0.3-0.1-0.7-0.2-1-0.4c-0.9-0.3-1.8-0.6-2.7-0.9c-0.3-0.1-0.7-0.2-1-0.3c-0.5-0.2-1-0.3-1.5-0.5c-0.5-0.2-0.9-0.3-1.4-0.5
				c-0.2-0.1-0.4-0.1-0.6-0.2c-0.1,0-0.2-0.1-0.3-0.1c-0.4-0.2-0.6-0.4-0.8-0.7c-0.1-0.2-0.2-0.5-0.2-0.9c0-0.1,0-0.3,0-0.4
				c0,0,0,0,0,0c0-0.9,0.1-1.8,0.4-2.7c0.2-1,0.6-2,1-3c0.4-1.2,0.8-2.4,1.2-3.5c0.2-0.6,0.4-1.2,0.5-1.8c0.1-0.3,0.2-0.6,0.3-0.9
				c0.1-0.3,0.2-0.6,0.3-0.9c0.1-0.3,0.2-0.7,0.4-0.9c0.7-1,1.3-2.1,1.7-3.2c0.3-0.7,0.5-1.3,0.7-2c0.1-0.3,0.1-0.5,0.2-0.8
				c0.1-0.4,0.2-0.8,0.3-1.3c0-0.2,0.1-0.5,0.1-0.7c0.1-0.9,0.2-1.9,0.3-2.9c0-0.1,0-0.2,0-0.2c0,0,0,0,0,0v0c0-0.3,0-0.5-0.1-0.8
				c-0.4-1-0.6-2-0.6-3.1c0-0.4,0-0.8,0-1.2c0-1,0.1-2.1,0.3-3.1c0.1-0.8,0.2-1.6,0.4-2.4c0.2-1.2,0.2-2.3,0.2-3.4
				c0-0.8-0.1-1.6-0.3-2.4s-0.3-1.6-0.6-2.3c-0.4-1.3-1-2.4-1.7-3.5c-0.3-0.4-0.6-0.9-0.9-1.3c-0.3-0.4-0.7-0.8-1-1.2
				c-0.4-0.4-0.7-0.7-1.1-1.1c-0.6-0.5-1.2-1-1.9-1.4c-0.5-0.3-0.9-0.6-1.4-0.8c-1.5-0.7-3.1-1.3-4.8-1.6c-0.2,0-0.5-0.1-0.7-0.1
				c-0.1,0-0.2,0-0.2,0c-0.2,0-0.3-0.1-0.5-0.1c-0.1,0-0.2,0-0.3,0c-0.1,0-0.3,0-0.4-0.1c-0.1,0-0.2,0-0.3,0c-0.1,0-0.3,0-0.4,0
				c-0.1,0-0.2,0-0.3,0c-0.1,0-0.3,0-0.4,0c-0.1,0-0.2,0-0.3,0c-0.1,0-0.3,0-0.4,0c-0.1,0-0.2,0-0.3,0c-0.1,0-0.3,0-0.4,0
				c-0.1,0-0.2,0-0.3,0c0,0-0.1,0-0.1,0c-0.1,0-0.2,0-0.2,0c-0.2,0-0.3,0-0.5,0c-0.1,0-0.2,0-0.3,0c-0.2,0-0.3,0-0.5,0
				c-0.1,0-0.2,0-0.3,0c-0.1,0-0.3,0-0.4,0c-0.1,0-0.2,0-0.3,0c-0.1,0-0.3,0-0.4,0c-0.1,0-0.2,0-0.3,0c-0.2,0-0.3,0-0.5,0.1
				c-0.1,0-0.2,0-0.3,0.1c-0.2,0-0.3,0.1-0.5,0.1c-0.1,0-0.2,0-0.3,0.1c-0.2,0-0.3,0.1-0.5,0.1c-0.1,0-0.2,0-0.3,0.1
				c-0.3,0.1-0.5,0.1-0.8,0.2c0,0,0,0,0,0C4.8,59.2,1,63-0.8,67.4c-0.1,0.2-0.2,0.5-0.3,0.7c-0.2,0.5-0.3,0.9-0.4,1.4
				c-0.3,1-0.4,1.9-0.5,2.9c0,0.5-0.1,1,0,1.5c0,1,0.1,1.9,0.3,2.8c0.1,0.3,0.1,0.5,0.1,0.8c0.1,0.5,0.1,1,0.2,1.6
				c0,0.5,0.1,1.1,0.1,1.6c0,0.5,0.1,1.1,0.1,1.6c0,0.3,0,0.5,0.1,0.8c0,0.3,0,0.6-0.1,0.9c0,0.1,0,0.2-0.1,0.3
				c-0.3,0.9-0.4,1.9-0.5,2.8c0,0.5,0,0.9,0,1.3c0,0.4,0,0.9,0.1,1.3c0,0,0,0.1,0,0.1c0.1,0.7,0.2,1.4,0.4,2.1
				c0,0.1,0.1,0.3,0.1,0.4c0.1,0.3,0.2,0.6,0.3,0.8c0.1,0.3,0.2,0.6,0.3,0.8c0.1,0.2,0.2,0.5,0.3,0.7c0.5,1.1,1,2.3,1.7,3.4
				c0.1,0.2,0.2,0.5,0.3,0.8c0.1,0.3,0.2,0.5,0.3,0.8c0.1,0.2,0.1,0.5,0.2,0.7c0.3,1.1,0.6,2.3,1,3.4c0.1,0.2,0.1,0.3,0.2,0.5
				c0.1,0.4,0.3,0.8,0.4,1.2c0.2,0.5,0.3,0.9,0.5,1.4c0.1,0.5,0.2,0.9,0.3,1.4c0.3,1.5,0.3,3.1,0.2,4.6c0,0.2,0,0.3-0.1,0.5
				c-0.1,0.1-0.1,0.2-0.2,0.3c-0.1,0.1-0.3,0.2-0.5,0.3c-0.1,0-0.1,0.1-0.2,0.1c-0.8,0.3-1.7,0.6-2.7,0.9c-2.4,0.8-5.1,1.8-7.9,2.8
				c-0.6,0.2-1.1,0.4-1.7,0.6c-0.6,0.2-1.1,0.4-1.7,0.6c-1.4,0.5-2.8,1-4.1,1.5c-0.8,0.3-1.6,0.6-2.3,0.8c-0.3,0.1-0.5,0.2-0.7,0.3
				c-0.3,0.1-0.7,0.2-1,0.4c-6.2-7.9-9.6-17.6-9.6-27.9C-28.1,82-23.4,70.6-14.9,62.1L-14.9,62.1z"/>
		</g>
	</g>
</g>
</svg>
