<?xml version="1.0" encoding="utf-8"?>
<!-- Generator: Adobe Illustrator 19.0.0, SVG Export Plug-In . SVG Version: 6.00 Build 0)  -->
<!DOCTYPE svg PUBLIC "-//W3C//DTD SVG 1.1//EN" "http://www.w3.org/Graphics/SVG/1.1/DTD/svg11.dtd">
<svg version="1.1" id="Layer_1" xmlns="http://www.w3.org/2000/svg" xmlns:xlink="http://www.w3.org/1999/xlink" x="0px" y="0px"
	 viewBox="206 -206 512 512" style="enable-background:new 206 -206 512 512;" xml:space="preserve">
<g>
	<g>
		<path d="M463-55.1c-28.1,0-54.5,11-74.3,30.7S358,21.8,358,49.9s11,54.4,30.7,74.3c19.8,19.8,46.2,30.7,74.3,30.7
			c28.1,0,54.5-11,74.3-30.7C557.1,104.4,568,78,568,49.9s-11-54.4-30.7-74.3C517.4-44.2,491.1-55.1,463-55.1z M463,137.4
			c-48.5,0-87.5-39.3-87.5-87.5s39-87.5,87.5-87.5s87.5,39.3,87.5,87.5S511.5,137.4,463,137.4z"/>
	</g>
	<g>
		<path d="M402.7-139.4c4.9,7.2,11,13.5,18.3,18.7c12,8.5,26.2,12.9,40.9,12.9c14.8,0,28.9-4.5,40.9-12.9
			c7.3-5.1,13.4-11.5,18.3-18.7c11.3,3.6,22.2,8.1,32.7,13.6c-1.7,8.5-1.7,17.4-0.2,26.1c2.6,14.4,9.4,27.6,19.8,38.1
			C587.1-48,605-40.6,624.1-40.6c4.6,0,9.2-0.4,13.7-1.3c5.5,10.5,10,21.4,13.5,32.8c-7.2,4.9-13.5,11-18.7,18.3
			c-8.5,12-12.9,26.2-12.9,40.9S624.3,79,632.7,91c5.1,7.3,11.4,13.4,18.6,18.3c-3.6,11.3-8.1,22.2-13.6,32.8
			c-4.5-0.8-9-1.3-13.6-1.3c-19.1,0-37,7.5-50.5,20.9c-10.4,10.4-17.3,23.6-19.8,38c-1.6,8.7-1.5,17.6,0.2,26.1
			c-10.5,5.5-21.5,10-32.8,13.6c-4.9-7.2-11-13.5-18.3-18.6c-12-8.4-26.1-12.9-40.9-12.9c-14.7,0-28.9,4.5-40.9,12.9
			c-7.3,5.1-13.4,11.4-18.3,18.6c-11.3-3.6-22.2-8.1-32.8-13.6c1.7-8.5,1.7-17.4,0.2-26.1c-2.6-14.4-9.4-27.6-19.8-38
			c-13.5-13.5-31.5-20.9-50.5-20.9c-4.6,0-9.2,0.4-13.6,1.3c-5.5-10.5-10-21.5-13.6-32.8c7.2-4.9,13.5-11,18.6-18.3
			c8.4-12,12.9-26.1,12.9-40.9c0-14.8-4.5-28.9-12.9-40.9c-5.1-7.3-11.4-13.4-18.7-18.3c3.5-11.3,8.1-22.2,13.5-32.8
			c4.5,0.8,9,1.3,13.7,1.3c19.1,0,37-7.5,50.5-20.9c10.5-10.5,17.3-23.6,19.8-38.1c1.6-8.7,1.5-17.6-0.2-26.1
			C380.5-131.4,391.4-135.9,402.7-139.4 M512.4-160c-7.8,20.3-27.4,34.7-50.4,34.7s-42.6-14.4-50.4-34.7
			c-22.4,5.4-43.4,14.2-62.5,25.9c8.8,19.8,5.1,43.8-11.1,60.1c-10.5,10.5-24.3,15.8-38.1,15.8c-7.5,0-15-1.6-22-4.6
			C266.2-43.8,257.4-22.8,252-0.4C272.3,7.4,286.6,27,286.6,50s-14.4,42.6-34.6,50.4c5.4,22.4,14.2,43.4,25.9,62.5
			c7-3.1,14.4-4.6,21.9-4.6c13.8,0,27.6,5.2,38.1,15.8c16.3,16.3,19.9,40.3,11.2,60c19.1,11.7,40.1,20.6,62.5,25.9
			c7.8-20.2,27.4-34.5,50.4-34.5s42.6,14.4,50.4,34.5c22.4-5.3,43.4-14.2,62.5-25.9c-8.8-19.8-5.1-43.8,11.2-60
			c10.5-10.5,24.3-15.8,38.1-15.8c7.5,0,14.9,1.6,21.9,4.6c11.7-19.1,20.6-40.1,25.9-62.5C651.7,92.6,637.4,73,637.4,50
			S651.7,7.4,672-0.4c-5.3-22.4-14.2-43.4-25.9-62.5c-7,3.1-14.4,4.6-22,4.6c-13.8,0-27.6-5.2-38.1-15.8
			c-16.3-16.3-19.9-40.3-11.1-60.1C555.8-145.8,534.8-154.7,512.4-160L512.4-160z"/>
	</g>
</g>
</svg>
