<?xml version="1.0" encoding="utf-8"?>
<!-- Generator: Adobe Illustrator 19.0.0, SVG Export Plug-In . SVG Version: 6.00 Build 0)  -->
<!DOCTYPE svg PUBLIC "-//W3C//DTD SVG 1.1//EN" "http://www.w3.org/Graphics/SVG/1.1/DTD/svg11.dtd">
<svg version="1.1" id="Layer_1" xmlns="http://www.w3.org/2000/svg" xmlns:xlink="http://www.w3.org/1999/xlink" x="0px" y="0px"
	 viewBox="206 -206 100 100" style="enable-background:new 206 -206 100 100;" xml:space="preserve">
<path d="M303-123.2c0-1.3,0-2.6,0-3.6l0-0.7c0-5,0.2-20.3-12-32.5c-8.6-8.6-19.6-13-34.6-13.8v-19.9l-47.9,31.9l47.9,31.9v-19.8
	c9.7,0.3,15,2.4,20.4,4.8c6.3,2.8,12.1,8.7,18.2,18.4l4.8,7.8h3.2v-0.5C303-120.4,303-121.8,303-123.2z M251.6-154.5v15.3L217-161.8
	l34.6-22.6v15.3h0.5c15.7,0,27.7,4.3,35.7,12.7c9.1,9.5,10.3,21.8,10.5,26.3c-10.9-17.7-23.6-24.3-46.2-24.3H251.6z"/>
</svg>
