<?xml version="1.0" encoding="utf-8"?>
<!-- Generator: Adobe Illustrator 19.0.0, SVG Export Plug-In . SVG Version: 6.00 Build 0)  -->
<!DOCTYPE svg PUBLIC "-//W3C//DTD SVG 1.1//EN" "http://www.w3.org/Graphics/SVG/1.1/DTD/svg11.dtd">
<svg version="1.1" id="Calque_1" xmlns:sketch="http://www.bohemiancoding.com/sketch/ns"
	 xmlns="http://www.w3.org/2000/svg" xmlns:xlink="http://www.w3.org/1999/xlink" x="0px" y="0px" viewBox="-29 28 40 45"
	 style="enable-background:new -29 28 40 45;" xml:space="preserve">
<title>mapsreglages</title>
<desc>Created with Sketch.</desc>
<g>
	<path d="M10.7,71.2c-0.3-0.4-0.5-1-0.9-1.4l-0.2-0.4c-0.5-0.9-1.1-1.7-1.5-2.6l-1.5-2.6v-0.2H6.4L4.8,61c-0.4-0.8-0.9-1.6-1.3-2.4
		c0-0.1-0.1-0.1-0.1-0.2l-0.9-1.6c-0.2-0.4-0.5-0.9-1.9-0.9h-4.3c0.3-0.4,0.6-0.7,0.9-1.1c1.2-1.4,2.5-2.9,3.7-4.7
		c1.9-2.4,2.8-5.2,2.8-8.3c0-7.3-6-13.3-13.3-13.3h-0.1c-7.3,0-13.3,6-13.3,13.3c0,3.1,1,5.9,2.8,8.3c1.2,1.6,2.5,3.2,3.8,4.7
		c0.4,0.4,0.8,0.9,1.1,1.3h-3.5h-0.1l-0.5,0.1c-0.5,0.1-1.1,0.4-1.3,0.9l-1,1.6l-3.2,5.7l-1.5,2.7c-0.5,0.8-1,1.6-1.4,2.4l-1,1.7
		c-0.2,0.3-0.2,0.8-0.1,1.1c0.1,0.1,0.3,0.3,0.7,0.3h12.4h25.8c0.4,0,0.5-0.2,0.7-0.4C10.9,72,10.9,71.6,10.7,71.2z M8.9,69.3H6.4
		l-1-2.1h2.3C8.2,67.9,8.5,68.6,8.9,69.3z M7.4,66.4H5.1l-0.9-2h2.1L7.4,66.4z M-4.6,58.8c0.1,0.8,0.3,1.4,0.4,2.1h-3
		c0.4-0.7,0.8-1.4,1.2-2.1H-4.6z M-5.5,58.2c0.2-0.2,0.4-0.5,0.6-0.7c0,0.2,0.1,0.5,0.1,0.7H-5.5z M-3.9,61.6
		c0.1,0.7,0.3,1.4,0.4,2.1h-4.6c0.1-0.6,0.3-1.1,0.5-1.6c0.1-0.1,0.1-0.3,0.2-0.4H-3.9z M-1.6,61h-1.7c-0.2-0.8-0.3-1.4-0.4-2.1h4.6
		l1,2.1H-1.6z M2.1,61.7l1,2.1h-5.8c-0.2-0.8-0.3-1.4-0.5-2.1h1.5H2.1z M-3.4,64.5c0.1,0.7,0.3,1.3,0.4,2h-5.6c0-0.4,0-0.9,0.1-1.3
		l0.1-0.6H-3.4z M-2.8,67.2l0.5,2.1h-7l0.4-2.1H-2.8z M-2.4,64.5h5.9l0.9,2h-6.4C-2.3,65.8-2.4,65.1-2.4,64.5z M5.8,63.7h-2l-1-2.1
		h1.7L5.8,63.7z M4.2,61H2.5l-1-2.1h1.6C3.5,59.7,3.9,60.3,4.2,61z M0.6,56.6c1,0,1.2,0.2,1.4,0.5l0.5,1H1.2l-0.8-1.5H0.6z
		 M-0.3,56.6l0.8,1.5H-4c-0.1-0.5-0.2-0.9-0.3-1.4c0,0,0-0.1,0.1-0.1H-0.3z M-18.8,56.6h4c-0.1,0.5-0.2,1.1-0.3,1.5h-1h-3.4
		L-18.8,56.6z M-13,58.8c0.5,0.7,0.9,1.4,1.2,2.1h-3.2c0.1-0.7,0.3-1.4,0.4-2.1H-13z M-14.3,58c0.1-0.2,0.1-0.5,0.2-0.8
		c0.2,0.3,0.4,0.5,0.6,0.8H-14.3z M-22.1,63.7l0.9-2.1h5.2c-0.1,0.7-0.3,1.4-0.4,2.1H-22.1z M-16.6,64.5l-0.4,2h-6.3l0.9-2H-16.6z
		 M-15.8,64.5h5.3l0.4,2h-6L-15.8,64.5z M-15.6,63.7c0.1-0.7,0.3-1.4,0.4-2.1c1.3,0,2.5,0,3.8,0c0.3,0.7,0.5,1.4,0.7,2.1H-15.6z
		 M-20.1,57.3c0-0.2,0.2-0.3,0.3-0.4l-0.4,1.3h-0.3L-20.1,57.3z M-20,58.8h3.8h0.8c-0.1,0.7-0.3,1.4-0.4,2.1h-5L-20,58.8z
		 M-20.9,58.8h0.3l-1,2.1h-0.5L-20.9,58.8z M-22.6,61.6h0.7l-1,2.1h-0.9L-22.6,61.6z M-24.3,64.5h1l-0.9,2h-1.1L-24.3,64.5z
		 M-25.7,67.2h1.2l-1,2.1h-1.4C-26.5,68.6-26.2,67.9-25.7,67.2z M-28.2,72h-0.1c0-0.1,0-0.3,0.1-0.5l0.9-1.4h1.4l-1,2H-28.2z
		 M-18.3,72.1H-26l0.9-2h7.2L-18.3,72.1z M-24.6,69.3l0.9-2.1h6.5l-0.4,2.1H-24.6z M-10,72.1h-7.5l0.4-2h7.1V72.1z M-10,69.3h-6.9
		l0.4-2.1h6.4l0,0.2V69.3z M-14.6,53.5c-1.2-1.4-2.5-2.9-3.6-4.6c-1.6-2.1-2.4-4.5-2.6-7c0-6.1,5-11.1,11.1-11.1h0.1
		c6.1,0,11.1,5,11.1,11.1c0,2.5-0.9,4.9-2.4,6.9L-1,48.9c-1.1,1.6-2.4,3.2-3.6,4.6c-1.9,2.2-3.8,4.5-5,7.2
		C-10.8,57.9-12.8,55.6-14.6,53.5z M-9.3,72.1l0.1-2H-2c0.1,0.7,0.3,1.3,0.4,2H-9.3z M-2,67.2h6.5l1,2.1h-7C-1.6,68.6-1.8,68-2,67.2
		z M-0.8,72.1c-0.2-0.8-0.3-1.4-0.5-2h7.2l1,2H-0.8z M10.2,72.1H7.7l-1-2h2.6c0.3,0.5,0.5,1,0.9,1.5c0.1,0.2,0.1,0.3,0.1,0.4H10.2z"
		/>
	<path d="M-11.1,45.3L-11.1,45.3c0.5,0.2,1,0.3,1.5,0.3c0.5,0,1-0.1,1.4-0.3c0.9-0.4,1.7-1.1,2.1-2c0.4-0.9,0.4-2,0-2.9
		c-0.4-0.9-1.1-1.7-2-2.1c-0.9-0.4-2-0.4-2.9,0c-0.9,0.4-1.7,1.1-2.1,2c-0.4,0.9-0.4,1.9,0,2.9C-12.7,44.2-12,44.9-11.1,45.3z
		 M-10.6,39.4c1.4-0.6,2.9,0.1,3.5,1.5s-0.1,2.9-1.5,3.5c-1.4,0.6-2.9-0.1-3.5-1.5C-12.7,41.5-12,39.9-10.6,39.4z"/>
	<path d="M-3.6,46.3l0.1-0.2L-3.7,46c-0.5-0.5-0.6-1.1-0.4-1.7c0.2-0.4,0.5-0.7,0.8-0.8c0.2-0.1,0.4-0.1,0.6-0.1l0.2,0l0-0.2
		c0.1-0.8,0.1-1.6,0-2.3l0-0.2l-0.2,0c0,0,0,0,0,0c-0.6,0-1.2-0.4-1.4-1c-0.2-0.6-0.1-1.3,0.4-1.7l0.2-0.2l-0.1-0.2
		c-0.5-0.6-1-1.2-1.6-1.7l-0.2-0.1l-0.2,0.2c-0.2,0.2-0.3,0.3-0.5,0.4c-0.4,0.2-0.8,0.2-1.2,0c-0.6-0.2-1-0.8-0.9-1.5l0-0.2l-0.2,0
		c-0.8-0.1-1.6-0.1-2.3,0l-0.2,0l0,0.2c0,0.6-0.4,1.2-1,1.5c-0.6,0.2-1.3,0.1-1.7-0.4l-0.2-0.2l-0.2,0.1c-0.6,0.5-1.2,1-1.7,1.6
		l-0.1,0.2l0.2,0.2c0.5,0.5,0.6,1.1,0.4,1.7c-0.2,0.4-0.5,0.7-0.8,0.8c-0.2,0.1-0.4,0.1-0.6,0.1l-0.2,0l0,0.2
		c-0.1,0.8-0.1,1.6,0,2.3l0,0.2l0.2,0c0.7,0,1.2,0.4,1.5,1c0.2,0.6,0.1,1.3-0.4,1.7l-0.2,0.2l0.1,0.2c0.5,0.6,1,1.2,1.6,1.7l0.2,0.1
		l0.2-0.2c0.2-0.2,0.3-0.3,0.5-0.4h0c0.4-0.2,0.8-0.2,1.2,0c0.6,0.3,1,0.8,1,1.5l0,0.2l0.2,0c0.4,0.1,0.8,0.1,1.2,0.1
		c0.4,0,0.8,0,1.1-0.1l0.2,0l0-0.2c0-0.6,0.4-1.2,1-1.5c0.6-0.2,1.3-0.1,1.7,0.4l0.2,0.2l0.2-0.1C-4.7,47.5-4.1,46.9-3.6,46.3z
		 M-14.2,45.4c0.1-0.5,0.1-1.1-0.1-1.6c-0.2-0.5-0.6-0.9-1-1.2c-0.2-0.1-0.5-0.3-0.7-0.3c0-0.3,0-0.5,0-0.8c0.1,0,0.2-0.1,0.3-0.1
		c0.7-0.3,1.2-0.8,1.4-1.4c0.2-0.5,0.3-1,0.1-1.6c-0.1-0.3-0.1-0.5-0.3-0.7c0.2-0.2,0.4-0.4,0.6-0.6c0.2,0.1,0.5,0.2,0.7,0.3
		c0.5,0.1,1.1,0.1,1.6-0.1c0.5-0.2,0.9-0.6,1.2-1c0.1-0.2,0.2-0.5,0.3-0.7c0.3,0,0.5,0,0.8,0c0.1,0.2,0.2,0.5,0.3,0.7
		c0.3,0.5,0.7,0.8,1.2,1c0.7,0.3,1.4,0.3,2,0c0.1,0,0.2-0.1,0.3-0.1c0.2,0.2,0.4,0.4,0.5,0.6c-0.1,0.2-0.2,0.5-0.3,0.7
		C-5.3,38.9-5.2,39.5-5,40c0.2,0.5,0.6,0.9,1,1.2c0.2,0.1,0.5,0.3,0.7,0.3c0,0.3,0,0.5,0,0.8c-0.1,0-0.2,0.1-0.3,0.1
		c-0.7,0.3-1.2,0.8-1.4,1.4c-0.2,0.5-0.3,1-0.1,1.6c0.1,0.3,0.1,0.5,0.3,0.7c-0.2,0.2-0.4,0.4-0.6,0.6c-0.2-0.1-0.5-0.2-0.7-0.3
		c-0.5-0.1-1.1-0.1-1.6,0.1c-0.5,0.2-0.9,0.6-1.2,1c-0.1,0.2-0.3,0.5-0.3,0.7c-0.3,0-0.5,0-0.8,0c-0.1-0.3-0.2-0.5-0.3-0.7
		c-0.3-0.5-0.7-0.8-1.2-1c-0.6-0.3-1.4-0.3-2,0c-0.1,0-0.2,0.1-0.3,0.1c-0.2-0.2-0.4-0.4-0.6-0.6C-14.4,45.8-14.3,45.6-14.2,45.4z"
		/>
</g>
</svg>
