<?xml version="1.0" encoding="utf-8"?>
<!-- Generator: Adobe Illustrator 19.1.0, SVG Export Plug-In . SVG Version: 6.00 Build 0)  -->
<!DOCTYPE svg PUBLIC "-//W3C//DTD SVG 1.1//EN" "http://www.w3.org/Graphics/SVG/1.1/DTD/svg11.dtd">
<svg version="1.1" id="Calque_1" xmlns:sketch="http://www.bohemiancoding.com/sketch/ns"
	 xmlns="http://www.w3.org/2000/svg" xmlns:xlink="http://www.w3.org/1999/xlink" x="0px" y="0px" viewBox="0 0 100 100"
	 style="enable-background:new 0 0 100 100;" xml:space="preserve">
<title>-&gt;</title>
<desc>Created with Sketch.</desc>
<g id="Page-1" sketch:type="MSPage">
	<g id="ACTU" transform="translate(-68.000000, -122.000000)" sketch:type="MSLayerGroup">
		<g id="NAVBAR-2-Copy" transform="translate(21.000000, 77.000000)">
			<g id="bar-positive-_x2B_-Shape-_x2B_-----_x2B_-----2">
				<g id="_x2D__x3E_-_x2B_-_x3C_--_x2B_--_x3E__x3C_--copy" transform="translate(47.000000, 45.000000)">
					<g id="_x2D__x3E_">
						<g id="Rectangle-444-Copy">
							<path d="M99.9,65.3H0V7h99.9V65.3z M3,62.3h94V9.9H3V62.3z"/>
						</g>
						<g id="Imported-Layers-_x2B_-12-copy" transform="translate(6.000000, 1.000000)">
							<g id="Imported-Layers">
								<path sketch:type="MSShapeGroup" d="M13.3,77.8l23.5-8.6l1,2.7l-8.5,3.1h48.5v2.8H13.3"/>
							</g>
						</g>
						<g id="Imported-Layers-_x2B_-12-copy_1_" transform="translate(6.000000, 1.000000)">
							<g id="Imported-Layers_1_">
								<path sketch:type="MSShapeGroup" d="M77.6,83.3L54.1,92l-1-2.7l8.5-3.1H13.1v-2.8L77.6,83.3"/>
							</g>
						</g>
					</g>
				</g>
			</g>
		</g>
	</g>
	<g>
		<path d="M26.1,14.5c-8.7,0-15.7,7-15.7,15.6c0,8.1,6.2,14.8,14.1,15.6c0.1,0,0.2,0,0.4,0c0.1,0,0.1,0,0.2,0c0.1,0,0.1,0,0.2,0
			s0.1,0,0.3,0h0.1c0.1,0,0.3,0,0.4,0c1.1,0,2.1-0.1,3.1-0.3h0.1h0.1c0.1,0,0.1,0,0.1,0c3.5-0.8,6.5-2.7,8.7-5.4
			c2.2-2.7,3.5-6.1,3.5-9.9C41.8,21.5,34.8,14.5,26.1,14.5z M37.3,39c-1.3-0.5-3-1-4.5-1.6c-0.1,0-0.2-0.1-0.3-0.1
			c-0.3-0.1-0.6-0.2-0.9-0.3c-0.1,0-0.2-0.1-0.3-0.1c-0.1-0.1-0.3-0.1-0.5-0.2c-0.1-0.1-0.3-0.1-0.4-0.1s-0.1,0-0.2-0.1h-0.1
			c-0.1-0.1-0.2-0.1-0.3-0.2c0-0.1-0.1-0.1-0.1-0.3V36c0-0.3,0-0.6,0.1-0.9c0.1-0.3,0.2-0.6,0.3-1s0.3-0.8,0.4-1.1
			c0.1-0.2,0.1-0.4,0.1-0.6c0-0.1,0.1-0.2,0.1-0.3c0.2-0.1,0.3-0.2,0.3-0.2c0-0.1,0.1-0.2,0.1-0.3c0.2-0.3,0.4-0.7,0.6-1
			c0.1-0.2,0.1-0.4,0.2-0.6c0-0.1,0-0.2,0.1-0.3c0-0.1,0.1-0.3,0.1-0.4s0-0.1,0-0.2c0-0.3,0.1-0.6,0.1-0.9V28c0-0.1,0-0.2,0-0.3
			c-0.1-0.3-0.2-0.6-0.2-1c0-0.1,0-0.3,0-0.4c0-0.3,0-0.7,0.1-1c0-0.3,0.1-0.5,0.1-0.8c0.1-0.4,0.1-0.7,0.1-1.1c0-0.2,0-0.5-0.1-0.8
			c-0.1-0.2-0.1-0.5-0.2-0.7c-0.1-0.4-0.3-0.8-0.5-1.1c-0.1-0.1-0.2-0.3-0.3-0.4c-0.1-0.1-0.2-0.3-0.3-0.4c-0.1-0.1-0.2-0.2-0.4-0.4
			s-0.4-0.3-0.6-0.4c-0.2-0.1-0.3-0.2-0.4-0.3c-0.5-0.2-1-0.4-1.5-0.5c-0.1,0-0.2,0-0.2,0h-0.1c-0.1,0-0.1-0.1-0.1-0.1h-0.1h-0.1
			h-0.1h-0.1c-0.1,0-0.1,0-0.1,0H27H27h-0.1h-0.1h-0.1h-0.1h-0.1h-0.1c-0.1,0-0.1,0-0.1,0h-0.1c-0.1,0-0.1,0-0.2,0h-0.1h-0.1h-0.1
			h-0.1h-0.1c-0.1,0-0.1,0-0.2,0c0,0-0.1,0-0.1,0.1c-0.1,0-0.1,0-0.1,0H25c-0.1,0-0.1,0-0.2,0h-0.1c-0.1,0-0.2,0-0.3,0.1
			c-2,0.4-3.2,1.6-3.7,3c-0.1,0.1-0.1,0.1-0.1,0.2c-0.1,0.2-0.1,0.3-0.1,0.4c-0.1,0.3-0.1,0.6-0.1,0.9c0,0.1,0,0.3,0,0.5
			c0,0.3,0,0.6,0.1,0.9c0,0.1,0,0.2,0,0.3c0,0.1,0,0.3,0.1,0.5c0,0.2,0,0.4,0,0.5s0,0.3,0,0.5c0,0.1,0,0.1,0,0.3c0,0.1,0,0.2,0,0.3
			v0.1c-0.1,0.3-0.1,0.6-0.1,0.9c0,0.1,0,0.3,0,0.4s0,0.3,0,0.4l0,0c0,0.2,0.1,0.4,0.1,0.7v0.1c0,0.1,0.1,0.2,0.1,0.3
			c0.1,0.1,0.1,0.2,0.1,0.2c0,0.1,0.1,0.2,0.1,0.2c0.1,0.4,0.3,0.7,0.5,1.1c0,0.1,0.1,0.1,0.1,0.2s0.1,0.2,0.1,0.3
			c0,0.1,0,0.1,0.1,0.2c0.1,0.4,0.2,0.7,0.3,1.1c0,0.1,0,0.1,0.1,0.2c0,0.1,0.1,0.2,0.1,0.4c0.1,0.1,0.1,0.3,0.2,0.4
			c0,0.1,0.1,0.3,0.1,0.4c0.1,0.5,0.1,1,0.1,1.5c0,0.1,0,0.1,0,0.1s0,0.1-0.1,0.1c0,0-0.1,0.1-0.2,0.1c0,0,0,0-0.1,0
			c-0.2,0.1-0.5,0.2-0.9,0.3c-0.8,0.2-1.6,0.6-2.5,0.9c-0.2,0.1-0.4,0.1-0.6,0.2s-0.4,0.1-0.5,0.2c-0.4,0.1-0.9,0.3-1.3,0.5
			c-0.3,0.1-0.5,0.2-0.7,0.3c-0.1,0-0.2,0.1-0.2,0.1c-0.1,0-0.2,0.1-0.3,0.1c-2-2.5-3.1-5.6-3.1-8.9c-0.1-3.8,1.4-7.4,4.1-10.1
			c2.7-2.7,6.3-4.2,10.1-4.2s7.4,1.5,10.1,4.2c2.7,2.7,4.2,6.3,4.2,10.1C40.5,33.4,39.3,36.5,37.3,39z"/>
	</g>
</g>
</svg>
