<?xml version="1.0" encoding="utf-8"?>
<!-- Generator: Adobe Illustrator 19.0.0, SVG Export Plug-In . SVG Version: 6.00 Build 0)  -->
<!DOCTYPE svg PUBLIC "-//W3C//DTD SVG 1.1//EN" "http://www.w3.org/Graphics/SVG/1.1/DTD/svg11.dtd">
<svg version="1.1" id="Calque_1" xmlns:sketch="http://www.bohemiancoding.com/sketch/ns"
	 xmlns="http://www.w3.org/2000/svg" xmlns:xlink="http://www.w3.org/1999/xlink" x="0px" y="0px" viewBox="-10 8.1 78.9 85.9"
	 style="enable-background:new -10 8.1 78.9 85.9;" xml:space="preserve">
<path d="M46.9,65.2c-0.3-0.1-6-2-6.2-2.1c-0.1,0-0.2-0.1-0.3-0.1c-2.1-1.1,0.1-6.1,1.4-9.7c0.1-0.4,1-3.6,1.3-3.9
	c2.5-3.5,2.7-7.4,2.9-9.5c0-1.3-0.6-1.5-0.6-3.6c0-6,2.8-10.3-2.3-17c-3-4-8.2-5.5-10.1-5.5c-0.2,0-0.5,0-0.6-0.1
	c-0.4,0-5.6-0.1-6,0.1c-0.1,0-0.2,0-0.3,0.1c-0.2,0-0.3,0.1-0.4,0.1c-0.1,0-0.2,0-0.3,0.1c-0.2,0-0.3,0.1-0.4,0.1
	c-0.1,0-0.2,0-0.3,0.1c-0.9,0.3-10.8,1.4-12,12.7c0,1.4-0.1,2.3,0.3,3.7c0.2,0.7,0.4,5.3,0.5,5.6c0,0.3,0,0.5-0.1,0.8
	c0,0.1,0,0.2-0.1,0.3c-0.6,1.9-0.5,4.7,0,6.6c0,0.1,0.1,0.3,0.1,0.3c0.9,2.8,2.2,4.7,2.8,6.3c0,0,0.7,2.6,1,3.6
	c1.4,2.8,1.7,7.5,1.3,8.3c-0.1,0.1-0.1,0.2-0.2,0.3c-0.1,0.1-0.3,0.2-0.4,0.3c-0.1,0-0.1,0.1-0.2,0.1c-18.7,7-12.3,3.7-22.6,8.4
	c9.6,12.5,25.3,19.4,42.4,16c0.9,0.6,16.2-3,26-16.2C60.3,69.9,46.9,65.2,46.9,65.2z M1.4,72.3c5.6-2,12.8-4.5,17.4-6.2
	c2.6-0.9,3-2.9,3-3.9c0.1-2.4,0-5-1.1-7.7c-1-2.4-1.3-5.1-2.3-6.8c-4.9-8.8-0.1-7.8-2.3-17.6c-0.5-2.5,0-5.3,1.3-7.6
	c5.8-10.1,27.2-7.1,25,7.6c0,0.2-0.1,0.3-0.1,0.5c-0.4,2.8-1,5.9,0.2,9.2c-0.6,7.3-2.3,6-3.6,11.5c-1.7,5.5-5.2,12.9,0.7,14.8
	c4.5,1.5,11.8,4,17.9,6.2C45.8,87.9,15.4,90,1.4,72.3z"/>
</svg>
