<svg id="Layer_1" data-name="Layer 1" xmlns="http://www.w3.org/2000/svg" viewBox="0 0 67.5 90"><title>icon-trash</title><path d="M83.75,16.55H65V11.87A6.86,6.86,0,0,0,58.13,5H41.84A6.86,6.86,0,0,0,35,11.87v4.69H16.25V20H21.2l5.53,68.13A6.86,6.86,0,0,0,33.59,95h33a6.86,6.86,0,0,0,6.87-6.87L79,20h4.78V16.55ZM38.42,11.87a3.45,3.45,0,0,1,3.42-3.45H58.13a3.43,3.43,0,0,1,3.42,3.45v4.69H38.42V11.87h0ZM70.06,87.95v0.19a3.45,3.45,0,0,1-3.42,3.45h-33a3.43,3.43,0,0,1-3.42-3.45V87.95L24.62,20H75.52Z" transform="translate(-16.25 -5)"/><rect x="32.11" y="22.5" width="3.28" height="56.48"/><polygon points="48.75 22.5 45.33 22.5 42.82 78.98 46.24 78.98 48.75 22.5"/><polygon points="22.15 22.5 18.75 22.5 21.26 78.98 24.68 78.98 22.15 22.5"/></svg>