<?xml version="1.0" encoding="utf-8"?>
<!-- Generator: Adobe Illustrator 19.2.0, SVG Export Plug-In . SVG Version: 6.00 Build 0)  -->
<!DOCTYPE svg PUBLIC "-//W3C//DTD SVG 1.1//EN" "http://www.w3.org/Graphics/SVG/1.1/DTD/svg11.dtd">
<svg version="1.1" id="Calque_1" xmlns="http://www.w3.org/2000/svg" xmlns:xlink="http://www.w3.org/1999/xlink" x="0px" y="0px"
	 viewBox="0 0 100 100" style="enable-background:new 0 0 100 100;" xml:space="preserve">
<g>
	<path d="M84.1,49.8c1.4,0,2.8,0,4.2,0c0-7.3,0-14.5,0-21.7c-1.4,0-2.8,0-4.2,0C84.1,35.4,84.1,42.6,84.1,49.8z"/>
	<path d="M84.1,74c1.4,0,2.8,0,4.2,0c0-7.3,0-14.5,0-21.7c-1.4,0-2.8,0-4.2,0C84.1,59.6,84.1,66.8,84.1,74z"/>
	<polygon points="84.1,96.5 88.4,85.2 88.4,76.1 84.1,76.1 	"/>
	<path d="M84.1,3.8v21.8h4.3V8C88.4,5.7,86.4,3.8,84.1,3.8z"/>
	<path d="M11.6,96.5h69.2V4H11.6V96.5z M15.6,7.9h61.4v84.8H15.6V7.9z"/>
	<path d="M35.1,36.8c0.1,0.2,0.1,0.4,0.1,0.6l0,0c0.2,0.6,0.4,1.2,0.6,1.8c0.2,0.6,0.4,1.1,0.6,1.7c0.8,3.2,2.4,5.7,4.8,7.7
		c1.6,1.4,3.3,2.1,5,2.1c1.4,0,2.6-0.4,4.1-1.3c3-1.9,5.1-4.9,6.2-8.8c0.1-0.2,0.2-0.4,0.3-0.6c0.2-0.3,0.4-0.7,0.4-1.1
		c0.1-0.3,0.1-0.5,0.2-0.8c0.3-1.1,0.5-2.2,0.4-3.5c-0.1-0.6-0.2-1.2-0.1-1.7c1.6-6.3-0.8-10.7-6.7-12.5c-1.8-0.6-2.7-1.5-3.3-3.1
		l-0.2-0.6L47,17.2c-0.2,0.1-0.5,0.3-0.7,0.4c-0.6,0.3-1.2,0.7-1.7,1.2c-0.2,0.2-0.3,0.3-0.4,0.4c-0.1-0.1-0.3-0.4-0.3-0.5l-0.3-0.4
		l-0.4,0.3c-1.1,0.7-2.2,1.4-3.2,2.1c-3.6,2.5-5.2,5.5-4.8,9.1c0.1,1.3,0.2,2.5,0.4,3.8c0,0.1,0,0.3,0,0.4c0,0,0,0.1,0,0.1
		C34.5,34.9,34.9,36,35.1,36.8z M39.3,33.1C39.3,33,39.3,33,39.3,33.1c-0.1-0.3-0.1-0.6-0.1-0.9c0-0.3-0.1-0.6-0.1-0.9
		c-0.1-0.7-0.2-1.5-0.2-2.2c-0.2-2.4,0.8-4.1,3.3-5.8c0.3-0.3,0.7-0.5,1.1-0.8c1.3,0.3,2.3-0.2,3-0.7c0.9,0.9,2.1,1.5,3.5,1.9
		c4,1.2,5.4,3.8,4.3,8.1c-0.3,1-0.1,2,0,2.6l0,0.1c0,0.2,0,0.4,0.1,0.6c0,0.4-0.1,0.9-0.3,1.5c-0.1,0.2-0.1,0.4-0.1,0.6
		c-0.1,0.2-0.1,0.3-0.1,0.5c0,0.1,0,0.2-0.1,0.3l0,0.1c0,0,0,0,0,0c0,0.1-0.1,0.1-0.1,0.2c-0.2,0.3-0.3,0.5-0.4,0.9
		c0,0.1-0.1,0.3-0.2,0.5c-0.9,3-2.4,5.2-4.7,6.7c-0.8,0.5-1.5,0.7-2,0.7c-0.7,0-1.6-0.4-2.6-1.2c-1.7-1.5-2.9-3.4-3.6-6
		c-0.1-0.4-0.3-0.9-0.4-1.3c-0.1-0.2-0.2-0.5-0.3-0.7c-0.2-0.5-0.4-1-0.5-1.4l0-0.1c0,0,0-0.1-0.1-0.2c0,0,0-0.1,0-0.1
		C39.1,35.5,39.6,34.6,39.3,33.1z"/>
	<path d="M65.1,56.2c-2-1.1-3.9-2-5.8-2.7l-0.7-0.3c-1.6-0.7-3.3-1.4-4.4-2.8l-0.4-0.6l-1.1,1.7c-0.7,1.1-1.4,2.1-2.1,3.2
		c-1.4,1.8-2.9,2.7-4.3,2.7c-1.5,0-3-0.9-4.4-2.8c-0.2-0.2-0.3-0.4-0.4-0.6c-0.3-0.5-0.7-1.1-1-1.6c-0.3-0.6-0.7-1.1-1-1.7L39,50.3
		l-0.4,0.3c-0.3,0.2-0.6,0.5-0.9,0.7c-0.5,0.4-1,0.7-1.5,1c-2.2,1.1-4.3,1.9-6.4,2.7c-3,1.1-4.9,3-5.9,5.7
		c-1.7,4.7-2.4,9.5-2.8,15.1c-0.2,2.7,0.8,3.6,2.9,4.4c7.3,2.7,15.1,4,23.1,4c1.1,0,2.3,0,3.5-0.1c6-0.3,12.1-1.5,18.1-3.5
		c1.8-0.7,2.7-1.9,2.8-3.8c0.2-4.9-0.8-10.1-2.9-16.4C67.9,58.4,66.6,56.9,65.1,56.2z M67.7,76.7c0,0-0.1,0.1-0.4,0.1
		c-5.3,1.9-11,3.1-17.1,3.4c-1.1,0.1-2.2,0.1-3.3,0.1c-7.4,0-14.7-1.3-21.8-3.8c-0.2-0.1-0.4-0.2-0.5-0.2l0-0.5
		c0.3-4,0.8-9.2,2.6-14.2c0.7-1.8,1.8-2.9,3.6-3.5c2.3-0.8,4.7-1.8,6.7-2.8c0,0,0,0,0.1,0c0,0,0,0,0,0c0.1,0.1,0.2,0.3,0.3,0.4
		c0.1,0.1,0.1,0.2,0.2,0.3c0.2,0.3,0.3,0.6,0.6,0.8c2.6,3.5,5.4,4.2,7.3,4.2c1.5,0,4.5-0.5,7.2-4.1c0.4-0.5,0.8-1,1.2-1.5
		c0.8,0.4,1.6,0.7,2.3,1l0.4,0.1c0.1,0.1,0.3,0.1,0.4,0.2c0.1,0,0.2,0.1,0.3,0.2c2,0.8,4,1.8,5.5,2.6c0.8,0.4,1.2,1,1.6,2
		c2.7,7.4,3,11.9,2.9,14.9v0C67.8,76.6,67.7,76.7,67.7,76.7z"/>
</g>
</svg>
