<svg xmlns="http://www.w3.org/2000/svg" xmlns:xlink="http://www.w3.org/1999/xlink" version="1.1" x="0px" y="0px" viewBox="0 0 60 60" enable-background="new 0 0 60 60" xml:space="preserve"><path d="M54.8,14.2H27.9c-0.3,0-0.6,0-0.8,0.2l-2,0.9l0.8,0.9l1.7-0.8c0-0.1,0.1-0.1,0.2-0.1h26.4v2.3H25.4l-0.7-0.9l-0.8-1  l-3.5-4.9c-0.1-0.3-0.5-0.5-0.8-0.5H5.3c-0.4,0-0.8,0.4-0.8,0.8v37.5c0,0.5,0.4,0.9,0.8,0.8h49.4c0.4,0,0.8-0.4,0.8-0.8V14.9  C55.5,14.5,55,14.1,54.8,14.2z M28.6,32v-5.4c0-0.3,0.2-0.5,0.5-0.5l1.8,0c0.3,0,0.5,0.2,0.5,0.5V32c0,0.3,0.2,0.5,0.5,0.5h5.4  c0.3,0,0.5,0.2,0.5,0.5l0,1.8c0,0.3-0.2,0.5-0.5,0.5H32c-0.3,0-0.5,0.2-0.5,0.5l0,5.4c0,0.3-0.2,0.5-0.5,0.5l-1.8,0  c-0.3,0-0.5-0.2-0.5-0.5V36c0-0.3-0.2-0.5-0.5-0.5h-5.4c-0.3,0-0.5-0.2-0.5-0.5l0-1.8c0-0.3,0.2-0.5,0.5-0.5l5.4,0  C28.3,32.6,28.6,32.3,28.6,32z"></path></svg>