<?xml version="1.0" encoding="utf-8"?>
<!-- Generator: Adobe Illustrator 18.0.0, SVG Export Plug-In . SVG Version: 6.00 Build 0)  -->
<!DOCTYPE svg PUBLIC "-//W3C//DTD SVG 1.1//EN" "http://www.w3.org/Graphics/SVG/1.1/DTD/svg11.dtd">
<svg version="1.1" id="Calque_1" xmlns:sketch="http://www.bohemiancoding.com/sketch/ns"
	 xmlns="http://www.w3.org/2000/svg" xmlns:xlink="http://www.w3.org/1999/xlink" x="0px" y="0px" viewBox="2 0 22 17"
	 enable-background="new 2 0 22 17" xml:space="preserve">
<title>Shape</title>
<desc>Created with Sketch.</desc>
<g id="Page-1" sketch:type="MSPage">
	<g id="PARTAGE-3-_x2B_-PARTAGE-2-_x2B_-1ere-co-8" transform="translate(-13.000000, -524.000000)" sketch:type="MSLayerGroup">
		<g id="_x40_-3" transform="translate(6.000000, 519.000000)" sketch:type="MSShapeGroup">
			<path id="Shape" d="M23.3,15.3l5.8,4.8v-0.9l-5.3-4.4C23.7,15,23.5,15.2,23.3,15.3z M16.2,14.8l-5.3,4.4v0.9l5.8-4.8L16.2,14.8z
				 M18.5,15.9c1.1,1,1.9,1,3,0l7.6-7.5V8l-8.2,6.3c-0.7,0.6-1.1,0.6-1.8,0L10.9,8v0.5L18.5,15.9z M29.4,5.5H10.6
				C10,5.5,9.5,6,9.5,6.6v13.7c0,0.6,0.5,1.1,1.1,1.1h18.9c0.6,0,1.1-0.5,1.1-1.1V6.6C30.5,6,30,5.5,29.4,5.5L29.4,5.5z M29.9,20.4
				c0,0.3-0.2,0.5-0.5,0.5H10.6c-0.3,0-0.5-0.2-0.5-0.5V6.6c0-0.3,0.2-0.5,0.5-0.5h18.9c0.3,0,0.5,0.2,0.5,0.5V20.4L29.9,20.4z"/>
		</g>
	</g>
</g>
</svg>
