<?xml version="1.0" encoding="utf-8"?>
<!-- Generator: Adobe Illustrator 18.0.0, SVG Export Plug-In . SVG Version: 6.00 Build 0)  -->
<!DOCTYPE svg PUBLIC "-//W3C//DTD SVG 1.1//EN" "http://www.w3.org/Graphics/SVG/1.1/DTD/svg11.dtd">
<svg version="1.1" id="Calque_1" xmlns:sketch="http://www.bohemiancoding.com/sketch/ns"
	 xmlns="http://www.w3.org/2000/svg" xmlns:xlink="http://www.w3.org/1999/xlink" x="0px" y="0px" viewBox="70 0 100 100"
	 enable-background="new 70 0 100 100" xml:space="preserve">
<title>Fill 4</title>
<desc>Created with Sketch.</desc>
<g id="Page-1" sketch:type="MSPage">
	<g id="REPERTOIR" transform="translate(-297.000000, 0.000000)" sketch:type="MSLayerGroup">
		<g id="Fill-4">
			<path d="M401.7,81.9L369.6,57l32-24.7v16.8h29.5v16.1h-29.4V81.9z M374.5,57l24.3,18.7V62.3h29.4V52.1h-29.5V38.4L374.5,57z
				 M432.3,67.8V47.9h-29.5V34.7h29.5V18.1L464.4,43L432.3,67.8z M405.8,44.9h29.5v16.7L459.5,43l-24.3-18.7v13.5h-29.5V44.9z
				 M453.5,65.3h-16l16-12.4V65.3z M446.3,62.3h4.2V59L446.3,62.3z M380.5,47.1V34.7h16L380.5,47.1z M383.5,37.7V41l4.2-3.3H383.5z"
				/>
		</g>
	</g>
</g>
</svg>
