<?xml version="1.0" encoding="utf-8"?>
<!-- Generator: Adobe Illustrator 19.1.0, SVG Export Plug-In . SVG Version: 6.00 Build 0)  -->
<!DOCTYPE svg PUBLIC "-//W3C//DTD SVG 1.1//EN" "http://www.w3.org/Graphics/SVG/1.1/DTD/svg11.dtd">
<svg version="1.1" id="Calque_1" xmlns="http://www.w3.org/2000/svg" xmlns:xlink="http://www.w3.org/1999/xlink" x="0px" y="0px"
	 viewBox="2872 -1000.2 5844.8 2100.2" style="enable-background:new 2872 -1000.2 5844.8 2100.2;" xml:space="preserve">
<style type="text/css">
	.st0{fill:#0A0204;}
</style>
<g>
	<polygon class="st0" points="3256.2,596.8 3256.2,-744.3 3148.8,-744.3 3148.8,831.9 3190.7,831.9 3190.7,842.4 3196.8,831.9 
		3245.6,831.9 4149.7,-744.3 4025.9,-744.3 	"/>
	<rect x="2960.5" y="-342.5" class="st0" width="107.4" height="1174.4"/>
	<rect x="2960.5" y="-744.3" class="st0" width="107.4" height="268.1"/>
	<rect x="4212.4" y="-744.4" class="st0" width="107.4" height="268.1"/>
	<rect x="4212.4" y="-342.6" class="st0" width="107.4" height="1174.4"/>
	<path class="st0" d="M4846.9-744.1h-184.3c-25.3,0-40.4,21.5-40.4,42.2V794.7c0,20.7,14.8,42.2,39.6,42.2
		c24.8,0,39.6-21.5,39.6-42.2V255.3h144.5c152.2,0,232.7-77.8,232.7-224.8V-521C5078.6-667,4998.5-744.1,4846.9-744.1z M4999.4,32.6
		L4999.4,32.6c0,52.6-13.5,90.5-41.2,116.1c-26.6,24.5-65.4,36.4-118.5,36.4h-138.2v-859h138.2c54.5,0,93.8,12,120.1,36.7
		c26.6,25,39.6,62.3,39.6,114V32.6z"/>
	<path class="st0" d="M5996.5-742.3c-11.6,0-38.7,4.3-38.7,44c0,309.9,0.2,550.3,0.3,725.9c0.5,582.7,0.5,582.7-8.1,615.8
		c-0.5,2-1.1,4.2-1.7,6.7c-12.8,53.1-40.1,90.1-81.2,109.9c-21.7,10.5-51.5,15.7-81.4,15.8c-29.9,0-59.8-5.3-81.5-15.8
		c-59.3-28.6-90.6-95.7-90.6-193.9v-1268c0-11.1-3.7-21.2-10.8-29.2c-8.4-9.6-18.8-13.1-28.3-13.1c-5,0-9.8,1-13.9,2.5
		c-12.8,4.8-26.4,17.8-26.4,39.8c0,299.1-0.2,526-0.4,708.3c-0.6,611-0.6,611,11.6,659.5c0.5,2.1,1.1,4.3,1.7,6.7
		c17.1,69.3,55.6,118.9,114.7,147.5c39.8,19.2,83.2,26.3,123,26.3c48.6,0,91.9-10.5,117.1-22c111.7-51.2,135.1-171.6,135.1-263.7
		v-1259C6037-726.3,6022.3-742.3,5996.5-742.3z"/>
	<path class="st0" d="M6848.2,766.7h-267.3V-701.9c0-29.5-20.2-42.7-40.2-42.7c-18,0-39.1,11.2-39.1,42.7V836.9h346.6
		c25.8,0,37.4-17.7,37.4-35.1C6885.6,784.3,6874,766.7,6848.2,766.7z"/>
	<path class="st0" d="M7809.8,353.2c0-60-15.4-114.6-45.7-162.5l0,0c-33.4-52.7-80.6-111.5-110-142.3
		c-122.8-121.8-196.8-200.5-220-234c-35.2-50.6-35-86.5-34-237.6c0.2-30.2,0.4-64.5,0.4-104.8c0-50.1,14.2-89.1,42.1-115.8
		c26.8-25.7,64.9-38.8,113.1-38.8c57,0,95.7,12.3,121.6,38.6c25.4,25.8,37.2,63.8,37.2,119.5v227c0,27.8,20.1,40.5,38.8,40.5
		c17,0,36.9-10.6,36.9-40.5V-521c0-153.9-78.9-231.9-234.5-231.9c-146.8,0-234.5,84.1-234.5,224.9c0,42.8-0.1,78-0.2,109
		c-0.4,141.8-0.4,160,10.4,200c8.5,31.8,25,73.5,82.5,141.2c32.2,37.9,178.8,185.4,186.9,193.4c54.1,51.4,87.7,93.7,105.9,133.2
		c16.8,36.6,20.2,69.1,20.2,109.8v246.5c0,48.5-12.8,88.4-39.2,122c-25.7,32.7-66,48.6-123.1,48.6c-55.9,0-98.9-15.6-127.8-46.4
		c-27.6-29.4-41.6-71.8-41.6-126V324.8c0-28.3-20.1-40.9-40.1-40.9c-18.1,0-39.2,10.7-39.2,40.9v278.4c0,71.4,20.9,130.2,62.1,174.9
		c51.6,55.8,160.4,82.3,253.2,61.6c47.8-10.7,132.8-43.6,164.5-144.2c14.8-47.1,14.7-70.3,14.2-221.1
		C7809.9,439.9,7809.8,400.9,7809.8,353.2z"/>
	<path class="st0" d="M8656.4,766.7H8350V-17.8h212.1c11.9,0,21.7-3.8,28.3-10.9c5.9-6.3,9.1-14.9,9.1-24.2
		c0-17.5-11.6-35.1-37.4-35.1H8350v-585.9h306.4c24.6,0,35.7-17.6,35.7-35.1s-11-35.1-35.7-35.1h-345.2c-25.4,0-40.5,21.5-40.5,42.2
		V794.7c0,20.7,15.2,42.2,40.5,42.2h345.2c22.4,0,35.2-12.8,35.2-35.1S8678.8,766.7,8656.4,766.7z"/>
</g>
</svg>
