<?xml version="1.0" encoding="utf-8"?>
<!-- Generator: Adobe Illustrator 18.0.0, SVG Export Plug-In . SVG Version: 6.00 Build 0)  -->
<!DOCTYPE svg PUBLIC "-//W3C//DTD SVG 1.1//EN" "http://www.w3.org/Graphics/SVG/1.1/DTD/svg11.dtd">
<svg version="1.1" id="Your_Icon" xmlns="http://www.w3.org/2000/svg" xmlns:xlink="http://www.w3.org/1999/xlink" x="0px" y="0px"
	 viewBox="0 0 100 100" enable-background="new 0 0 100 100" xml:space="preserve">
<g>
	<path d="M97.1,85.8c-7.5-7.4-14.1-14.1-20.5-20.5c-0.4-0.4-0.7-0.5-0.9-0.5c-0.1,0-0.3,0-0.5,0.1c-0.7,0.3-1.4,0.6-2.1,1
		c-0.3,0.2-0.6,0.3-0.9,0.5l-0.8,0.4l-8.9-8.8l0.5-0.8c0,0,0.1-0.1,0.1-0.1c0.1-0.1,0.2-0.3,0.3-0.5c5.7-7.9,7.7-16.6,6.1-26.1
		c-1.1-6.4-4.1-12.4-8.7-17.3c-4.6-4.9-10.4-8.2-16.8-9.6c-1.2-0.3-2.4-0.5-3.6-0.7c-0.5-0.1-1.1-0.2-1.6-0.3h-5.1
		c-0.5,0.1-1.1,0.2-1.6,0.3c-1.2,0.2-2.4,0.4-3.6,0.7C15.5,6.4,5.3,17.2,3,30.4c-0.1,0.8-0.3,1.6-0.4,2.3c-0.1,0.3-0.1,0.7-0.2,1v5
		c0.1,0.2,0.1,0.4,0.1,0.6c0.9,9,4.8,16.6,11.6,22.5c6,5.3,13.9,8.2,22.2,8.2c5.4,0,10.7-1.3,15.4-3.8c1.3-0.7,2.4-1.4,3.7-2.2
		c0.6-0.4,1.2-0.7,1.8-1.1l0.8-0.5l8.6,8.9l-0.4,0.8c-0.1,0.3-0.3,0.6-0.4,0.9c-0.3,0.7-0.7,1.4-1,2.1c-0.2,0.5-0.2,0.9,0.4,1.5
		c5.1,5.1,10.3,10.3,15.4,15.3c1.6,1.6,3.2,3.2,4.8,4.8c0.7,0.7,0.9,0.8,1.1,0.8c0.3,0,0.8-0.2,1.2-0.4c2-0.9,3.8-2.3,5.8-4.4
		c1.5-1.6,3-3.4,3.8-5.7C97.6,86.5,97.5,86.2,97.1,85.8z M36.2,66.2c-16.5,0-29.9-13.4-29.9-30c0-16.5,13.4-29.9,30-29.9
		c16.5,0,29.9,13.4,29.9,30C66.2,52.9,52.8,66.2,36.2,66.2z"/>
</g>
</svg>
