<?xml version="1.0" encoding="utf-8"?>
<!-- Generator: Adobe Illustrator 19.0.0, SVG Export Plug-In . SVG Version: 6.00 Build 0)  -->
<!DOCTYPE svg PUBLIC "-//W3C//DTD SVG 1.1//EN" "http://www.w3.org/Graphics/SVG/1.1/DTD/svg11.dtd">
<svg version="1.1" id="Calque_1" xmlns="http://www.w3.org/2000/svg" xmlns:xlink="http://www.w3.org/1999/xlink" x="0px" y="0px"
	 viewBox="-25 27 48 48" style="enable-background:new -25 27 48 48;" xml:space="preserve">
<g>
	<polygon points="-5.7,56.1 2,47.7 -5.7,39.4 -5.7,44.4 -24,44.4 -24,51.1 -5.7,51.1 	"/>
	<path d="M20.5,28H-9.1c-0.8,0-1.5,0.7-1.5,1.5v9.2c0,2,3,2,3,0v-7.8h25.1L3.8,37.4v27.2H-7.6v-7.7c0-2-3-2-3,0V66
		c0.1,0.8,0.7,1.5,1.5,1.5H3.8V74l13.6-6.5h3.1c0.8,0,1.5-0.7,1.5-1.5V29.5C22,28.7,21.3,28,20.5,28z"/>
</g>
</svg>
