<?xml version="1.0" encoding="utf-8"?>
<!-- Generator: Adobe Illustrator 19.0.0, SVG Export Plug-In . SVG Version: 6.00 Build 0)  -->
<!DOCTYPE svg PUBLIC "-//W3C//DTD SVG 1.1//EN" "http://www.w3.org/Graphics/SVG/1.1/DTD/svg11.dtd">
<svg version="1.1" id="Calque_1" xmlns="http://www.w3.org/2000/svg" xmlns:xlink="http://www.w3.org/1999/xlink" x="0px" y="0px"
	 viewBox="0 0 145.7 91.3" style="enable-background:new 0 0 145.7 91.3;" xml:space="preserve">
<style type="text/css">
	.st0{fill:#FFFFFF;}
	.st1{fill:#231F20;}
</style>
<g>
	<path class="st0" d="M62,51.9l-1.4,5c5.1,0.2,8.8,0.1,11.3-0.4C65.6,52.4,64.8,52.5,62,51.9z"/>
	<path class="st0" d="M79.8,15.6c-4.2-0.5-11.1,2.9-16.2,5.3l5.1,1.6c2.2,1.7,0.8,4.8-2.2,15.8c3.6,1.2,7.8,2.3,10.4,2.9
		c1.6,0.2,0.7-2-0.2-3.2c-0.3-0.4,0.3-0.8,0.6-0.4c1.9,2.6,1.6,4.7-0.5,4.4c-10.4-2.4-27.2-9.2-29.5-7.9c-5.9,2.4-3.6,9.4-1.5,10.7
		c1.8,1.6,10.4,5.2,18.5,6.8c3.2,0.9,9.5,5,10.5,5.8c4.1,4.8,10,8.6,15.2,11.8l1.5,1c5.7,7.5,15.8,3.9,20.8,5.6
		c7.9,3.1,19.9,7.5,32.7,12v-33c-14.3-0.9-25.2-3.1-31.6-6.5C95.3,36,86.3,17.4,79.8,15.6z M51.1,44.2c-0.6,0.1-1.2,0.2-1.8,0.2
		c-1.1,0-2.4-0.2-3.8-0.6c-0.5-0.1-0.3-0.9,0.2-0.7c2,0.5,3.6,0.7,4.9,0.4c0-2.5,0.7-4.9,2.3-7.4c0.1-0.2,0.3-0.2,0.5-0.1
		c0.2,0.1,0.2,0.3,0.1,0.5c-1.6,2.4-2.3,4.9-2.2,7.3C51.4,44,51.3,44.2,51.1,44.2z"/>
	<path class="st1" d="M113.8,47.7c-17.5-11.9-27.2-31-33.9-32.9c-4.8-0.5-12.9,3.5-18,6C54.1,18.6,12.8,6.3,12,6.5
		c-0.2,0.2-0.4,0.4-0.5,0.5C11.4,7.2,8,18.6,7.9,18.8c-0.1,0.6-3.9,13.4-4.1,13.9c0,0.8-3.1,9.9-3,10.9c0.3,0.4,0.6,0.7,1.1,0.8
		c0.2,0,0.4,0.2,0.7,0.1c0.2,0.1,7.1,2.2,7.3,2.2c0.3,0.2,0.7,0.2,1,0.3c0.3,0.1,0.7,0.3,1,0.3c0.2,0.1,4.7,1.5,4.9,1.4
		c0.6,0.3,12,3.6,12.2,3.6c0.3,0.2,0.7,0.2,1,0.3c0.3,0.1,0.7,0.3,1,0.3c0.3,0.2,2.5,0.8,2.9,0.8c0.4,0.2,11.1,3.3,11.4,3.5
		c0.8,0.1,1.6,0.5,2.4,0.6c0.4,0.1,1.6,0.6,2,0.6c0.6,0.4,7.6,2.2,8,2.4c0.6,0.3,0.8,0,1.4-0.2c0.7-2.4,0.6-2,0.9-3
		c5.7,0.2,10,0.2,12.6-0.5c0.4,0.3,0.9,0.6,1.3,0.9c4.2,4.9,10.1,8.6,15.3,11.9l1.3,0.8c6,7.7,16.4,4.2,21.1,5.8
		c9.2,3.6,24.3,9,33.7,12.4V54.1C136.3,53.6,122.1,52.1,113.8,47.7z M144.9,87.9c-12.8-4.6-24.8-8.9-32.7-12
		c-5.1-1.7-15.1,1.9-20.8-5.6C74.5,59.2,77,59.4,74.6,57.3c-0.6-0.4-1.3-0.8-1.9-1.3c-2.9-1.9-5.7-3.7-8.5-4.5
		c-5.6-1.1-13-3.4-18.6-6.8c-0.7-0.3-2.1-2.6-2.1-5.2c0-4,2.8-4.9,3.8-5.5c1.8-1.4,26.3,7.9,29.7,7.9c1.9,0,1.9-2.2,0.2-4.5
		c-0.3-0.4-0.9,0-0.6,0.4c1,1.3,1.8,3.5,0.2,3.2c-2.6-0.6-6.8-1.7-10.4-2.9c3-11,4.5-14.1,2.2-15.8l-5.1-1.6
		c5.1-2.5,12.1-5.8,16.2-5.3c6.2,1.8,16,20.8,33.6,32.8c6.4,3.4,17.3,5.6,31.6,6.5V87.9z M60.6,56.9l1.4-5c2.8,0.6,3.6,0.5,10,4.6
		C69.5,57,65.7,57.1,60.6,56.9z"/>
	<path class="st1" d="M53.6,36.5c0.1-0.2,0.1-0.4-0.1-0.5c-0.2-0.1-0.4-0.1-0.5,0.1c-1.6,2.4-2.4,4.9-2.3,7.4
		c-1.3,0.2-3,0.1-4.9-0.4c-0.5-0.1-0.7,0.6-0.2,0.7c1.4,0.4,2.7,0.6,3.8,0.6c0.7,0,1.3-0.1,1.8-0.2c0.2,0,0.3-0.2,0.3-0.4
		C51.3,41.4,52,39,53.6,36.5z"/>
</g>
</svg>
