<?xml version="1.0" encoding="utf-8"?>
<!-- Generator: Adobe Illustrator 18.0.0, SVG Export Plug-In . SVG Version: 6.00 Build 0)  -->
<!DOCTYPE svg PUBLIC "-//W3C//DTD SVG 1.1//EN" "http://www.w3.org/Graphics/SVG/1.1/DTD/svg11.dtd">
<svg version="1.1" id="Layer_1" xmlns="http://www.w3.org/2000/svg" xmlns:xlink="http://www.w3.org/1999/xlink" x="0px" y="0px"
	 viewBox="0 0 512 512" enable-background="new 0 0 512 512" xml:space="preserve">
<rect fill="#EFECF1" width="512" height="512"/>
<g>
	<path fill="#FFFFFF" d="M394.5,444.8c-16.6-5.9-40.5-8-55.8-11.4c-8.8-1.9-21.6-6.8-25.8-11.9c-4.3-5.2-1.7-52.8-1.7-52.8
		s7.9-12.4,12.1-23.2s8.9-40.5,8.9-40.5s8.8,0,11.9-15.4c3.4-16.8,8.5-23.7,7.9-36.3c-0.6-11.6-6.7-12.3-7.4-12.3l0,0
		c0,0,6.3-17.6,7.2-54.7c1-44-32.7-87.4-95.9-87.4s-96.8,43.2-95.9,87.2c0.8,37,7.2,54.7,7.2,54.7l0,0c-0.6,0-6.7,0.6-7.4,12.3
		c-0.6,12.5,4.6,19.2,7.9,36c3.1,15.4,11.9,15.5,11.9,15.5s4.6,29.8,8.9,40.7c4.3,11,12.1,23.2,12.1,23.2s2.6,47.6-1.7,52.8
		c-4.3,5.2-17,9.9-25.8,11.9c-15.4,3.4-39.1,5.5-55.8,11.5s-68,25.9-68,67.2H256h206.5C462.5,470.7,411.1,450.7,394.5,444.8z"/>
</g>
</svg>
