<?xml version="1.0" encoding="utf-8"?>
<!-- Generator: Adobe Illustrator 19.1.0, SVG Export Plug-In . SVG Version: 6.00 Build 0)  -->
<!DOCTYPE svg PUBLIC "-//W3C//DTD SVG 1.1//EN" "http://www.w3.org/Graphics/SVG/1.1/DTD/svg11.dtd">
<svg version="1.1" id="Calque_1" xmlns="http://www.w3.org/2000/svg" xmlns:xlink="http://www.w3.org/1999/xlink" x="0px" y="0px"
	 viewBox="0 0 100 100" style="enable-background:new 0 0 100 100;" xml:space="preserve">
<style type="text/css">
	.st0{fill:#FFFFFF;}
</style>
<g>
	<path class="st0" d="M3.6,92.3l3.1,7.3c0,0,0,0,0,0c0,0,0,0,0,0.1c0,0,0,0,0,0c0,0,0,0,0,0c0,0,0,0,0,0c0,0,0,0,0,0c0,0,0,0,0,0
		c0,0,0,0,0,0c0,0,0,0,0.1,0c0,0,0,0,0,0h0c0,0,0,0,0,0c0,0,0,0,0.1,0c0,0,0,0,0.1,0c0,0,0,0,0,0c0,0,0,0,0,0c0,0,0,0,0,0
		c0,0,0,0,0,0l4.4-6.6c0.1-0.2,0.1-0.4-0.1-0.5c-0.1,0-0.1-0.1-0.2-0.1c-0.1,0-0.2,0.1-0.3,0.1l-3.8,5.6C8,84.2,12.1,72.6,26.4,72.6
		c0.2,0,0.3-0.1,0.3-0.3s-0.1-0.3-0.3-0.3c-14.5,0-18.9,11.7-19.7,26l-2.5-5.9c-0.1-0.1-0.2-0.2-0.3-0.2c0,0-0.1,0-0.1,0
		C3.7,92,3.6,92.2,3.6,92.3z"/>
	<path class="st0" d="M96.2,91.1c0,0-0.1,0-0.1,0c-0.1,0-0.3,0.1-0.3,0.2l-2.5,5.9c-0.8-14.3-5.2-26-19.7-26c-0.2,0-0.3,0.1-0.3,0.3
		c0,0.2,0.1,0.3,0.3,0.3c14.3,0,18.5,11.6,19.1,25.8l-3.8-5.6c-0.1-0.1-0.2-0.1-0.3-0.1c-0.1,0-0.1,0-0.2,0.1
		c-0.2,0.1-0.2,0.3-0.1,0.5l4.4,6.6c0,0,0,0,0,0c0,0,0,0,0,0c0,0,0,0,0,0c0,0,0,0,0,0c0,0,0,0,0.1,0c0,0,0,0,0.1,0c0,0,0,0,0,0h0
		c0,0,0,0,0,0c0,0,0,0,0.1,0c0,0,0,0,0,0c0,0,0,0,0,0c0,0,0,0,0,0c0,0,0,0,0,0c0,0,0,0,0,0c0,0,0,0,0,0c0,0,0,0,0-0.1c0,0,0,0,0,0
		l3.1-7.3C96.4,91.3,96.3,91.2,96.2,91.1z"/>
	<path class="st0" d="M54.2,92.1c0,0-0.1,0-0.1,0c-0.1,0-0.3,0.1-0.3,0.2l-2.5,5.9c-0.8-14.3-0.9-15.4-0.9-25c0-0.2-0.2-0.2-0.4-0.2
		c-0.2,0-0.2,0.1-0.2,0.3c-0.1,6.5,0.2,11.2,0.8,25.3l-3.8-5.6c-0.1-0.1-0.2-0.1-0.3-0.1c-0.1,0-0.1,0-0.2,0.1
		c-0.2,0.1-0.2,0.3-0.1,0.5l4.4,6.6c0,0,0,0,0,0c0,0,0,0,0,0c0,0,0,0,0,0c0,0,0,0,0,0c0,0,0,0,0.1,0c0,0,0,0,0.1,0c0,0,0,0,0,0h0
		c0,0,0,0,0,0c0,0,0,0,0.1,0c0,0,0,0,0,0c0,0,0,0,0,0c0,0,0,0,0,0c0,0,0,0,0,0c0,0,0,0,0,0c0,0,0,0,0,0c0,0,0,0,0-0.1c0,0,0,0,0,0
		l3.1-7.3C54.4,92.3,54.3,92.2,54.2,92.1z"/>
</g>
</svg>
