<?xml version="1.0" encoding="utf-8"?>
<!-- Generator: Adobe Illustrator 19.1.0, SVG Export Plug-In . SVG Version: 6.00 Build 0)  -->
<!DOCTYPE svg PUBLIC "-//W3C//DTD SVG 1.1//EN" "http://www.w3.org/Graphics/SVG/1.1/DTD/svg11.dtd">
<svg version="1.1" id="Calque_1" xmlns="http://www.w3.org/2000/svg" xmlns:xlink="http://www.w3.org/1999/xlink" x="0px" y="0px"
	 viewBox="0 0 100 100" style="enable-background:new 0 0 100 100;" xml:space="preserve">
<style type="text/css">
	.st0{fill:#FFFFFF;}
</style>
<path class="st0" d="M92.2,32.9l-8.4-20.1c0-0.1,0-0.1,0-0.1l-0.1-0.1c-0.1,0-0.1-0.1-0.1-0.1c0-0.1-0.1-0.1-0.1-0.1
	c-0.1-0.1-0.1-0.1-0.1-0.1h-0.1c0-0.1-0.1-0.1-0.1-0.1h-0.1c-0.1,0-0.1,0-0.2,0h-0.1l0,0h-0.1c-0.1,0-0.1,0-0.2,0
	c-0.1,0.1-0.1,0.1-0.2,0.1l-0.1,0.1c0,0.1-0.1,0.1-0.1,0.1c-0.1,0-0.1,0.1-0.1,0.1C82,12.7,82,12.7,82,12.7l-12.1,18
	c-0.3,0.5-0.2,1,0.2,1.3c0.1,0.2,0.3,0.2,0.5,0.2c0.3,0,0.6-0.1,0.8-0.4l10.4-15.5C80.1,55.3,48,86.5,8.6,86.5
	c-0.5,0-0.9,0.4-0.9,0.9s0.4,0.9,0.9,0.9c40,0,72.8-31.5,75-70.9l6.8,16.2c0.1,0.4,0.4,0.6,0.8,0.6c0.2,0,0.3-0.1,0.4-0.1
	C92,33.9,92.2,33.4,92.2,32.9z"/>
</svg>
