<?xml version="1.0" encoding="utf-8"?>
<!-- Generator: Adobe Illustrator 19.1.0, SVG Export Plug-In . SVG Version: 6.00 Build 0)  -->
<!DOCTYPE svg PUBLIC "-//W3C//DTD SVG 1.1//EN" "http://www.w3.org/Graphics/SVG/1.1/DTD/svg11.dtd">
<svg version="1.1" id="Calque_1" xmlns="http://www.w3.org/2000/svg" xmlns:xlink="http://www.w3.org/1999/xlink" x="0px" y="0px"
	 viewBox="0 0 500 500" style="enable-background:new 0 0 500 500;" xml:space="preserve">
<style type="text/css">
	.st0{opacity:0.6;}
	.st1{fill-rule:evenodd;clip-rule:evenodd;fill:#FCD4B3;}
	.st2{fill-rule:evenodd;clip-rule:evenodd;fill:#D3B297;}
	.st3{fill-rule:evenodd;clip-rule:evenodd;fill:#EFC5A3;}
	.st4{fill-rule:evenodd;clip-rule:evenodd;fill:#414141;}
	.st5{fill-rule:evenodd;clip-rule:evenodd;fill:#59595C;}
	.st6{fill-rule:evenodd;clip-rule:evenodd;fill:#E7E6E6;}
	.st7{fill-rule:evenodd;clip-rule:evenodd;fill:#FFFFFF;}
	.st8{fill-rule:evenodd;clip-rule:evenodd;fill:#50E3C2;}
	.st9{fill-rule:evenodd;clip-rule:evenodd;fill:#E6E7E8;}
	.st10{fill-rule:evenodd;clip-rule:evenodd;fill:#393939;}
	.st11{fill:#FFFFFF;}
	.st12{fill-rule:evenodd;clip-rule:evenodd;fill:#EFC8A9;}
	.st13{fill-rule:evenodd;clip-rule:evenodd;fill:#30E9C0;stroke:#B1B1B1;stroke-width:0.5;stroke-miterlimit:10;}
	.st14{fill-rule:evenodd;clip-rule:evenodd;fill:#D2F9EC;stroke:#B1B1B1;stroke-width:0.5;stroke-miterlimit:10;}
	.st15{fill-rule:evenodd;clip-rule:evenodd;fill:#6FF4D6;stroke:#B1B1B1;stroke-width:0.5;stroke-miterlimit:10;}
	.st16{fill-rule:evenodd;clip-rule:evenodd;fill:#A4FFE9;stroke:#B1B1B1;stroke-width:0.5;stroke-miterlimit:10;}
</style>
<g class="st0">
	<g>
		<path class="st1" d="M289.6,195.4c4.2,3.1,5,9,1.9,13.2l-55.9,77c-3.1,4.2-9.1,5-13.2,1.9c-4.2-3.1-5-9-1.9-13.2l55.9-77
			C279.4,193.1,285.4,192.3,289.6,195.4z"/>
		<polygon class="st1" points="191.1,333.8 243.4,336 245.2,294.9 273,237.9 195.3,234.7 		"/>
		<path class="st1" d="M294.6,220.9c4.2,3.1,5,9,1.9,13.2l-55.9,77c-3.1,4.2-9.1,5-13.2,1.9c-4.2-3.1-5-9-1.9-13.2l55.9-77
			C284.4,218.6,290.4,217.8,294.6,220.9z"/>
		<path class="st2" d="M206.9,230.5l-3.5,6c0,0,7.1,46.7,10.9,54.6c3.7,7.9,13.7,10.4,20.1,10.1c6.4-0.3,21.7-9.9,21.7-9.9
			L206.9,230.5z"/>
		<path class="st3" d="M290.2,157.6c4.2,3.1,5,9,1.9,13.2l-53.9,74.1c-3.1,4.2-9.1,5-13.2,1.9c-4.2-3.1-5-9-1.9-13.2l53.9-74.1
			C280.1,155.3,286.1,154.5,290.2,157.6z"/>
	</g>
	<g>
		<path class="st4" d="M193.3,126.1l51-13.5c9.9-2.6,18.1-1.4,20.7,8.5l39.4,144.4c2.6,9.9-5,15.8-14.9,18.5l-51,13.5
			c-9.9,2.6-18.4,0.9-21-9l-39.4-144.4C175.5,134.2,183.5,128.7,193.3,126.1z"/>
		<path class="st5" d="M203.4,131.3l26.4-7c0.7-0.2,1.5,0.2,1.6,1v0c0.2,0.7-0.2,1.5-1,1.6l-26.4,7c-0.7,0.2-1.5-0.2-1.6-1v0
			C202.2,132.2,202.6,131.5,203.4,131.3z"/>
		<circle class="st5" cx="238.1" cy="123.7" r="2.8"/>
		<path class="st6" d="M187.1,143.1l71.1-18.8c0.1,0,0.3,0,0.3,0.2l37.1,140.7c0,0.1,0,0.3-0.2,0.3l-71.1,18.8c-0.1,0-0.3,0-0.3-0.2
			l-37.1-140.7C186.8,143.3,186.9,143.2,187.1,143.1z"/>
		<path class="st7" d="M187.1,143.1l70.4-18.6h0l-33.1,159.7h-0.1c-0.1,0-0.2-0.1-0.2-0.2l-37.1-140.7
			C186.8,143.3,186.9,143.2,187.1,143.1z"/>
	</g>
	<g>
		<path class="st8" d="M196.7,160.2l13.2-3.6c1-0.3,2.1,0.3,2.4,1.4l3.5,12.9c0.3,1-0.3,2.1-1.4,2.4l-13.2,3.6
			c-1,0.3-2.1-0.3-2.4-1.4l-3.5-12.9C195,161.6,195.6,160.5,196.7,160.2z"/>
		<path class="st8" d="M219.7,153.9l13.2-3.6c1-0.3,2.1,0.3,2.4,1.4l3.5,12.9c0.3,1-0.3,2.1-1.4,2.4l-13.2,3.6
			c-1,0.3-2.1-0.3-2.4-1.4l-3.5-12.9C218,155.3,218.6,154.2,219.7,153.9z"/>
		<path class="st8" d="M202.9,183.1l13.2-3.6c1-0.3,2.1,0.3,2.4,1.4l3.5,12.9c0.3,1-0.3,2.1-1.4,2.4l-13.2,3.6
			c-1,0.3-2.1-0.3-2.4-1.4l-3.5-12.9C201.3,184.5,201.9,183.4,202.9,183.1z"/>
		<path class="st8" d="M225.9,176.8l13.2-3.6c1-0.3,2.1,0.3,2.4,1.4l3.5,12.9c0.3,1-0.3,2.1-1.4,2.4l-13.2,3.6
			c-1,0.3-2.1-0.3-2.4-1.4l-3.5-12.9C224.3,178.2,224.9,177.1,225.9,176.8z"/>
		<path class="st8" d="M209.2,206l13.2-3.6c1-0.3,2.1,0.3,2.4,1.4l3.5,12.9c0.3,1.1-0.3,2.1-1.4,2.4l-13.2,3.6
			c-1,0.3-2.1-0.3-2.4-1.4l-3.5-12.9C207.5,207.3,208.1,206.3,209.2,206z"/>
		<path class="st8" d="M232.2,199.7l13.2-3.6c1-0.3,2.1,0.3,2.4,1.4l3.5,12.9c0.3,1-0.3,2.1-1.4,2.4l-13.2,3.6
			c-1,0.3-2.1-0.3-2.4-1.4l-3.5-12.9C230.5,201.1,231.1,200,232.2,199.7z"/>
		<path class="st8" d="M215.5,228.9l13.2-3.6c1-0.3,2.1,0.3,2.4,1.4l3.5,12.9c0.3,1-0.3,2.1-1.4,2.4l-13.2,3.6
			c-1,0.3-2.1-0.3-2.4-1.4l-3.5-12.9C213.8,230.2,214.4,229.1,215.5,228.9z"/>
		<path class="st8" d="M238.5,222.6l13.2-3.6c1.1-0.3,2.1,0.3,2.4,1.4l3.5,12.9c0.3,1-0.3,2.1-1.4,2.4l-13.2,3.6
			c-1,0.3-2.1-0.3-2.4-1.4l-3.5-12.9C236.8,224,237.4,222.9,238.5,222.6z"/>
		<path class="st8" d="M242.9,147.5l13.2-3.6c1-0.3,2.1,0.3,2.4,1.4l3.5,12.9c0.3,1-0.3,2.1-1.4,2.4l-13.2,3.6
			c-1.1,0.3-2.1-0.3-2.4-1.4l-3.5-12.9C241.2,148.9,241.9,147.8,242.9,147.5z"/>
		<path class="st8" d="M249.2,170.4l13.2-3.6c1-0.3,2.1,0.3,2.4,1.4l3.5,12.9c0.3,1-0.3,2.1-1.4,2.4l-13.2,3.6
			c-1.1,0.3-2.1-0.3-2.4-1.4l-3.5-12.9C247.5,171.8,248.1,170.7,249.2,170.4z"/>
		<path class="st8" d="M255.4,193.3l13.2-3.6c1-0.3,2.1,0.3,2.4,1.4l3.5,12.9c0.3,1-0.3,2.1-1.4,2.4L260,210c-1,0.3-2.1-0.3-2.4-1.4
			l-3.5-12.9C253.8,194.7,254.4,193.6,255.4,193.3z"/>
		<path class="st8" d="M261.7,216.2l13.2-3.6c1-0.3,2.1,0.3,2.4,1.4l3.5,12.9c0.3,1-0.3,2.1-1.4,2.4l-13.2,3.6
			c-1,0.3-2.1-0.3-2.4-1.4l-3.5-12.9C260,217.6,260.6,216.5,261.7,216.2z"/>
	</g>
	<g>
		<path class="st3" d="M295.6,187.3c4.2,3.1,5,9.1,1.9,13.2l-9,12.1c-3.1,4.2-9.1,5-13.2,1.9c-4.2-3.1-5-9.1-1.9-13.2l9-12.1
			C285.5,185.1,291.5,184.2,295.6,187.3z"/>
		<circle class="st5" cx="261.9" cy="282.6" r="4.5"/>
		<path class="st1" d="M198.5,301.9l6.7,0.3l-0.4-8.3l-2.2-75.6c-0.6-13.9-18.2-26.2-18.7-16.5l2.7,87.6
			C186.9,296,192.3,301.7,198.5,301.9z"/>
		<path class="st3" d="M300.4,214.6c4.2,3.1,5,9.1,1.9,13.2l-10.5,14.2c-3.1,4.2-9.1,5-13.2,1.9c-4.2-3.1-5-9.1-1.9-13.2l10.5-14.2
			C290.2,212.4,296.2,211.5,300.4,214.6z"/>
		<polygon class="st7" points="180,346.9 183,315.9 249.7,318.5 248.7,348.6 		"/>
		<polygon class="st9" points="249.7,318.5 214.4,317.2 212.9,344.3 248.8,345.7 		"/>
		<polygon class="st4" points="172.4,334.4 166.2,454.7 250.7,454.7 254.8,334.4 		"/>
		<polygon class="st10" points="213.3,334.4 208.4,454.7 253,454.7 254.8,334.4 		"/>
	</g>
	<g>
		<path class="st11" d="M236.4,167.3c-11.1,0-20.1,9-20.1,20.1c0,11.1,9,20.1,20.1,20.1c11.1,0,20.1-9,20.1-20.1
			C256.5,176.4,247.5,167.3,236.4,167.3z M236.4,206.9c-10.7,0-19.5-8.7-19.5-19.5c0-10.7,8.7-19.5,19.5-19.5
			c10.7,0,19.4,8.7,19.4,19.5C255.9,198.2,247.1,206.9,236.4,206.9z"/>
		<path class="st11" d="M236.4,146.1c-22.8,0-41.4,18.6-41.4,41.4c0,22.8,18.6,41.3,41.4,41.3c22.8,0,41.4-18.5,41.4-41.3
			C277.8,164.6,259.2,146.1,236.4,146.1z M236.4,228.2c-22.5,0-40.7-18.3-40.7-40.7c0-22.5,18.3-40.7,40.7-40.7
			c22.5,0,40.7,18.3,40.7,40.7C277.1,209.9,258.9,228.2,236.4,228.2z"/>
		<path class="st11" d="M236.4,149.7c-20.8,0-37.8,16.9-37.8,37.8c0,20.8,16.9,37.8,37.8,37.8c20.8,0,37.8-16.9,37.8-37.8
			C274.2,166.6,257.2,149.7,236.4,149.7z M236.4,224.6c-20.5,0-37.1-16.7-37.1-37.1c0-20.5,16.7-37.1,37.1-37.1
			c20.5,0,37.1,16.7,37.1,37.1C273.5,207.9,256.9,224.6,236.4,224.6z"/>
		<path class="st11" d="M236.4,128.8c-32.3,0-58.7,26.3-58.7,58.6c0,32.3,26.3,58.6,58.7,58.6c32.3,0,58.6-26.3,58.6-58.6
			C295.1,155.1,268.7,128.8,236.4,128.8z M236.4,245.5c-32,0-58-26-58-58c0-32,26-58,58-58c32,0,58,26,58,58
			C294.4,219.4,268.4,245.5,236.4,245.5z"/>
		<path class="st11" d="M300.6,187.4c0-1.6-0.1-3.2-0.2-4.9l63.5-2.7l0-0.6l-63.6,2.7c-0.8-9-3.5-17.8-7.9-25.7
			c4.9-3,62.7-39.1,64.3-40.1l-0.3-0.5c-1.6,1.1-59.7,37.3-64.2,40.1c-10.6-18.6-29.8-30.6-50.9-32.2l6-38.7l-0.6-0.1l-6,38.8
			c-1.4-0.1-2.8-0.1-4.3-0.1c-14.9,0-28.6,5.1-39.6,13.7l-37-34.2l-0.3,0.3l37,34.1c-12.7,10.1-21.6,25-23.8,42.2l-34-6.1l-0.1,0.8
			l34,6.1c-0.3,2.4-0.4,4.8-0.4,7.2c0,13.3,4.1,25.7,11.1,36l-29.7,23.6l0.4,0.5l29.7-23.6c11.6,16.7,30.9,27.7,52.8,27.7
			c28,0,51.9-18,60.6-43l61.8,29.9l0.3-0.6L297.3,208C299.4,201.6,300.6,194.6,300.6,187.4z M236.4,251c-35.1,0-63.6-28.5-63.6-63.6
			c0-2.5,0.2-5.1,0.5-7.6l0,0l0,0c3.8-31.9,31-56,63.1-56c22.9,0,44.2,12.4,55.4,32.4c5.3,9.5,8.2,20.3,8.2,31.2
			C300,222.5,271.5,251,236.4,251z"/>
	</g>
	<g>
		<g>
			<path class="st12" d="M225.7,242.8c4.3,7.1,34.9,64.2,48.3,57.5c13.3-6.6-19.9-43.9-24.5-49.5
				C239.1,235.6,230.5,237.7,225.7,242.8z"/>
			<path class="st1" d="M287.4,330.1l51.5-18.1l-7.5-20.5c2.5-18.2-5.2-42.6-13.2-61.6l-3-8.6c-4.3-12.3-22-8.5-16.5,6.3l1.5,4
				l-0.7,0.1L296,222c-4.3-12.3-22-8.5-16.5,6.3l1.9,5.2l-0.6,0.1l-3.6-9.9c-4.3-12.3-22-8.5-16.5,6.3l2,5.4l-0.6,0.1l-5.7-16
				L244.8,186c-4.2-12.3-24.1-7.8-18.6,7l36.7,100.2c2.4,6.3,8.9,9.9,17.2,16.2C280.2,309.5,287.4,330.1,287.4,330.1z"/>
		</g>
		<polygon class="st7" points="287.9,353.1 275,321.8 339.3,301.1 350.7,332.7 		"/>
		<polygon class="st9" points="303,312.8 275,321.8 286.8,350.4 315.8,342.5 		"/>
		<polygon class="st10" points="276.2,336.9 323.4,454.7 408,454.7 349.5,313.3 		"/>
		<polygon class="st4" points="308.6,326.3 365.7,454.7 408,454.7 349.5,313.3 		"/>
	</g>
	
		<rect x="217.1" y="47.3" transform="matrix(0.998 6.338137e-002 -6.338137e-002 0.998 4.6068 -15.628)" class="st13" width="63.1" height="35.1"/>
	
		<rect x="339" y="82.9" transform="matrix(0.7588 0.6513 -0.6513 0.7588 154.7773 -217.1058)" class="st14" width="63.1" height="35.1"/>
	
		<rect x="122.3" y="67.3" transform="matrix(0.9636 -0.2673 0.2673 0.9636 -17.0711 44.2144)" class="st15" width="63.1" height="35.1"/>
	
		<rect x="91.8" y="142.9" transform="matrix(0.7263 -0.6874 0.6874 0.7263 -76.5023 128.7442)" class="st16" width="63.1" height="35.1"/>
	
		<rect x="110.6" y="245.4" transform="matrix(0.8255 0.5644 -0.5644 0.8255 173.2077 -34.3646)" class="st13" width="63.1" height="35.1"/>
	
		<rect x="342.6" y="233.3" transform="matrix(0.6777 -0.7354 0.7354 0.6777 -63.8429 356.0233)" class="st16" width="63.1" height="35.1"/>
	
		<rect x="343.9" y="146.1" transform="matrix(0.8675 0.4974 -0.4974 0.8675 131.1363 -165.1005)" class="st15" width="63.1" height="35.1"/>
</g>
</svg>
