<?xml version="1.0" encoding="utf-8"?>
<!-- Generator: Adobe Illustrator 19.1.0, SVG Export Plug-In . SVG Version: 6.00 Build 0)  -->
<!DOCTYPE svg PUBLIC "-//W3C//DTD SVG 1.1//EN" "http://www.w3.org/Graphics/SVG/1.1/DTD/svg11.dtd">
<svg version="1.1" id="Calque_1" xmlns="http://www.w3.org/2000/svg" xmlns:xlink="http://www.w3.org/1999/xlink" x="0px" y="0px"
	 viewBox="0 0 100 100" style="enable-background:new 0 0 100 100;" xml:space="preserve">
<style type="text/css">
	.st0{fill:#FFFFFF;}
</style>
<path class="st0" d="M79.3,84.6l20.1-8.4c0.1,0,0.1,0,0.1,0l0.1-0.1c0-0.1,0.1-0.1,0.1-0.1c0.1,0,0.1-0.1,0.1-0.1
	c0.1-0.1,0.1-0.1,0.1-0.1v-0.1c0.1,0,0.1-0.1,0.1-0.1v-0.1c0-0.1,0-0.1,0-0.2v-0.1l0,0v-0.1c0-0.1,0-0.1,0-0.2
	c-0.1-0.1-0.1-0.1-0.1-0.2l-0.1-0.1c-0.1,0-0.1-0.1-0.1-0.1c0-0.1-0.1-0.1-0.1-0.1c-0.1-0.1-0.1-0.1-0.1-0.1l-18-12.1
	c-0.5-0.3-1-0.2-1.3,0.2C80,62.5,80,62.7,80,62.9c0,0.3,0.1,0.6,0.4,0.8l15.5,10.4c-39-1.7-70.2-33.8-70.2-73.2
	c0-0.5-0.4-0.9-0.9-0.9c-0.5,0-0.9,0.4-0.9,0.9c0,40,31.5,72.8,70.9,75l-16.2,6.8c-0.4,0.1-0.6,0.4-0.6,0.8c0,0.2,0.1,0.3,0.1,0.4
	C78.3,84.3,78.8,84.5,79.3,84.6z"/>
</svg>
