<svg id="Calque_1" data-name="Calque 1" xmlns="http://www.w3.org/2000/svg" viewBox="0 0 474.4 416.25"><defs><style>.cls-1{fill:#4fe3c1;}</style></defs><title>icon-pulse</title><path class="cls-1" d="M172.2,97.3c-6.3,25.4-12.4,49.9-18.5,74.4q-13,52.2-26,104.5c-2.4,9.7-7.9,14-17.9,14H0V258.3H99.1c6.9-27.8,13.8-55.2,20.6-82.6q20.1-80.55,40.1-161.1C162.7,3,171.7-2.5,181.1,1.3c6.1,2.5,9.4,7.4,10.4,13.7q10.65,63.45,21.2,127,11.1,67.2,22.3,134.4c2.5,15.1,5.1,30.2,7.6,45.3a10.18,10.18,0,0,0,1.8,4.7c3.7-12.9,7.5-25.8,11.2-38.7q16-56.1,32-112.1c1.9-6.6,5.4-11.6,12.2-13.1,6.3-1.4,12,.1,16.1,5.5a26.23,26.23,0,0,1,3.7,7.5c9.2,27.4,18.3,54.8,27.5,82.7H474.4v32.1h-136c-10.7,0-15.5-3.4-18.8-13.5-4.8-14.3-9.5-28.7-14.6-44-0.9,2.4-1.6,4.1-2.1,5.9Q279.35,320.9,255.8,403c-2.7,9.4-8.4,13.9-17.2,13.3-8.5-.5-13.5-5.4-15.1-15Q204,284.45,184.6,167.5c-3.7-22-7.3-44-11-65.9A23.25,23.25,0,0,0,172.2,97.3Z" transform="translate(0 -0.11)"/></svg>