<?xml version="1.0" encoding="utf-8"?>
<!-- Generator: Adobe Illustrator 19.1.0, SVG Export Plug-In . SVG Version: 6.00 Build 0)  -->
<!DOCTYPE svg PUBLIC "-//W3C//DTD SVG 1.1//EN" "http://www.w3.org/Graphics/SVG/1.1/DTD/svg11.dtd">
<svg version="1.1" id="Calque_1" xmlns="http://www.w3.org/2000/svg" xmlns:xlink="http://www.w3.org/1999/xlink" x="0px" y="0px"
	 viewBox="0 0 100 100" style="enable-background:new 0 0 100 100;" xml:space="preserve">
<style type="text/css">
	.st0{fill:#FFFFFF;}
</style>
<path class="st0" d="M21.9,83.9c0-0.1,0.1-0.2,0.1-0.4c0-0.4-0.2-0.7-0.6-0.8L5.2,75.9c39.4-2.2,70.9-35,70.9-75
	c0-0.5-0.4-0.9-0.9-0.9s-0.9,0.4-0.9,0.9c0,39.4-31.2,71.5-70.2,73.2l15.5-10.4c0.3-0.2,0.4-0.5,0.4-0.8c0-0.2,0-0.4-0.2-0.5
	c-0.3-0.4-0.8-0.5-1.3-0.2l-18,12.1c0,0,0,0-0.1,0.1c0,0-0.1,0-0.1,0.1c0,0,0,0.1-0.1,0.1l-0.1,0.1c0,0.1,0,0.1-0.1,0.2
	C0,75,0,75,0,75.1v0.1l0,0v0.1c0,0.1,0,0.1,0,0.2v0.1c0,0,0,0.1,0.1,0.1v0.1c0,0,0,0,0.1,0.1c0,0,0,0.1,0.1,0.1c0,0,0.1,0,0.1,0.1
	l0.1,0.1c0,0,0,0,0.1,0l20.1,8.4C21.2,84.5,21.7,84.3,21.9,83.9z"/>
</svg>
